%TF.GenerationSoftware,KiCad,Pcbnew,9.0.3*%
%TF.CreationDate,2025-10-12T18:54:41-05:00*%
%TF.ProjectId,Moco-IOBreakoutPCB,4d6f636f-2d49-44f4-9272-65616b6f7574,rev?*%
%TF.SameCoordinates,Original*%
%TF.FileFunction,Legend,Bot*%
%TF.FilePolarity,Positive*%
%FSLAX46Y46*%
G04 Gerber Fmt 4.6, Leading zero omitted, Abs format (unit mm)*
G04 Created by KiCad (PCBNEW 9.0.3) date 2025-10-12 18:54:41*
%MOMM*%
%LPD*%
G01*
G04 APERTURE LIST*
%ADD10C,0.150000*%
%ADD11C,0.152400*%
%ADD12C,0.508000*%
%ADD13C,3.200000*%
%ADD14C,1.574800*%
G04 APERTURE END LIST*
D10*
X163458332Y-75604819D02*
X163458332Y-76319104D01*
X163458332Y-76319104D02*
X163505951Y-76461961D01*
X163505951Y-76461961D02*
X163601189Y-76557200D01*
X163601189Y-76557200D02*
X163744046Y-76604819D01*
X163744046Y-76604819D02*
X163839284Y-76604819D01*
X163077379Y-75604819D02*
X162458332Y-75604819D01*
X162458332Y-75604819D02*
X162791665Y-75985771D01*
X162791665Y-75985771D02*
X162648808Y-75985771D01*
X162648808Y-75985771D02*
X162553570Y-76033390D01*
X162553570Y-76033390D02*
X162505951Y-76081009D01*
X162505951Y-76081009D02*
X162458332Y-76176247D01*
X162458332Y-76176247D02*
X162458332Y-76414342D01*
X162458332Y-76414342D02*
X162505951Y-76509580D01*
X162505951Y-76509580D02*
X162553570Y-76557200D01*
X162553570Y-76557200D02*
X162648808Y-76604819D01*
X162648808Y-76604819D02*
X162934522Y-76604819D01*
X162934522Y-76604819D02*
X163029760Y-76557200D01*
X163029760Y-76557200D02*
X163077379Y-76509580D01*
X153443330Y-89654818D02*
X153443330Y-90369103D01*
X153443330Y-90369103D02*
X153490949Y-90511960D01*
X153490949Y-90511960D02*
X153586187Y-90607199D01*
X153586187Y-90607199D02*
X153729044Y-90654818D01*
X153729044Y-90654818D02*
X153824282Y-90654818D01*
X153014758Y-89750056D02*
X152967139Y-89702437D01*
X152967139Y-89702437D02*
X152871901Y-89654818D01*
X152871901Y-89654818D02*
X152633806Y-89654818D01*
X152633806Y-89654818D02*
X152538568Y-89702437D01*
X152538568Y-89702437D02*
X152490949Y-89750056D01*
X152490949Y-89750056D02*
X152443330Y-89845294D01*
X152443330Y-89845294D02*
X152443330Y-89940532D01*
X152443330Y-89940532D02*
X152490949Y-90083389D01*
X152490949Y-90083389D02*
X153062377Y-90654818D01*
X153062377Y-90654818D02*
X152443330Y-90654818D01*
X157333336Y-55954819D02*
X157333336Y-56669104D01*
X157333336Y-56669104D02*
X157380955Y-56811961D01*
X157380955Y-56811961D02*
X157476193Y-56907200D01*
X157476193Y-56907200D02*
X157619050Y-56954819D01*
X157619050Y-56954819D02*
X157714288Y-56954819D01*
X156333336Y-56954819D02*
X156904764Y-56954819D01*
X156619050Y-56954819D02*
X156619050Y-55954819D01*
X156619050Y-55954819D02*
X156714288Y-56097676D01*
X156714288Y-56097676D02*
X156809526Y-56192914D01*
X156809526Y-56192914D02*
X156904764Y-56240533D01*
X143423333Y-75664818D02*
X143423333Y-76379103D01*
X143423333Y-76379103D02*
X143470952Y-76521960D01*
X143470952Y-76521960D02*
X143566190Y-76617199D01*
X143566190Y-76617199D02*
X143709047Y-76664818D01*
X143709047Y-76664818D02*
X143804285Y-76664818D01*
X142518571Y-75998151D02*
X142518571Y-76664818D01*
X142756666Y-75617199D02*
X142994761Y-76331484D01*
X142994761Y-76331484D02*
X142375714Y-76331484D01*
X131833334Y-55904818D02*
X131833334Y-56619103D01*
X131833334Y-56619103D02*
X131880953Y-56761960D01*
X131880953Y-56761960D02*
X131976191Y-56857199D01*
X131976191Y-56857199D02*
X132119048Y-56904818D01*
X132119048Y-56904818D02*
X132214286Y-56904818D01*
X130880953Y-55904818D02*
X131357143Y-55904818D01*
X131357143Y-55904818D02*
X131404762Y-56381008D01*
X131404762Y-56381008D02*
X131357143Y-56333389D01*
X131357143Y-56333389D02*
X131261905Y-56285770D01*
X131261905Y-56285770D02*
X131023810Y-56285770D01*
X131023810Y-56285770D02*
X130928572Y-56333389D01*
X130928572Y-56333389D02*
X130880953Y-56381008D01*
X130880953Y-56381008D02*
X130833334Y-56476246D01*
X130833334Y-56476246D02*
X130833334Y-56714341D01*
X130833334Y-56714341D02*
X130880953Y-56809579D01*
X130880953Y-56809579D02*
X130928572Y-56857199D01*
X130928572Y-56857199D02*
X131023810Y-56904818D01*
X131023810Y-56904818D02*
X131261905Y-56904818D01*
X131261905Y-56904818D02*
X131357143Y-56857199D01*
X131357143Y-56857199D02*
X131404762Y-56809579D01*
D11*
%TO.C,J3*%
X155492299Y-71343000D02*
X170757699Y-71343000D01*
X155492299Y-80004400D02*
X155492299Y-71343000D01*
X170757699Y-71343000D02*
X170757699Y-80004400D01*
X170757699Y-80004400D02*
X155492299Y-80004400D01*
D12*
X172916699Y-77650000D02*
G75*
G02*
X172154699Y-77650000I-381000J0D01*
G01*
X172154699Y-77650000D02*
G75*
G02*
X172916699Y-77650000I381000J0D01*
G01*
D11*
%TO.C,J2*%
X139482897Y-85392999D02*
X166737097Y-85392999D01*
X139482897Y-94054399D02*
X139482897Y-85392999D01*
X166737097Y-85392999D02*
X166737097Y-94054399D01*
X166737097Y-94054399D02*
X139482897Y-94054399D01*
D12*
X168896097Y-91699999D02*
G75*
G02*
X168134097Y-91699999I-381000J0D01*
G01*
X168134097Y-91699999D02*
G75*
G02*
X168896097Y-91699999I381000J0D01*
G01*
D11*
%TO.C,J1*%
X143372903Y-51693000D02*
X170627103Y-51693000D01*
X143372903Y-60354400D02*
X143372903Y-51693000D01*
X170627103Y-51693000D02*
X170627103Y-60354400D01*
X170627103Y-60354400D02*
X143372903Y-60354400D01*
D12*
X172786103Y-58000000D02*
G75*
G02*
X172024103Y-58000000I-381000J0D01*
G01*
X172024103Y-58000000D02*
G75*
G02*
X172786103Y-58000000I381000J0D01*
G01*
D11*
%TO.C,J4*%
X135457300Y-71402999D02*
X150722700Y-71402999D01*
X135457300Y-80064399D02*
X135457300Y-71402999D01*
X150722700Y-71402999D02*
X150722700Y-80064399D01*
X150722700Y-80064399D02*
X135457300Y-80064399D01*
D12*
X152881700Y-77709999D02*
G75*
G02*
X152119700Y-77709999I-381000J0D01*
G01*
X152119700Y-77709999D02*
G75*
G02*
X152881700Y-77709999I381000J0D01*
G01*
D11*
%TO.C,J5*%
X123867301Y-51642999D02*
X139132701Y-51642999D01*
X123867301Y-60304399D02*
X123867301Y-51642999D01*
X139132701Y-51642999D02*
X139132701Y-60304399D01*
X139132701Y-60304399D02*
X123867301Y-60304399D01*
D12*
X141291701Y-57949999D02*
G75*
G02*
X140529701Y-57949999I-381000J0D01*
G01*
X140529701Y-57949999D02*
G75*
G02*
X141291701Y-57949999I381000J0D01*
G01*
%TD*%
%LPC*%
D13*
%TO.C,REF\u002A\u002A*%
X177500000Y-58000000D03*
%TD*%
%TO.C,REF\u002A\u002A*%
X117000000Y-58000000D03*
%TD*%
D14*
%TO.C,J3*%
X166124998Y-77650000D03*
X163124999Y-77650000D03*
X160125000Y-77650000D03*
X166124998Y-74650001D03*
X163124999Y-74650001D03*
X160125000Y-74650001D03*
%TD*%
%TO.C,J2*%
X162109994Y-91699999D03*
X159109995Y-91699999D03*
X156109996Y-91699999D03*
X153109997Y-91699999D03*
X150109998Y-91699999D03*
X147109999Y-91699999D03*
X144110000Y-91699999D03*
X162109994Y-88700000D03*
X159109995Y-88700000D03*
X156109996Y-88700000D03*
X153109997Y-88700000D03*
X150109998Y-88700000D03*
X147109999Y-88700000D03*
X144110000Y-88700000D03*
%TD*%
%TO.C,J1*%
X166000000Y-58000000D03*
X163000001Y-58000000D03*
X160000002Y-58000000D03*
X157000003Y-58000000D03*
X154000004Y-58000000D03*
X151000005Y-58000000D03*
X148000006Y-58000000D03*
X166000000Y-55000001D03*
X163000001Y-55000001D03*
X160000002Y-55000001D03*
X157000003Y-55000001D03*
X154000004Y-55000001D03*
X151000005Y-55000001D03*
X148000006Y-55000001D03*
%TD*%
%TO.C,J4*%
X146089999Y-77709999D03*
X143090000Y-77709999D03*
X140090001Y-77709999D03*
X146089999Y-74710000D03*
X143090000Y-74710000D03*
X140090001Y-74710000D03*
%TD*%
%TO.C,J5*%
X134500000Y-57949999D03*
X131500001Y-57949999D03*
X128500002Y-57949999D03*
X134500000Y-54950000D03*
X131500001Y-54950000D03*
X128500002Y-54950000D03*
%TD*%
%LPD*%
M02*
