%TF.GenerationSoftware,KiCad,Pcbnew,9.0.3*%
%TF.CreationDate,2025-10-12T18:54:41-05:00*%
%TF.ProjectId,Moco-IOBreakoutPCB,4d6f636f-2d49-44f4-9272-65616b6f7574,rev?*%
%TF.SameCoordinates,Original*%
%TF.FileFunction,Soldermask,Top*%
%TF.FilePolarity,Negative*%
%FSLAX46Y46*%
G04 Gerber Fmt 4.6, Leading zero omitted, Abs format (unit mm)*
G04 Created by KiCad (PCBNEW 9.0.3) date 2025-10-12 18:54:41*
%MOMM*%
%LPD*%
G01*
G04 APERTURE LIST*
G04 Aperture macros list*
%AMRoundRect*
0 Rectangle with rounded corners*
0 $1 Rounding radius*
0 $2 $3 $4 $5 $6 $7 $8 $9 X,Y pos of 4 corners*
0 Add a 4 corners polygon primitive as box body*
4,1,4,$2,$3,$4,$5,$6,$7,$8,$9,$2,$3,0*
0 Add four circle primitives for the rounded corners*
1,1,$1+$1,$2,$3*
1,1,$1+$1,$4,$5*
1,1,$1+$1,$6,$7*
1,1,$1+$1,$8,$9*
0 Add four rect primitives between the rounded corners*
20,1,$1+$1,$2,$3,$4,$5,0*
20,1,$1+$1,$4,$5,$6,$7,0*
20,1,$1+$1,$6,$7,$8,$9,0*
20,1,$1+$1,$8,$9,$2,$3,0*%
G04 Aperture macros list end*
%ADD10RoundRect,0.200000X0.200000X0.275000X-0.200000X0.275000X-0.200000X-0.275000X0.200000X-0.275000X0*%
%ADD11C,1.574800*%
G04 APERTURE END LIST*
D10*
%TO.C,120m/s1*%
X143725000Y-66750000D03*
X142075000Y-66750000D03*
%TD*%
D11*
%TO.C,J3*%
X166124998Y-77650000D03*
X163124999Y-77650000D03*
X160125000Y-77650000D03*
X166124998Y-74650001D03*
X163124999Y-74650001D03*
X160125000Y-74650001D03*
%TD*%
%TO.C,J2*%
X162109994Y-91699999D03*
X159109995Y-91699999D03*
X156109996Y-91699999D03*
X153109997Y-91699999D03*
X150109998Y-91699999D03*
X147109999Y-91699999D03*
X144110000Y-91699999D03*
X162109994Y-88700000D03*
X159109995Y-88700000D03*
X156109996Y-88700000D03*
X153109997Y-88700000D03*
X150109998Y-88700000D03*
X147109999Y-88700000D03*
X144110000Y-88700000D03*
%TD*%
%TO.C,J1*%
X166000000Y-58000000D03*
X163000001Y-58000000D03*
X160000002Y-58000000D03*
X157000003Y-58000000D03*
X154000004Y-58000000D03*
X151000005Y-58000000D03*
X148000006Y-58000000D03*
X166000000Y-55000001D03*
X163000001Y-55000001D03*
X160000002Y-55000001D03*
X157000003Y-55000001D03*
X154000004Y-55000001D03*
X151000005Y-55000001D03*
X148000006Y-55000001D03*
%TD*%
%TO.C,J4*%
X146089999Y-77709999D03*
X143090000Y-77709999D03*
X140090001Y-77709999D03*
X146089999Y-74710000D03*
X143090000Y-74710000D03*
X140090001Y-74710000D03*
%TD*%
%TO.C,J5*%
X134500000Y-57949999D03*
X131500001Y-57949999D03*
X128500002Y-57949999D03*
X134500000Y-54950000D03*
X131500001Y-54950000D03*
X128500002Y-54950000D03*
%TD*%
M02*
