M48
; DRILL file {KiCad 9.0.3} date 2025-10-12T18:54:41-0500
; FORMAT={-:-/ absolute / inch / decimal}
; #@! TF.CreationDate,2025-10-12T18:54:41-05:00
; #@! TF.GenerationSoftware,Kicad,Pcbnew,9.0.3
; #@! TF.FileFunction,Plated,1,2,PTH
FMAT,2
INCH
; #@! TA.AperFunction,Plated,PTH,ViaDrill
T1C0.0118
; #@! TA.AperFunction,Plated,PTH,ComponentDrill
T2C0.0420
%
G90
G05
T1
X5.6772Y-2.7717
X5.6811Y-2.6732
X5.7402Y-2.8346
X5.7441Y-2.7283
X5.8425Y-3.2795
X5.8465Y-2.4213
X5.8465Y-3.1929
X5.8504Y-2.4882
X5.9094Y-3.1299
X5.9094Y-3.2244
X5.9173Y-2.4055
X5.9173Y-2.4764
X6.3622Y-3.0866
T2
X5.0591Y-2.1634
X5.0591Y-2.2815
X5.1772Y-2.1634
X5.1772Y-2.2815
X5.2953Y-2.1634
X5.2953Y-2.2815
X5.5154Y-2.9413
X5.5154Y-3.0594
X5.6335Y-2.9413
X5.6335Y-3.0594
X5.6736Y-3.4921
X5.6736Y-3.6102
X5.7516Y-2.9413
X5.7516Y-3.0594
X5.7917Y-3.4921
X5.7917Y-3.6102
X5.8268Y-2.1654
X5.8268Y-2.2835
X5.9098Y-3.4921
X5.9098Y-3.6102
X5.9449Y-2.1654
X5.9449Y-2.2835
X6.028Y-3.4921
X6.028Y-3.6102
X6.063Y-2.1654
X6.063Y-2.2835
X6.1461Y-3.4921
X6.1461Y-3.6102
X6.1811Y-2.1654
X6.1811Y-2.2835
X6.2642Y-3.4921
X6.2642Y-3.6102
X6.2992Y-2.1654
X6.2992Y-2.2835
X6.3041Y-2.939
X6.3041Y-3.0571
X6.3823Y-3.4921
X6.3823Y-3.6102
X6.4173Y-2.1654
X6.4173Y-2.2835
X6.4222Y-2.939
X6.4222Y-3.0571
X6.5354Y-2.1654
X6.5354Y-2.2835
X6.5404Y-2.939
X6.5404Y-3.0571
M30
