%TF.GenerationSoftware,KiCad,Pcbnew,9.0.3*%
%TF.CreationDate,2025-10-12T18:54:41-05:00*%
%TF.ProjectId,Moco-IOBreakoutPCB,4d6f636f-2d49-44f4-9272-65616b6f7574,rev?*%
%TF.SameCoordinates,Original*%
%TF.FileFunction,Copper,L2,Bot*%
%TF.FilePolarity,Positive*%
%FSLAX46Y46*%
G04 Gerber Fmt 4.6, Leading zero omitted, Abs format (unit mm)*
G04 Created by KiCad (PCBNEW 9.0.3) date 2025-10-12 18:54:41*
%MOMM*%
%LPD*%
G01*
G04 APERTURE LIST*
%TA.AperFunction,ComponentPad*%
%ADD10C,1.574800*%
%TD*%
%TA.AperFunction,ViaPad*%
%ADD11C,0.600000*%
%TD*%
%TA.AperFunction,Conductor*%
%ADD12C,0.150000*%
%TD*%
G04 APERTURE END LIST*
D10*
%TO.P,J3,1,Pin_1*%
%TO.N,+12V*%
X166124998Y-77650000D03*
%TO.P,J3,2,Pin_2*%
%TO.N,GND*%
X163124999Y-77650000D03*
%TO.P,J3,3,Pin_3*%
%TO.N,unconnected-(J3-Pin_3-Pad3)*%
X160125000Y-77650000D03*
%TO.P,J3,4,Pin_4*%
%TO.N,/CAN_H-in*%
X166124998Y-74650001D03*
%TO.P,J3,5,Pin_5*%
%TO.N,/CAN_L-in*%
X163124999Y-74650001D03*
%TO.P,J3,6,Pin_6*%
%TO.N,unconnected-(J3-Pin_6-Pad6)*%
X160125000Y-74650001D03*
%TD*%
%TO.P,J2,1,Pin_1*%
%TO.N,/Serial_RX+*%
X162109994Y-91699999D03*
%TO.P,J2,2,Pin_2*%
%TO.N,/H3{slash}I_RX+*%
X159109995Y-91699999D03*
%TO.P,J2,3,Pin_3*%
%TO.N,/H2{slash}B_RX+*%
X156109996Y-91699999D03*
%TO.P,J2,4,Pin_4*%
%TO.N,/H1{slash}A_RX+*%
X153109997Y-91699999D03*
%TO.P,J2,5,Pin_5*%
%TO.N,+12V_MCI*%
X150109998Y-91699999D03*
%TO.P,J2,6,Pin_6*%
%TO.N,+5V_MCI*%
X147109999Y-91699999D03*
%TO.P,J2,7,Pin_7*%
%TO.N,unconnected-(J2-Pin_7-Pad7)*%
X144110000Y-91699999D03*
%TO.P,J2,8,Pin_8*%
%TO.N,/Serial_RX-*%
X162109994Y-88700000D03*
%TO.P,J2,9,Pin_9*%
%TO.N,/H3{slash}I_RX-*%
X159109995Y-88700000D03*
%TO.P,J2,10,Pin_10*%
%TO.N,/H2{slash}B_RX-*%
X156109996Y-88700000D03*
%TO.P,J2,11,Pin_11*%
%TO.N,/H1{slash}A_RX-*%
X153109997Y-88700000D03*
%TO.P,J2,12,Pin_12*%
%TO.N,GND_MCI*%
X150109998Y-88700000D03*
%TO.P,J2,13,Pin_13*%
X147109999Y-88700000D03*
%TO.P,J2,14,Pin_14*%
%TO.N,/Shield_MCI*%
X144110000Y-88700000D03*
%TD*%
%TO.P,J1,1,Pin_1*%
%TO.N,/Serial_RX+*%
X166000000Y-58000000D03*
%TO.P,J1,2,Pin_2*%
%TO.N,/H3{slash}I_RX+*%
X163000001Y-58000000D03*
%TO.P,J1,3,Pin_3*%
%TO.N,/H2{slash}B_RX+*%
X160000002Y-58000000D03*
%TO.P,J1,4,Pin_4*%
%TO.N,/H1{slash}A_RX+*%
X157000003Y-58000000D03*
%TO.P,J1,5,Pin_5*%
%TO.N,+12V_MCI*%
X154000004Y-58000000D03*
%TO.P,J1,6,Pin_6*%
%TO.N,+5V_MCI*%
X151000005Y-58000000D03*
%TO.P,J1,7,Pin_7*%
%TO.N,unconnected-(J1-Pin_7-Pad7)*%
X148000006Y-58000000D03*
%TO.P,J1,8,Pin_8*%
%TO.N,/Serial_RX-*%
X166000000Y-55000001D03*
%TO.P,J1,9,Pin_9*%
%TO.N,/H3{slash}I_RX-*%
X163000001Y-55000001D03*
%TO.P,J1,10,Pin_10*%
%TO.N,/H2{slash}B_RX-*%
X160000002Y-55000001D03*
%TO.P,J1,11,Pin_11*%
%TO.N,/H1{slash}A_RX-*%
X157000003Y-55000001D03*
%TO.P,J1,12,Pin_12*%
%TO.N,GND_MCI*%
X154000004Y-55000001D03*
%TO.P,J1,13,Pin_13*%
X151000005Y-55000001D03*
%TO.P,J1,14,Pin_14*%
%TO.N,/Shield_MCI*%
X148000006Y-55000001D03*
%TD*%
%TO.P,J4,1,Pin_1*%
%TO.N,unconnected-(J4-Pin_1-Pad1)*%
X146089999Y-77709999D03*
%TO.P,J4,2,Pin_2*%
%TO.N,unconnected-(J4-Pin_2-Pad2)*%
X143090000Y-77709999D03*
%TO.P,J4,3,Pin_3*%
%TO.N,unconnected-(J4-Pin_3-Pad3)*%
X140090001Y-77709999D03*
%TO.P,J4,4,Pin_4*%
%TO.N,/CAN_H-out*%
X146089999Y-74710000D03*
%TO.P,J4,5,Pin_5*%
%TO.N,/CAN_L-out*%
X143090000Y-74710000D03*
%TO.P,J4,6,Pin_6*%
%TO.N,unconnected-(J4-Pin_6-Pad6)*%
X140090001Y-74710000D03*
%TD*%
%TO.P,J5,1,Pin_1*%
%TO.N,+12V*%
X134500000Y-57949999D03*
%TO.P,J5,2,Pin_2*%
%TO.N,GND*%
X131500001Y-57949999D03*
%TO.P,J5,3,Pin_3*%
%TO.N,/CAN_H-in*%
X128500002Y-57949999D03*
%TO.P,J5,4,Pin_4*%
%TO.N,/CAN_L-in*%
X134500000Y-54950000D03*
%TO.P,J5,5,Pin_5*%
%TO.N,/CAN_H-out*%
X131500001Y-54950000D03*
%TO.P,J5,6,Pin_6*%
%TO.N,/CAN_L-out*%
X128500002Y-54950000D03*
%TD*%
D11*
%TO.N,GND*%
X150300000Y-61100000D03*
X145800000Y-72000000D03*
X144200000Y-70400000D03*
X150100000Y-79500000D03*
X148600000Y-63200000D03*
X150100000Y-81900000D03*
X148500000Y-81100000D03*
X145900000Y-69300000D03*
X148400000Y-83300000D03*
X148500000Y-61500000D03*
X144300000Y-67900000D03*
X150300000Y-62900000D03*
X161600000Y-78400000D03*
%TD*%
D12*
%TO.N,/H1{slash}A_RX+*%
X154600000Y-90209996D02*
X154600000Y-86813193D01*
X153151000Y-61849003D02*
X157000003Y-58000000D01*
X153151000Y-85364193D02*
X153151000Y-61849003D01*
X154600000Y-86813193D02*
X153151000Y-85364193D01*
X153109997Y-91699999D02*
X154600000Y-90209996D01*
%TO.N,/H3{slash}I_RX+*%
X156944582Y-61244582D02*
X159755419Y-61244582D01*
X159490982Y-87577112D02*
X157522888Y-87577112D01*
X159109995Y-91699999D02*
X160173395Y-90636599D01*
X154555000Y-63634164D02*
X156944582Y-61244582D01*
X160173395Y-88259525D02*
X159490982Y-87577112D01*
X157522888Y-87577112D02*
X154555000Y-84609224D01*
X154555000Y-84609224D02*
X154555000Y-63634164D01*
X160173395Y-90636599D02*
X160173395Y-88259525D01*
X159755419Y-61244582D02*
X163000001Y-58000000D01*
%TO.N,GND_MCI*%
X147109999Y-88700000D02*
X152063405Y-83746594D01*
X151000005Y-55000001D02*
X154000004Y-55000001D01*
X147109999Y-88700000D02*
X150109998Y-88700000D01*
X152063405Y-56063401D02*
X151000005Y-55000001D01*
X152063405Y-83746594D02*
X152063405Y-56063401D01*
%TO.N,/Serial_RX-*%
X164936600Y-57567276D02*
X164936600Y-56063401D01*
X154906000Y-63779552D02*
X157089970Y-61595582D01*
X157571082Y-87128918D02*
X154906000Y-84463836D01*
X161110259Y-88700000D02*
X159539176Y-87128918D01*
X164936600Y-56063401D02*
X166000000Y-55000001D01*
X159539176Y-87128918D02*
X157571082Y-87128918D01*
X157089970Y-61595582D02*
X160908294Y-61595582D01*
X154906000Y-84463836D02*
X154906000Y-63779552D01*
X162109994Y-88700000D02*
X161110259Y-88700000D01*
X160908294Y-61595582D02*
X164936600Y-57567276D01*
%TO.N,/H3{slash}I_RX-*%
X159109995Y-88700000D02*
X158149388Y-88700000D01*
X154204000Y-63488776D02*
X157792776Y-59900000D01*
X160200000Y-59900000D02*
X161500000Y-58600000D01*
X162699999Y-55000001D02*
X163000001Y-55000001D01*
X161500000Y-56200000D02*
X162699999Y-55000001D01*
X158149388Y-88700000D02*
X154204000Y-84754612D01*
X154204000Y-84754612D02*
X154204000Y-63488776D01*
X161500000Y-58600000D02*
X161500000Y-56200000D01*
X157792776Y-59900000D02*
X160200000Y-59900000D01*
%TO.N,+12V_MCI*%
X151600000Y-90209997D02*
X151600000Y-84706387D01*
X150109998Y-91699999D02*
X151600000Y-90209997D01*
X152414405Y-83891982D02*
X152414405Y-59585599D01*
X152414405Y-59585599D02*
X154000004Y-58000000D01*
X151600000Y-84706387D02*
X152414405Y-83891982D01*
%TO.N,/H2{slash}B_RX+*%
X156109996Y-91699999D02*
X157173396Y-90636599D01*
X157173396Y-88220396D02*
X153853000Y-84900000D01*
X159196388Y-58000000D02*
X160000002Y-58000000D01*
X153853000Y-63343388D02*
X159196388Y-58000000D01*
X157173396Y-90636599D02*
X157173396Y-88220396D01*
X153853000Y-84900000D02*
X153853000Y-63343388D01*
%TO.N,/Serial_RX+*%
X162053418Y-61946582D02*
X166000000Y-58000000D01*
X162109994Y-91699999D02*
X163173394Y-90636599D01*
X155257000Y-63924940D02*
X157235358Y-61946582D01*
X155257000Y-84318448D02*
X155257000Y-63924940D01*
X157235358Y-61946582D02*
X162053418Y-61946582D01*
X163173394Y-88259525D02*
X161691787Y-86777918D01*
X157716470Y-86777918D02*
X155257000Y-84318448D01*
X161691787Y-86777918D02*
X157716470Y-86777918D01*
X163173394Y-90636599D02*
X163173394Y-88259525D01*
%TO.N,/H2{slash}B_RX-*%
X158500000Y-58200000D02*
X158500000Y-56500003D01*
X153502000Y-85218805D02*
X153502000Y-63198000D01*
X158500000Y-56500003D02*
X160000002Y-55000001D01*
X156109996Y-88700000D02*
X156109996Y-87826801D01*
X153502000Y-63198000D02*
X158500000Y-58200000D01*
X156109996Y-87826801D02*
X153502000Y-85218805D01*
%TO.N,+5V_MCI*%
X146046599Y-90636599D02*
X146046599Y-88259525D01*
X146669524Y-87636600D02*
X147463400Y-87636600D01*
X147109999Y-91699999D02*
X146046599Y-90636599D01*
X151712405Y-58712400D02*
X151000005Y-58000000D01*
X151712405Y-83387595D02*
X151712405Y-58712400D01*
X147463400Y-87636600D02*
X151712405Y-83387595D01*
X146046599Y-88259525D02*
X146669524Y-87636600D01*
%TO.N,/H1{slash}A_RX-*%
X155600000Y-56400004D02*
X157000003Y-55000001D01*
X155600000Y-58300000D02*
X155600000Y-56400004D01*
X153000000Y-88590003D02*
X153000000Y-85709582D01*
X153000000Y-85709582D02*
X152800000Y-85509581D01*
X152800000Y-85509581D02*
X152800000Y-61100000D01*
X153109997Y-88700000D02*
X153000000Y-88590003D01*
X152800000Y-61100000D02*
X155600000Y-58300000D01*
%TO.N,/Shield_MCI*%
X147153399Y-85656601D02*
X147153399Y-59553399D01*
X146400000Y-58800000D02*
X146400000Y-56200000D01*
X147599999Y-55000001D02*
X148000006Y-55000001D01*
X146400000Y-56200000D02*
X147599999Y-55000001D01*
X144110000Y-88700000D02*
X147153399Y-85656601D01*
X147153399Y-59553399D02*
X146400000Y-58800000D01*
%TO.N,/CAN_L-out*%
X143090000Y-71686388D02*
X143090000Y-74710000D01*
X128500002Y-54950000D02*
X129900000Y-56349998D01*
X129900000Y-56349998D02*
X129900000Y-58496389D01*
X129900000Y-58496389D02*
X143090000Y-71686388D01*
%TO.N,/CAN_H-out*%
X130248196Y-56201805D02*
X131500001Y-54950000D01*
X130251000Y-58351000D02*
X130251000Y-56204609D01*
X146089999Y-74189999D02*
X130251000Y-58351000D01*
X146089999Y-74710000D02*
X146089999Y-74189999D01*
X130251000Y-56204609D02*
X130248196Y-56201805D01*
%TD*%
%TA.AperFunction,Conductor*%
%TO.N,GND*%
G36*
X177933866Y-51030760D02*
G01*
X177934108Y-51030825D01*
X177996387Y-51030825D01*
X177996401Y-51030829D01*
X178003744Y-51031051D01*
X178293794Y-51048596D01*
X178308656Y-51050400D01*
X178590799Y-51102105D01*
X178605324Y-51105686D01*
X178879177Y-51191022D01*
X178893169Y-51196329D01*
X179020024Y-51253423D01*
X179154727Y-51314048D01*
X179167978Y-51321001D01*
X179413457Y-51469400D01*
X179425768Y-51477898D01*
X179586849Y-51604097D01*
X179651559Y-51654794D01*
X179662768Y-51664724D01*
X179865588Y-51867547D01*
X179875517Y-51878755D01*
X180052411Y-52104545D01*
X180060917Y-52116869D01*
X180209300Y-52362328D01*
X180216259Y-52375587D01*
X180333974Y-52637145D01*
X180339284Y-52651145D01*
X180424618Y-52924996D01*
X180428201Y-52939535D01*
X180479900Y-53221661D01*
X180481705Y-53236526D01*
X180499273Y-53526999D01*
X180499499Y-53534483D01*
X180499499Y-53566656D01*
X180499499Y-53596213D01*
X180499499Y-53596215D01*
X180499500Y-53606207D01*
X180499500Y-61496249D01*
X180499274Y-61503736D01*
X180481728Y-61793794D01*
X180479923Y-61808659D01*
X180428219Y-62090798D01*
X180424635Y-62105336D01*
X180339306Y-62379167D01*
X180333997Y-62393168D01*
X180216275Y-62654736D01*
X180209316Y-62667995D01*
X180060928Y-62913459D01*
X180052422Y-62925782D01*
X179875526Y-63151573D01*
X179865596Y-63162781D01*
X179662781Y-63365596D01*
X179651573Y-63375526D01*
X179425782Y-63552422D01*
X179413459Y-63560928D01*
X179167995Y-63709316D01*
X179154736Y-63716275D01*
X178893168Y-63833997D01*
X178879167Y-63839306D01*
X178605336Y-63924635D01*
X178590798Y-63928219D01*
X178308659Y-63979923D01*
X178293794Y-63981728D01*
X178003736Y-63999274D01*
X177996249Y-63999500D01*
X175565892Y-63999500D01*
X175500000Y-63999500D01*
X175328031Y-63999500D01*
X175249966Y-64007188D01*
X174985750Y-64033210D01*
X174648427Y-64100308D01*
X174319293Y-64200150D01*
X174001535Y-64331770D01*
X174001530Y-64331772D01*
X173698224Y-64493893D01*
X173698206Y-64493904D01*
X173412248Y-64684975D01*
X173412234Y-64684985D01*
X173146367Y-64903176D01*
X172903176Y-65146367D01*
X172684985Y-65412234D01*
X172684975Y-65412248D01*
X172493904Y-65698206D01*
X172493893Y-65698224D01*
X172331772Y-66001530D01*
X172331770Y-66001535D01*
X172200150Y-66319293D01*
X172100308Y-66648427D01*
X172033210Y-66985750D01*
X172014076Y-67180035D01*
X172001340Y-67309356D01*
X171999500Y-67328034D01*
X171999500Y-92996249D01*
X171999274Y-93003736D01*
X171981728Y-93293794D01*
X171979923Y-93308659D01*
X171928219Y-93590798D01*
X171924635Y-93605336D01*
X171839306Y-93879167D01*
X171833997Y-93893168D01*
X171716275Y-94154736D01*
X171709316Y-94167995D01*
X171560928Y-94413459D01*
X171552422Y-94425782D01*
X171375526Y-94651573D01*
X171365596Y-94662781D01*
X171162781Y-94865596D01*
X171151573Y-94875526D01*
X170925782Y-95052422D01*
X170913459Y-95060928D01*
X170667995Y-95209316D01*
X170654736Y-95216275D01*
X170393168Y-95333997D01*
X170379167Y-95339306D01*
X170105336Y-95424635D01*
X170090798Y-95428219D01*
X169808659Y-95479923D01*
X169793793Y-95481728D01*
X169503772Y-95499270D01*
X169496215Y-95499496D01*
X137072849Y-95480860D01*
X137072849Y-95480859D01*
X137064705Y-95480854D01*
X137064575Y-95480820D01*
X137002375Y-95480820D01*
X137002366Y-95480817D01*
X136994959Y-95480594D01*
X136974234Y-95479340D01*
X136704888Y-95463046D01*
X136690024Y-95461241D01*
X136407889Y-95409537D01*
X136393350Y-95405953D01*
X136119510Y-95320620D01*
X136105509Y-95315310D01*
X135843951Y-95197591D01*
X135830693Y-95190633D01*
X135585226Y-95042242D01*
X135572903Y-95033736D01*
X135347112Y-94856840D01*
X135335904Y-94846910D01*
X135133089Y-94644095D01*
X135123159Y-94632887D01*
X135017844Y-94498462D01*
X134946259Y-94407090D01*
X134937761Y-94394779D01*
X134789365Y-94149305D01*
X134782408Y-94136048D01*
X134664686Y-93874483D01*
X134659381Y-93860496D01*
X134574044Y-93586642D01*
X134570462Y-93572110D01*
X134556435Y-93495571D01*
X134518757Y-93289974D01*
X134516953Y-93275112D01*
X134499406Y-92985052D01*
X134499180Y-92977564D01*
X134499180Y-91598639D01*
X142822100Y-91598639D01*
X142822100Y-91801358D01*
X142853116Y-91997187D01*
X142853813Y-92001583D01*
X142853815Y-92001590D01*
X142916458Y-92194383D01*
X143008492Y-92375008D01*
X143127639Y-92539003D01*
X143270995Y-92682359D01*
X143424456Y-92793853D01*
X143434994Y-92801509D01*
X143615618Y-92893542D01*
X143808416Y-92956186D01*
X144008640Y-92987899D01*
X144008641Y-92987899D01*
X144211359Y-92987899D01*
X144211360Y-92987899D01*
X144411584Y-92956186D01*
X144604382Y-92893542D01*
X144785006Y-92801509D01*
X144877085Y-92734609D01*
X144949004Y-92682359D01*
X144949006Y-92682356D01*
X144949010Y-92682354D01*
X145092355Y-92539009D01*
X145092357Y-92539005D01*
X145092360Y-92539003D01*
X145144610Y-92467084D01*
X145211510Y-92375005D01*
X145303543Y-92194381D01*
X145366187Y-92001583D01*
X145397900Y-91801359D01*
X145397900Y-91598639D01*
X145366187Y-91398415D01*
X145303543Y-91205617D01*
X145211510Y-91024993D01*
X145203854Y-91014455D01*
X145092360Y-90860994D01*
X144949004Y-90717638D01*
X144785009Y-90598491D01*
X144785008Y-90598490D01*
X144785006Y-90598489D01*
X144604382Y-90506456D01*
X144411584Y-90443812D01*
X144411582Y-90443811D01*
X144411580Y-90443811D01*
X144271782Y-90421669D01*
X144211360Y-90412099D01*
X144008640Y-90412099D01*
X143962224Y-90419450D01*
X143808419Y-90443811D01*
X143615615Y-90506457D01*
X143434990Y-90598491D01*
X143270995Y-90717638D01*
X143127639Y-90860994D01*
X143008492Y-91024989D01*
X142916458Y-91205614D01*
X142853812Y-91398418D01*
X142822100Y-91598639D01*
X134499180Y-91598639D01*
X134499180Y-88585326D01*
X139652998Y-88585326D01*
X139652998Y-88814673D01*
X139688873Y-89041182D01*
X139759744Y-89259298D01*
X139846341Y-89429251D01*
X139863860Y-89463634D01*
X139998661Y-89649172D01*
X140160826Y-89811337D01*
X140346364Y-89946138D01*
X140417677Y-89982474D01*
X140550699Y-90050253D01*
X140550701Y-90050253D01*
X140550704Y-90050255D01*
X140667617Y-90088242D01*
X140768815Y-90121124D01*
X140995325Y-90157000D01*
X140995330Y-90157000D01*
X141224671Y-90157000D01*
X141451180Y-90121124D01*
X141526989Y-90096492D01*
X141669292Y-90050255D01*
X141873632Y-89946138D01*
X142059170Y-89811337D01*
X142221335Y-89649172D01*
X142356136Y-89463634D01*
X142460253Y-89259294D01*
X142531122Y-89041182D01*
X142538090Y-88997188D01*
X142566998Y-88814673D01*
X142566998Y-88585326D01*
X142531122Y-88358817D01*
X142481343Y-88205615D01*
X142460253Y-88140706D01*
X142460251Y-88140703D01*
X142460251Y-88140701D01*
X142372171Y-87967837D01*
X142356136Y-87936366D01*
X142221335Y-87750828D01*
X142059170Y-87588663D01*
X141873632Y-87453862D01*
X141852842Y-87443269D01*
X141669296Y-87349746D01*
X141451180Y-87278875D01*
X141224671Y-87243000D01*
X141224666Y-87243000D01*
X140995330Y-87243000D01*
X140995325Y-87243000D01*
X140768815Y-87278875D01*
X140550699Y-87349746D01*
X140346363Y-87453862D01*
X140160823Y-87588665D01*
X139998663Y-87750825D01*
X139863860Y-87936365D01*
X139759744Y-88140701D01*
X139688873Y-88358817D01*
X139652998Y-88585326D01*
X134499180Y-88585326D01*
X134499180Y-77608639D01*
X138802101Y-77608639D01*
X138802101Y-77811359D01*
X138833814Y-78011583D01*
X138896458Y-78204381D01*
X138979265Y-78366899D01*
X138988493Y-78385008D01*
X139107640Y-78549003D01*
X139250996Y-78692359D01*
X139404457Y-78803853D01*
X139414995Y-78811509D01*
X139595619Y-78903542D01*
X139788417Y-78966186D01*
X139988641Y-78997899D01*
X139988642Y-78997899D01*
X140191360Y-78997899D01*
X140191361Y-78997899D01*
X140391585Y-78966186D01*
X140584383Y-78903542D01*
X140765007Y-78811509D01*
X140857086Y-78744609D01*
X140929005Y-78692359D01*
X140929007Y-78692356D01*
X140929011Y-78692354D01*
X141072356Y-78549009D01*
X141072358Y-78549005D01*
X141072361Y-78549003D01*
X141124611Y-78477084D01*
X141191511Y-78385005D01*
X141283544Y-78204381D01*
X141346188Y-78011583D01*
X141377901Y-77811359D01*
X141377901Y-77608639D01*
X141802100Y-77608639D01*
X141802100Y-77811359D01*
X141833813Y-78011583D01*
X141896457Y-78204381D01*
X141979264Y-78366899D01*
X141988492Y-78385008D01*
X142107639Y-78549003D01*
X142250995Y-78692359D01*
X142404456Y-78803853D01*
X142414994Y-78811509D01*
X142595618Y-78903542D01*
X142788416Y-78966186D01*
X142988640Y-78997899D01*
X142988641Y-78997899D01*
X143191359Y-78997899D01*
X143191360Y-78997899D01*
X143391584Y-78966186D01*
X143584382Y-78903542D01*
X143765006Y-78811509D01*
X143857085Y-78744609D01*
X143929004Y-78692359D01*
X143929006Y-78692356D01*
X143929010Y-78692354D01*
X144072355Y-78549009D01*
X144072357Y-78549005D01*
X144072360Y-78549003D01*
X144124610Y-78477084D01*
X144191510Y-78385005D01*
X144283543Y-78204381D01*
X144346187Y-78011583D01*
X144377900Y-77811359D01*
X144377900Y-77608639D01*
X144346187Y-77408415D01*
X144283543Y-77215617D01*
X144191510Y-77034993D01*
X144183854Y-77024455D01*
X144072360Y-76870994D01*
X143929004Y-76727638D01*
X143765009Y-76608491D01*
X143765008Y-76608490D01*
X143765006Y-76608489D01*
X143584382Y-76516456D01*
X143391584Y-76453812D01*
X143391582Y-76453811D01*
X143391580Y-76453811D01*
X143251782Y-76431669D01*
X143191360Y-76422099D01*
X142988640Y-76422099D01*
X142942224Y-76429450D01*
X142788419Y-76453811D01*
X142595615Y-76516457D01*
X142414990Y-76608491D01*
X142250995Y-76727638D01*
X142107639Y-76870994D01*
X141988492Y-77034989D01*
X141896458Y-77215614D01*
X141833812Y-77408418D01*
X141811603Y-77548640D01*
X141802100Y-77608639D01*
X141377901Y-77608639D01*
X141346188Y-77408415D01*
X141283544Y-77215617D01*
X141191511Y-77034993D01*
X141183855Y-77024455D01*
X141072361Y-76870994D01*
X140929005Y-76727638D01*
X140765010Y-76608491D01*
X140765009Y-76608490D01*
X140765007Y-76608489D01*
X140584383Y-76516456D01*
X140391585Y-76453812D01*
X140391583Y-76453811D01*
X140391581Y-76453811D01*
X140251783Y-76431669D01*
X140191361Y-76422099D01*
X139988641Y-76422099D01*
X139942225Y-76429450D01*
X139788420Y-76453811D01*
X139595616Y-76516457D01*
X139414991Y-76608491D01*
X139250996Y-76727638D01*
X139107640Y-76870994D01*
X138988493Y-77034989D01*
X138896459Y-77215614D01*
X138833813Y-77408418D01*
X138811604Y-77548640D01*
X138802101Y-77608639D01*
X134499180Y-77608639D01*
X134499180Y-74595326D01*
X135633002Y-74595326D01*
X135633002Y-74824673D01*
X135668877Y-75051182D01*
X135739748Y-75269298D01*
X135798707Y-75385009D01*
X135843864Y-75473634D01*
X135978665Y-75659172D01*
X136140830Y-75821337D01*
X136326368Y-75956138D01*
X136397681Y-75992474D01*
X136530703Y-76060253D01*
X136530705Y-76060253D01*
X136530708Y-76060255D01*
X136647621Y-76098242D01*
X136748819Y-76131124D01*
X136975329Y-76167000D01*
X136975334Y-76167000D01*
X137204675Y-76167000D01*
X137431184Y-76131124D01*
X137649296Y-76060255D01*
X137853636Y-75956138D01*
X138039174Y-75821337D01*
X138201339Y-75659172D01*
X138336140Y-75473634D01*
X138440257Y-75269294D01*
X138511126Y-75051182D01*
X138525296Y-74961717D01*
X138547002Y-74824673D01*
X138547002Y-74608640D01*
X138802101Y-74608640D01*
X138802101Y-74811359D01*
X138830582Y-74991183D01*
X138833814Y-75011584D01*
X138896458Y-75204382D01*
X138957921Y-75325010D01*
X138988493Y-75385009D01*
X139107640Y-75549004D01*
X139250996Y-75692360D01*
X139404457Y-75803854D01*
X139414995Y-75811510D01*
X139595619Y-75903543D01*
X139788417Y-75966187D01*
X139988641Y-75997900D01*
X139988642Y-75997900D01*
X140191360Y-75997900D01*
X140191361Y-75997900D01*
X140391585Y-75966187D01*
X140584383Y-75903543D01*
X140765007Y-75811510D01*
X140857086Y-75744610D01*
X140929005Y-75692360D01*
X140929007Y-75692357D01*
X140929011Y-75692355D01*
X141072356Y-75549010D01*
X141072358Y-75549006D01*
X141072361Y-75549004D01*
X141127119Y-75473634D01*
X141191511Y-75385006D01*
X141283544Y-75204382D01*
X141346188Y-75011584D01*
X141377901Y-74811360D01*
X141377901Y-74608640D01*
X141346188Y-74408416D01*
X141283544Y-74215618D01*
X141191511Y-74034994D01*
X141149637Y-73977359D01*
X141072361Y-73870995D01*
X140929005Y-73727639D01*
X140765010Y-73608492D01*
X140765009Y-73608491D01*
X140765007Y-73608490D01*
X140584383Y-73516457D01*
X140391585Y-73453813D01*
X140391583Y-73453812D01*
X140391581Y-73453812D01*
X140251783Y-73431670D01*
X140191361Y-73422100D01*
X139988641Y-73422100D01*
X139942225Y-73429451D01*
X139788420Y-73453812D01*
X139595616Y-73516458D01*
X139414991Y-73608492D01*
X139250996Y-73727639D01*
X139107640Y-73870995D01*
X138988493Y-74034990D01*
X138896459Y-74215615D01*
X138833813Y-74408419D01*
X138802101Y-74608640D01*
X138547002Y-74608640D01*
X138547002Y-74595326D01*
X138511126Y-74368817D01*
X138440255Y-74150701D01*
X138379869Y-74032189D01*
X138336140Y-73946366D01*
X138201339Y-73760828D01*
X138039174Y-73598663D01*
X137853636Y-73463862D01*
X137833912Y-73453812D01*
X137649300Y-73359746D01*
X137431184Y-73288875D01*
X137204675Y-73253000D01*
X137204670Y-73253000D01*
X136975334Y-73253000D01*
X136975329Y-73253000D01*
X136748819Y-73288875D01*
X136530703Y-73359746D01*
X136326367Y-73463862D01*
X136140827Y-73598665D01*
X135978667Y-73760825D01*
X135843864Y-73946365D01*
X135739748Y-74150701D01*
X135668877Y-74368817D01*
X135633002Y-74595326D01*
X134499180Y-74595326D01*
X134499180Y-67481317D01*
X134499182Y-67309354D01*
X134465472Y-66967072D01*
X134398374Y-66629742D01*
X134298536Y-66300614D01*
X134166917Y-65982856D01*
X134004787Y-65679529D01*
X133813706Y-65393555D01*
X133595514Y-65127687D01*
X133595513Y-65127686D01*
X133595509Y-65127681D01*
X133352318Y-64884490D01*
X133086450Y-64666298D01*
X133086449Y-64666297D01*
X133086445Y-64666294D01*
X132846697Y-64506100D01*
X132800476Y-64475216D01*
X132800473Y-64475214D01*
X132784909Y-64466895D01*
X132497144Y-64313083D01*
X132259582Y-64214682D01*
X132179387Y-64181464D01*
X131999842Y-64127001D01*
X131850258Y-64081626D01*
X131850253Y-64081625D01*
X131850250Y-64081624D01*
X131850238Y-64081621D01*
X131512933Y-64014529D01*
X131512928Y-64014528D01*
X131512925Y-64014527D01*
X131512915Y-64014526D01*
X131270261Y-63990628D01*
X131170646Y-63980818D01*
X131170643Y-63980818D01*
X131064231Y-63980818D01*
X131063927Y-63980737D01*
X131000293Y-63980818D01*
X130999507Y-63980818D01*
X130999506Y-63980819D01*
X130999500Y-63980819D01*
X130998861Y-63980819D01*
X130998677Y-63980820D01*
X130925599Y-63980820D01*
X130924127Y-63980916D01*
X116503817Y-63999494D01*
X116496170Y-63999268D01*
X116206205Y-63981728D01*
X116191340Y-63979923D01*
X115909201Y-63928219D01*
X115894663Y-63924635D01*
X115620832Y-63839306D01*
X115606831Y-63833997D01*
X115345263Y-63716275D01*
X115332004Y-63709316D01*
X115086540Y-63560928D01*
X115074217Y-63552422D01*
X114848426Y-63375526D01*
X114837218Y-63365596D01*
X114634403Y-63162781D01*
X114624473Y-63151573D01*
X114447573Y-62925776D01*
X114439075Y-62913465D01*
X114290680Y-62667989D01*
X114283727Y-62654743D01*
X114166000Y-62393163D01*
X114160693Y-62379167D01*
X114075364Y-62105336D01*
X114071780Y-62090798D01*
X114020076Y-61808659D01*
X114018271Y-61793794D01*
X114000726Y-61503736D01*
X114000500Y-61496249D01*
X114000500Y-57878711D01*
X115149500Y-57878711D01*
X115149500Y-58121288D01*
X115181161Y-58361785D01*
X115243947Y-58596104D01*
X115336773Y-58820205D01*
X115336777Y-58820214D01*
X115347629Y-58839010D01*
X115458064Y-59030289D01*
X115458066Y-59030292D01*
X115458067Y-59030293D01*
X115605733Y-59222736D01*
X115605739Y-59222743D01*
X115777256Y-59394260D01*
X115777262Y-59394265D01*
X115969711Y-59541936D01*
X116179788Y-59663224D01*
X116403900Y-59756054D01*
X116638211Y-59818838D01*
X116818586Y-59842584D01*
X116878711Y-59850500D01*
X116878712Y-59850500D01*
X117121289Y-59850500D01*
X117177186Y-59843141D01*
X117361789Y-59818838D01*
X117596100Y-59756054D01*
X117820212Y-59663224D01*
X118030289Y-59541936D01*
X118222738Y-59394265D01*
X118394265Y-59222738D01*
X118541936Y-59030289D01*
X118663224Y-58820212D01*
X118756054Y-58596100D01*
X118818838Y-58361789D01*
X118850500Y-58121288D01*
X118850500Y-57878712D01*
X118848155Y-57860903D01*
X118820197Y-57648535D01*
X118818838Y-57638211D01*
X118756054Y-57403900D01*
X118663224Y-57179788D01*
X118541936Y-56969711D01*
X118439639Y-56836395D01*
X118394266Y-56777263D01*
X118394260Y-56777256D01*
X118222743Y-56605739D01*
X118222736Y-56605733D01*
X118030293Y-56458067D01*
X118030292Y-56458066D01*
X118030289Y-56458064D01*
X117820212Y-56336776D01*
X117748312Y-56306994D01*
X117596104Y-56243947D01*
X117361785Y-56181161D01*
X117121289Y-56149500D01*
X117121288Y-56149500D01*
X116878712Y-56149500D01*
X116878711Y-56149500D01*
X116638214Y-56181161D01*
X116403895Y-56243947D01*
X116179794Y-56336773D01*
X116179785Y-56336777D01*
X115969706Y-56458067D01*
X115777263Y-56605733D01*
X115777256Y-56605739D01*
X115605739Y-56777256D01*
X115605733Y-56777263D01*
X115458067Y-56969706D01*
X115336777Y-57179785D01*
X115336773Y-57179794D01*
X115243947Y-57403895D01*
X115181161Y-57638214D01*
X115149500Y-57878711D01*
X114000500Y-57878711D01*
X114000500Y-54835326D01*
X124043003Y-54835326D01*
X124043003Y-55064673D01*
X124078878Y-55291182D01*
X124149749Y-55509298D01*
X124208708Y-55625009D01*
X124253865Y-55713634D01*
X124388666Y-55899172D01*
X124550831Y-56061337D01*
X124736369Y-56196138D01*
X124818331Y-56237900D01*
X124940704Y-56300253D01*
X124940706Y-56300253D01*
X124940709Y-56300255D01*
X125002626Y-56320373D01*
X125158820Y-56371124D01*
X125385330Y-56407000D01*
X125385335Y-56407000D01*
X125614676Y-56407000D01*
X125841185Y-56371124D01*
X126059297Y-56300255D01*
X126263637Y-56196138D01*
X126449175Y-56061337D01*
X126611340Y-55899172D01*
X126746141Y-55713634D01*
X126850258Y-55509294D01*
X126921127Y-55291182D01*
X126939372Y-55175988D01*
X126957003Y-55064673D01*
X126957003Y-54848640D01*
X127212102Y-54848640D01*
X127212102Y-55051360D01*
X127220007Y-55101270D01*
X127231841Y-55175988D01*
X127243815Y-55251584D01*
X127306459Y-55444382D01*
X127365012Y-55559299D01*
X127398494Y-55625009D01*
X127517641Y-55789004D01*
X127660997Y-55932360D01*
X127808448Y-56039487D01*
X127824996Y-56051510D01*
X128005620Y-56143543D01*
X128198418Y-56206187D01*
X128198421Y-56206187D01*
X128200661Y-56206725D01*
X128209365Y-56209152D01*
X129238161Y-56537100D01*
X129296055Y-56576215D01*
X129323611Y-56640421D01*
X129324500Y-56655242D01*
X129324500Y-56722309D01*
X129304815Y-56789348D01*
X129252011Y-56835103D01*
X129182853Y-56845047D01*
X129144205Y-56832794D01*
X128994386Y-56756457D01*
X128994385Y-56756456D01*
X128994384Y-56756456D01*
X128801586Y-56693812D01*
X128801584Y-56693811D01*
X128801582Y-56693811D01*
X128642495Y-56668614D01*
X128601362Y-56662099D01*
X128398642Y-56662099D01*
X128357509Y-56668614D01*
X128198421Y-56693811D01*
X128198418Y-56693812D01*
X128014395Y-56753605D01*
X128005617Y-56756457D01*
X127824992Y-56848491D01*
X127660997Y-56967638D01*
X127517641Y-57110994D01*
X127398494Y-57274989D01*
X127306460Y-57455614D01*
X127243814Y-57648418D01*
X127212102Y-57848639D01*
X127212102Y-58051358D01*
X127243795Y-58251462D01*
X127243815Y-58251583D01*
X127306459Y-58444381D01*
X127398362Y-58624750D01*
X127398494Y-58625008D01*
X127517641Y-58789003D01*
X127660997Y-58932359D01*
X127784567Y-59022136D01*
X127824996Y-59051509D01*
X128005620Y-59143542D01*
X128198418Y-59206186D01*
X128398642Y-59237899D01*
X128398643Y-59237899D01*
X128601361Y-59237899D01*
X128601362Y-59237899D01*
X128801586Y-59206186D01*
X128994384Y-59143542D01*
X129175008Y-59051509D01*
X129270191Y-58982355D01*
X129339009Y-58932357D01*
X129342861Y-58928505D01*
X129404182Y-58895016D01*
X129473874Y-58899995D01*
X129518229Y-58928499D01*
X142478181Y-71888448D01*
X142511666Y-71949771D01*
X142514500Y-71976129D01*
X142514500Y-72987662D01*
X142500669Y-73044572D01*
X141994134Y-74025150D01*
X141989706Y-74033007D01*
X141988496Y-74034981D01*
X141896458Y-74215615D01*
X141833812Y-74408419D01*
X141802100Y-74608640D01*
X141802100Y-74811359D01*
X141830581Y-74991183D01*
X141833813Y-75011584D01*
X141896457Y-75204382D01*
X141957920Y-75325010D01*
X141988492Y-75385009D01*
X142107639Y-75549004D01*
X142250995Y-75692360D01*
X142404456Y-75803854D01*
X142414994Y-75811510D01*
X142595618Y-75903543D01*
X142788416Y-75966187D01*
X142988640Y-75997900D01*
X142988641Y-75997900D01*
X143191359Y-75997900D01*
X143191360Y-75997900D01*
X143391584Y-75966187D01*
X143584382Y-75903543D01*
X143765006Y-75811510D01*
X143857085Y-75744610D01*
X143929004Y-75692360D01*
X143929006Y-75692357D01*
X143929010Y-75692355D01*
X144072355Y-75549010D01*
X144072357Y-75549006D01*
X144072360Y-75549004D01*
X144127118Y-75473634D01*
X144191510Y-75385006D01*
X144283543Y-75204382D01*
X144346187Y-75011584D01*
X144377900Y-74811360D01*
X144377900Y-74608640D01*
X144346187Y-74408416D01*
X144283543Y-74215618D01*
X144191510Y-74034994D01*
X144191509Y-74034992D01*
X144190308Y-74033032D01*
X144185863Y-74025147D01*
X143679331Y-73044572D01*
X143676099Y-73031273D01*
X143670523Y-73022597D01*
X143665500Y-72987662D01*
X143665500Y-72878741D01*
X143685185Y-72811702D01*
X143737989Y-72765947D01*
X143807147Y-72756003D01*
X143870703Y-72785028D01*
X143877181Y-72791060D01*
X144725907Y-73639786D01*
X144759392Y-73701109D01*
X144762109Y-73722080D01*
X144801982Y-74638976D01*
X144802099Y-74644363D01*
X144802099Y-74811360D01*
X144812555Y-74877376D01*
X144815238Y-74910239D01*
X144815448Y-74911989D01*
X144825389Y-74958415D01*
X144825912Y-74961717D01*
X144825916Y-74961735D01*
X144833811Y-75011582D01*
X144833812Y-75011584D01*
X144896456Y-75204382D01*
X144957919Y-75325010D01*
X144988491Y-75385009D01*
X145107638Y-75549004D01*
X145250994Y-75692360D01*
X145404455Y-75803854D01*
X145414993Y-75811510D01*
X145595617Y-75903543D01*
X145788415Y-75966187D01*
X145988639Y-75997900D01*
X145988640Y-75997900D01*
X146191358Y-75997900D01*
X146191359Y-75997900D01*
X146391583Y-75966187D01*
X146415582Y-75958388D01*
X146485421Y-75956394D01*
X146545254Y-75992474D01*
X146576083Y-76055174D01*
X146577899Y-76076320D01*
X146577899Y-76343678D01*
X146558214Y-76410717D01*
X146505410Y-76456472D01*
X146436252Y-76466416D01*
X146415581Y-76461609D01*
X146391584Y-76453812D01*
X146291471Y-76437955D01*
X146191359Y-76422099D01*
X145988639Y-76422099D01*
X145942223Y-76429450D01*
X145788418Y-76453811D01*
X145595614Y-76516457D01*
X145414989Y-76608491D01*
X145250994Y-76727638D01*
X145107638Y-76870994D01*
X144988491Y-77034989D01*
X144896457Y-77215614D01*
X144833811Y-77408418D01*
X144811602Y-77548640D01*
X144802099Y-77608639D01*
X144802099Y-77811359D01*
X144833812Y-78011583D01*
X144896456Y-78204381D01*
X144979263Y-78366899D01*
X144988491Y-78385008D01*
X145107638Y-78549003D01*
X145250994Y-78692359D01*
X145404455Y-78803853D01*
X145414993Y-78811509D01*
X145595617Y-78903542D01*
X145788415Y-78966186D01*
X145988639Y-78997899D01*
X145988640Y-78997899D01*
X146191358Y-78997899D01*
X146191359Y-78997899D01*
X146391583Y-78966186D01*
X146415582Y-78958387D01*
X146485421Y-78956393D01*
X146545254Y-78992473D01*
X146576083Y-79055173D01*
X146577899Y-79076319D01*
X146577899Y-85366858D01*
X146558214Y-85433897D01*
X146541580Y-85454539D01*
X144920935Y-87075183D01*
X144870914Y-87105645D01*
X143819380Y-87440841D01*
X143810690Y-87443266D01*
X143808424Y-87443810D01*
X143615615Y-87506458D01*
X143434990Y-87598492D01*
X143270995Y-87717639D01*
X143127639Y-87860995D01*
X143008492Y-88024990D01*
X142916458Y-88205615D01*
X142853812Y-88398419D01*
X142822100Y-88598640D01*
X142822100Y-88801359D01*
X142853116Y-88997188D01*
X142853813Y-89001584D01*
X142916457Y-89194382D01*
X143008376Y-89374783D01*
X143008492Y-89375009D01*
X143127639Y-89539004D01*
X143270995Y-89682360D01*
X143418194Y-89789304D01*
X143434994Y-89801510D01*
X143615618Y-89893543D01*
X143808416Y-89956187D01*
X144008640Y-89987900D01*
X144008641Y-89987900D01*
X144211359Y-89987900D01*
X144211360Y-89987900D01*
X144411584Y-89956187D01*
X144604382Y-89893543D01*
X144785006Y-89801510D01*
X144887798Y-89726828D01*
X144949004Y-89682360D01*
X144949006Y-89682357D01*
X144949010Y-89682355D01*
X145092355Y-89539010D01*
X145092357Y-89539006D01*
X145092360Y-89539004D01*
X145211507Y-89375010D01*
X145211508Y-89375009D01*
X145211510Y-89375006D01*
X145236614Y-89325734D01*
X145284588Y-89274940D01*
X145352409Y-89258145D01*
X145418544Y-89280682D01*
X145461996Y-89335397D01*
X145471099Y-89382031D01*
X145471099Y-90560832D01*
X145471099Y-90560833D01*
X145471099Y-90581177D01*
X145470403Y-90592953D01*
X145471099Y-90597990D01*
X145471099Y-90712365D01*
X145490708Y-90785549D01*
X145510318Y-90858735D01*
X145533085Y-90898168D01*
X145544865Y-90925888D01*
X145848957Y-91983028D01*
X145848961Y-91983042D01*
X145848967Y-91983061D01*
X145849762Y-91985524D01*
X145852481Y-91996891D01*
X145852674Y-91996845D01*
X145853810Y-92001578D01*
X145916457Y-92194383D01*
X146008491Y-92375008D01*
X146127638Y-92539003D01*
X146270994Y-92682359D01*
X146424455Y-92793853D01*
X146434993Y-92801509D01*
X146615617Y-92893542D01*
X146808415Y-92956186D01*
X147008639Y-92987899D01*
X147008640Y-92987899D01*
X147211358Y-92987899D01*
X147211359Y-92987899D01*
X147411583Y-92956186D01*
X147604381Y-92893542D01*
X147785005Y-92801509D01*
X147877084Y-92734609D01*
X147949003Y-92682359D01*
X147949005Y-92682356D01*
X147949009Y-92682354D01*
X148092354Y-92539009D01*
X148092356Y-92539005D01*
X148092359Y-92539003D01*
X148144609Y-92467084D01*
X148211509Y-92375005D01*
X148303542Y-92194381D01*
X148366186Y-92001583D01*
X148397899Y-91801359D01*
X148397899Y-91598639D01*
X148366186Y-91398415D01*
X148303542Y-91205617D01*
X148211509Y-91024993D01*
X148203853Y-91014455D01*
X148092359Y-90860994D01*
X147949003Y-90717638D01*
X147785008Y-90598491D01*
X147785007Y-90598490D01*
X147785005Y-90598489D01*
X147604381Y-90506456D01*
X147536873Y-90484521D01*
X147411585Y-90443812D01*
X147406850Y-90442676D01*
X147406911Y-90442420D01*
X147399569Y-90440718D01*
X146710056Y-90231255D01*
X146688427Y-90217068D01*
X146664896Y-90206322D01*
X146659687Y-90198216D01*
X146651633Y-90192934D01*
X146641107Y-90169306D01*
X146627122Y-90147544D01*
X146625076Y-90133319D01*
X146623202Y-90129111D01*
X146622099Y-90112609D01*
X146622099Y-90066320D01*
X146641784Y-89999281D01*
X146694588Y-89953526D01*
X146763746Y-89943582D01*
X146784408Y-89948386D01*
X146808415Y-89956187D01*
X147008639Y-89987900D01*
X147008640Y-89987900D01*
X147211358Y-89987900D01*
X147211359Y-89987900D01*
X147411583Y-89956187D01*
X147604381Y-89893543D01*
X147785005Y-89801510D01*
X147785011Y-89801505D01*
X147786972Y-89800304D01*
X147794864Y-89795855D01*
X147883783Y-89749922D01*
X148553089Y-89404179D01*
X148621683Y-89390901D01*
X148666903Y-89404178D01*
X149361329Y-89762897D01*
X149425137Y-89795858D01*
X149433024Y-89800304D01*
X149434990Y-89801508D01*
X149434992Y-89801510D01*
X149615616Y-89893543D01*
X149808414Y-89956187D01*
X150008638Y-89987900D01*
X150008639Y-89987900D01*
X150211357Y-89987900D01*
X150211358Y-89987900D01*
X150411582Y-89956187D01*
X150604380Y-89893543D01*
X150785004Y-89801510D01*
X150811994Y-89781900D01*
X150827615Y-89770552D01*
X150839474Y-89766320D01*
X150848989Y-89758076D01*
X150871755Y-89754802D01*
X150893421Y-89747072D01*
X150905685Y-89749923D01*
X150918147Y-89748132D01*
X150939069Y-89757686D01*
X150961475Y-89762897D01*
X150970250Y-89771926D01*
X150981703Y-89777157D01*
X150994138Y-89796506D01*
X151010170Y-89813003D01*
X151013574Y-89826750D01*
X151019477Y-89835935D01*
X151024500Y-89870870D01*
X151024500Y-89920253D01*
X151004815Y-89987292D01*
X150988181Y-90007935D01*
X150920932Y-90075183D01*
X150870911Y-90105644D01*
X149819378Y-90440840D01*
X149810688Y-90443265D01*
X149808422Y-90443809D01*
X149615613Y-90506457D01*
X149434988Y-90598491D01*
X149270993Y-90717638D01*
X149127637Y-90860994D01*
X149008490Y-91024989D01*
X148916456Y-91205614D01*
X148853810Y-91398418D01*
X148822098Y-91598639D01*
X148822098Y-91801358D01*
X148853114Y-91997187D01*
X148853811Y-92001583D01*
X148853813Y-92001590D01*
X148916456Y-92194383D01*
X149008490Y-92375008D01*
X149127637Y-92539003D01*
X149270993Y-92682359D01*
X149424454Y-92793853D01*
X149434992Y-92801509D01*
X149615616Y-92893542D01*
X149808414Y-92956186D01*
X150008638Y-92987899D01*
X150008639Y-92987899D01*
X150211357Y-92987899D01*
X150211358Y-92987899D01*
X150411582Y-92956186D01*
X150604380Y-92893542D01*
X150785004Y-92801509D01*
X150877083Y-92734609D01*
X150949002Y-92682359D01*
X150949004Y-92682356D01*
X150949008Y-92682354D01*
X151092353Y-92539009D01*
X151092355Y-92539005D01*
X151092358Y-92539003D01*
X151144608Y-92467084D01*
X151211508Y-92375005D01*
X151303541Y-92194381D01*
X151366185Y-92001583D01*
X151366187Y-92001570D01*
X151366722Y-91999343D01*
X151369149Y-91990637D01*
X151704351Y-90939081D01*
X151734808Y-90889067D01*
X152060515Y-90563362D01*
X152136281Y-90432132D01*
X152175500Y-90285764D01*
X152175500Y-90134231D01*
X152175500Y-90134230D01*
X152175500Y-89856343D01*
X152195185Y-89789304D01*
X152247989Y-89743549D01*
X152317147Y-89733605D01*
X152372385Y-89756025D01*
X152418191Y-89789304D01*
X152434991Y-89801510D01*
X152615615Y-89893543D01*
X152808413Y-89956187D01*
X153008637Y-89987900D01*
X153008638Y-89987900D01*
X153211356Y-89987900D01*
X153211357Y-89987900D01*
X153411581Y-89956187D01*
X153604379Y-89893543D01*
X153785003Y-89801510D01*
X153827615Y-89770550D01*
X153839474Y-89766319D01*
X153848989Y-89758075D01*
X153871754Y-89754801D01*
X153893421Y-89747071D01*
X153905685Y-89749922D01*
X153918147Y-89748131D01*
X153939069Y-89757686D01*
X153961474Y-89762896D01*
X153970248Y-89771925D01*
X153981703Y-89777156D01*
X153994140Y-89796508D01*
X154010169Y-89813002D01*
X154013573Y-89826747D01*
X154019477Y-89835934D01*
X154024500Y-89870869D01*
X154024500Y-89920252D01*
X154004815Y-89987291D01*
X153988181Y-90007934D01*
X153920931Y-90075183D01*
X153870910Y-90105644D01*
X152819377Y-90440840D01*
X152810687Y-90443265D01*
X152808421Y-90443809D01*
X152615612Y-90506457D01*
X152434987Y-90598491D01*
X152270992Y-90717638D01*
X152127636Y-90860994D01*
X152008489Y-91024989D01*
X151916455Y-91205614D01*
X151853809Y-91398418D01*
X151822097Y-91598639D01*
X151822097Y-91801358D01*
X151853113Y-91997187D01*
X151853810Y-92001583D01*
X151853812Y-92001590D01*
X151916455Y-92194383D01*
X152008489Y-92375008D01*
X152127636Y-92539003D01*
X152270992Y-92682359D01*
X152424453Y-92793853D01*
X152434991Y-92801509D01*
X152615615Y-92893542D01*
X152808413Y-92956186D01*
X153008637Y-92987899D01*
X153008638Y-92987899D01*
X153211356Y-92987899D01*
X153211357Y-92987899D01*
X153411581Y-92956186D01*
X153604379Y-92893542D01*
X153785003Y-92801509D01*
X153877082Y-92734609D01*
X153949001Y-92682359D01*
X153949003Y-92682356D01*
X153949007Y-92682354D01*
X154092352Y-92539009D01*
X154092354Y-92539005D01*
X154092357Y-92539003D01*
X154144607Y-92467084D01*
X154211507Y-92375005D01*
X154303540Y-92194381D01*
X154366184Y-92001583D01*
X154366186Y-92001570D01*
X154366721Y-91999343D01*
X154369148Y-91990637D01*
X154704350Y-90939081D01*
X154734807Y-90889067D01*
X155060514Y-90563362D01*
X155061975Y-90560833D01*
X155136281Y-90432131D01*
X155141015Y-90414464D01*
X155175500Y-90285763D01*
X155175500Y-90134230D01*
X155175500Y-89856343D01*
X155195185Y-89789304D01*
X155247989Y-89743549D01*
X155317147Y-89733605D01*
X155372383Y-89756023D01*
X155434990Y-89801510D01*
X155615614Y-89893543D01*
X155808412Y-89956187D01*
X156008636Y-89987900D01*
X156008637Y-89987900D01*
X156211355Y-89987900D01*
X156211356Y-89987900D01*
X156411580Y-89956187D01*
X156435579Y-89948388D01*
X156463698Y-89947585D01*
X156491543Y-89943582D01*
X156498154Y-89946601D01*
X156505418Y-89946394D01*
X156529504Y-89960918D01*
X156555099Y-89972607D01*
X156559028Y-89978721D01*
X156565251Y-89982474D01*
X156577663Y-90007717D01*
X156592873Y-90031385D01*
X156594349Y-90041654D01*
X156596080Y-90045174D01*
X156597896Y-90066320D01*
X156597896Y-90112609D01*
X156578211Y-90179648D01*
X156525407Y-90225403D01*
X156509939Y-90231255D01*
X155820422Y-90440719D01*
X155813081Y-90442421D01*
X155813143Y-90442676D01*
X155808411Y-90443812D01*
X155615611Y-90506457D01*
X155434986Y-90598491D01*
X155270991Y-90717638D01*
X155127635Y-90860994D01*
X155008488Y-91024989D01*
X154916454Y-91205614D01*
X154853808Y-91398418D01*
X154822096Y-91598639D01*
X154822096Y-91801358D01*
X154853112Y-91997187D01*
X154853809Y-92001583D01*
X154853811Y-92001590D01*
X154916454Y-92194383D01*
X155008488Y-92375008D01*
X155127635Y-92539003D01*
X155270991Y-92682359D01*
X155424452Y-92793853D01*
X155434990Y-92801509D01*
X155615614Y-92893542D01*
X155808412Y-92956186D01*
X156008636Y-92987899D01*
X156008637Y-92987899D01*
X156211355Y-92987899D01*
X156211356Y-92987899D01*
X156411580Y-92956186D01*
X156604378Y-92893542D01*
X156785002Y-92801509D01*
X156877081Y-92734609D01*
X156949000Y-92682359D01*
X156949002Y-92682356D01*
X156949006Y-92682354D01*
X157092351Y-92539009D01*
X157092353Y-92539005D01*
X157092356Y-92539003D01*
X157144606Y-92467084D01*
X157211506Y-92375005D01*
X157303539Y-92194381D01*
X157366183Y-92001583D01*
X157366185Y-92001566D01*
X157367320Y-91996844D01*
X157367658Y-91996925D01*
X157370139Y-91987381D01*
X157369811Y-91987287D01*
X157675125Y-90925894D01*
X157686907Y-90898171D01*
X157692166Y-90889062D01*
X157709677Y-90858734D01*
X157748896Y-90712365D01*
X157748896Y-90560832D01*
X157748896Y-89440949D01*
X157755405Y-89418780D01*
X157757423Y-89395760D01*
X157765064Y-89385886D01*
X157768581Y-89373910D01*
X157786042Y-89358779D01*
X157800186Y-89340504D01*
X157811951Y-89336329D01*
X157821385Y-89328155D01*
X157844255Y-89324866D01*
X157866033Y-89317139D01*
X157878186Y-89319987D01*
X157890543Y-89318211D01*
X157911562Y-89327810D01*
X157934059Y-89333083D01*
X157949824Y-89345283D01*
X157954099Y-89347236D01*
X157961961Y-89354675D01*
X158013183Y-89407564D01*
X158082972Y-89479626D01*
X158094214Y-89493004D01*
X158127639Y-89539009D01*
X158270990Y-89682360D01*
X158418189Y-89789304D01*
X158434989Y-89801510D01*
X158615613Y-89893543D01*
X158808411Y-89956187D01*
X159008635Y-89987900D01*
X159008636Y-89987900D01*
X159211354Y-89987900D01*
X159211355Y-89987900D01*
X159411579Y-89956187D01*
X159435578Y-89948388D01*
X159463697Y-89947585D01*
X159491542Y-89943582D01*
X159498153Y-89946601D01*
X159505417Y-89946394D01*
X159529503Y-89960918D01*
X159555098Y-89972607D01*
X159559027Y-89978721D01*
X159565250Y-89982474D01*
X159577662Y-90007717D01*
X159592872Y-90031385D01*
X159594348Y-90041654D01*
X159596079Y-90045174D01*
X159597895Y-90066320D01*
X159597895Y-90112609D01*
X159578210Y-90179648D01*
X159525406Y-90225403D01*
X159509938Y-90231255D01*
X158820421Y-90440719D01*
X158813080Y-90442421D01*
X158813142Y-90442676D01*
X158808410Y-90443812D01*
X158615610Y-90506457D01*
X158434985Y-90598491D01*
X158270990Y-90717638D01*
X158127634Y-90860994D01*
X158008487Y-91024989D01*
X157916453Y-91205614D01*
X157853807Y-91398418D01*
X157822095Y-91598639D01*
X157822095Y-91801358D01*
X157853111Y-91997187D01*
X157853808Y-92001583D01*
X157853810Y-92001590D01*
X157916453Y-92194383D01*
X158008487Y-92375008D01*
X158127634Y-92539003D01*
X158270990Y-92682359D01*
X158424451Y-92793853D01*
X158434989Y-92801509D01*
X158615613Y-92893542D01*
X158808411Y-92956186D01*
X159008635Y-92987899D01*
X159008636Y-92987899D01*
X159211354Y-92987899D01*
X159211355Y-92987899D01*
X159411579Y-92956186D01*
X159604377Y-92893542D01*
X159785001Y-92801509D01*
X159877080Y-92734609D01*
X159948999Y-92682359D01*
X159949001Y-92682356D01*
X159949005Y-92682354D01*
X160092350Y-92539009D01*
X160092352Y-92539005D01*
X160092355Y-92539003D01*
X160144605Y-92467084D01*
X160211505Y-92375005D01*
X160303538Y-92194381D01*
X160366182Y-92001583D01*
X160366184Y-92001566D01*
X160367319Y-91996844D01*
X160367657Y-91996925D01*
X160370138Y-91987381D01*
X160369810Y-91987287D01*
X160675124Y-90925894D01*
X160686906Y-90898171D01*
X160692165Y-90889062D01*
X160709676Y-90858734D01*
X160748895Y-90712365D01*
X160748895Y-90560832D01*
X160748895Y-89450107D01*
X160755018Y-89429251D01*
X160756422Y-89407564D01*
X160764667Y-89396391D01*
X160768580Y-89383068D01*
X160785004Y-89368836D01*
X160797912Y-89351347D01*
X160810890Y-89346405D01*
X160821384Y-89337313D01*
X160842896Y-89334219D01*
X160863209Y-89326486D01*
X160876796Y-89329345D01*
X160890542Y-89327369D01*
X160910314Y-89336398D01*
X160931581Y-89340874D01*
X160950195Y-89354611D01*
X160954098Y-89356394D01*
X160959968Y-89361821D01*
X161090183Y-89490280D01*
X161103409Y-89505660D01*
X161118418Y-89526319D01*
X161127637Y-89539008D01*
X161270987Y-89682358D01*
X161327019Y-89723067D01*
X161332203Y-89726833D01*
X161342920Y-89736453D01*
X161344625Y-89737844D01*
X161374722Y-89757725D01*
X161376943Y-89759339D01*
X161376950Y-89759344D01*
X161434988Y-89801510D01*
X161615612Y-89893543D01*
X161808410Y-89956187D01*
X162008634Y-89987900D01*
X162008635Y-89987900D01*
X162211353Y-89987900D01*
X162211354Y-89987900D01*
X162411578Y-89956187D01*
X162435577Y-89948388D01*
X162463696Y-89947585D01*
X162491541Y-89943582D01*
X162498152Y-89946601D01*
X162505416Y-89946394D01*
X162529502Y-89960918D01*
X162555097Y-89972607D01*
X162559026Y-89978721D01*
X162565249Y-89982474D01*
X162577661Y-90007717D01*
X162592871Y-90031385D01*
X162594347Y-90041654D01*
X162596078Y-90045174D01*
X162597894Y-90066320D01*
X162597894Y-90112609D01*
X162578209Y-90179648D01*
X162525405Y-90225403D01*
X162509937Y-90231255D01*
X161820420Y-90440719D01*
X161813079Y-90442421D01*
X161813141Y-90442676D01*
X161808409Y-90443812D01*
X161615609Y-90506457D01*
X161434984Y-90598491D01*
X161270989Y-90717638D01*
X161127633Y-90860994D01*
X161008486Y-91024989D01*
X160916452Y-91205614D01*
X160853806Y-91398418D01*
X160822094Y-91598639D01*
X160822094Y-91801358D01*
X160853110Y-91997187D01*
X160853807Y-92001583D01*
X160853809Y-92001590D01*
X160916452Y-92194383D01*
X161008486Y-92375008D01*
X161127633Y-92539003D01*
X161270989Y-92682359D01*
X161424450Y-92793853D01*
X161434988Y-92801509D01*
X161615612Y-92893542D01*
X161808410Y-92956186D01*
X162008634Y-92987899D01*
X162008635Y-92987899D01*
X162211353Y-92987899D01*
X162211354Y-92987899D01*
X162411578Y-92956186D01*
X162604376Y-92893542D01*
X162785000Y-92801509D01*
X162877079Y-92734609D01*
X162948998Y-92682359D01*
X162949000Y-92682356D01*
X162949004Y-92682354D01*
X163092349Y-92539009D01*
X163092351Y-92539005D01*
X163092354Y-92539003D01*
X163144604Y-92467084D01*
X163211504Y-92375005D01*
X163303537Y-92194381D01*
X163366181Y-92001583D01*
X163366183Y-92001566D01*
X163367318Y-91996844D01*
X163367656Y-91996925D01*
X163370137Y-91987381D01*
X163369809Y-91987287D01*
X163675123Y-90925894D01*
X163686905Y-90898171D01*
X163692164Y-90889062D01*
X163709675Y-90858734D01*
X163748894Y-90712365D01*
X163748894Y-90560832D01*
X163748894Y-89687032D01*
X163768579Y-89619993D01*
X163821383Y-89574238D01*
X163890541Y-89564294D01*
X163954097Y-89593319D01*
X163973211Y-89614146D01*
X163998659Y-89649172D01*
X164160824Y-89811337D01*
X164346362Y-89946138D01*
X164417675Y-89982474D01*
X164550697Y-90050253D01*
X164550699Y-90050253D01*
X164550702Y-90050255D01*
X164667615Y-90088242D01*
X164768813Y-90121124D01*
X164995323Y-90157000D01*
X164995328Y-90157000D01*
X165224669Y-90157000D01*
X165451178Y-90121124D01*
X165526987Y-90096492D01*
X165669290Y-90050255D01*
X165873630Y-89946138D01*
X166059168Y-89811337D01*
X166221333Y-89649172D01*
X166356134Y-89463634D01*
X166460251Y-89259294D01*
X166531120Y-89041182D01*
X166538088Y-88997188D01*
X166566996Y-88814673D01*
X166566996Y-88585326D01*
X166531120Y-88358817D01*
X166481341Y-88205615D01*
X166460251Y-88140706D01*
X166460249Y-88140703D01*
X166460249Y-88140701D01*
X166372169Y-87967837D01*
X166356134Y-87936366D01*
X166221333Y-87750828D01*
X166059168Y-87588663D01*
X165873630Y-87453862D01*
X165852840Y-87443269D01*
X165669294Y-87349746D01*
X165451178Y-87278875D01*
X165224669Y-87243000D01*
X165224664Y-87243000D01*
X164995328Y-87243000D01*
X164995323Y-87243000D01*
X164768813Y-87278875D01*
X164550697Y-87349746D01*
X164346361Y-87453862D01*
X164160821Y-87588665D01*
X163998661Y-87750825D01*
X163863851Y-87936374D01*
X163863328Y-87937229D01*
X163863045Y-87937484D01*
X163860994Y-87940308D01*
X163860400Y-87939876D01*
X163811508Y-87984095D01*
X163742576Y-87995505D01*
X163678418Y-87967837D01*
X163650225Y-87934420D01*
X163649970Y-87933979D01*
X163633909Y-87906160D01*
X163526759Y-87799010D01*
X162045152Y-86317403D01*
X161979537Y-86279520D01*
X161913923Y-86241637D01*
X161840737Y-86222027D01*
X161767553Y-86202418D01*
X161767552Y-86202418D01*
X158006212Y-86202418D01*
X157939173Y-86182733D01*
X157918531Y-86166099D01*
X155868819Y-84116387D01*
X155835334Y-84055064D01*
X155832500Y-84028706D01*
X155832500Y-77548640D01*
X158837100Y-77548640D01*
X158837100Y-77751359D01*
X158868793Y-77951463D01*
X158868813Y-77951584D01*
X158931457Y-78144382D01*
X159023360Y-78324751D01*
X159023492Y-78325009D01*
X159142639Y-78489004D01*
X159285995Y-78632360D01*
X159439456Y-78743854D01*
X159449994Y-78751510D01*
X159630618Y-78843543D01*
X159823416Y-78906187D01*
X160023640Y-78937900D01*
X160023641Y-78937900D01*
X160226359Y-78937900D01*
X160226360Y-78937900D01*
X160426584Y-78906187D01*
X160619382Y-78843543D01*
X160800006Y-78751510D01*
X160892085Y-78684610D01*
X160964004Y-78632360D01*
X160964006Y-78632357D01*
X160964010Y-78632355D01*
X161107355Y-78489010D01*
X161107357Y-78489006D01*
X161107360Y-78489004D01*
X161196073Y-78366899D01*
X161226510Y-78325006D01*
X161318543Y-78144382D01*
X161381187Y-77951584D01*
X161412900Y-77751360D01*
X161412900Y-77548679D01*
X161837599Y-77548679D01*
X161837599Y-77751320D01*
X161869298Y-77951463D01*
X161931920Y-78144192D01*
X162023915Y-78324744D01*
X162054544Y-78366899D01*
X162054545Y-78366900D01*
X162614764Y-77806680D01*
X162627949Y-77855885D01*
X162698173Y-77977515D01*
X162797484Y-78076826D01*
X162919114Y-78147050D01*
X162968318Y-78160234D01*
X162408098Y-78720453D01*
X162408098Y-78720454D01*
X162450253Y-78751082D01*
X162630806Y-78843078D01*
X162823535Y-78905700D01*
X162823534Y-78905700D01*
X163023679Y-78937400D01*
X163226319Y-78937400D01*
X163426462Y-78905700D01*
X163619191Y-78843078D01*
X163799746Y-78751081D01*
X163799750Y-78751079D01*
X163841898Y-78720454D01*
X163841899Y-78720454D01*
X163281679Y-78160234D01*
X163330884Y-78147050D01*
X163452514Y-78076826D01*
X163551825Y-77977515D01*
X163622049Y-77855885D01*
X163635233Y-77806680D01*
X164195452Y-78366900D01*
X164195453Y-78366899D01*
X164226078Y-78324751D01*
X164226080Y-78324747D01*
X164318077Y-78144192D01*
X164380699Y-77951463D01*
X164412399Y-77751320D01*
X164412399Y-77548679D01*
X164412393Y-77548640D01*
X164837098Y-77548640D01*
X164837098Y-77751359D01*
X164868791Y-77951463D01*
X164868811Y-77951584D01*
X164931455Y-78144382D01*
X165023358Y-78324751D01*
X165023490Y-78325009D01*
X165142637Y-78489004D01*
X165285993Y-78632360D01*
X165439454Y-78743854D01*
X165449992Y-78751510D01*
X165630616Y-78843543D01*
X165823414Y-78906187D01*
X166023638Y-78937900D01*
X166023639Y-78937900D01*
X166226357Y-78937900D01*
X166226358Y-78937900D01*
X166426582Y-78906187D01*
X166619380Y-78843543D01*
X166800004Y-78751510D01*
X166892083Y-78684610D01*
X166964002Y-78632360D01*
X166964004Y-78632357D01*
X166964008Y-78632355D01*
X167107353Y-78489010D01*
X167107355Y-78489006D01*
X167107358Y-78489004D01*
X167196071Y-78366899D01*
X167226508Y-78325006D01*
X167318541Y-78144382D01*
X167381185Y-77951584D01*
X167412898Y-77751360D01*
X167412898Y-77548640D01*
X167381185Y-77348416D01*
X167318541Y-77155618D01*
X167226508Y-76974994D01*
X167196069Y-76933098D01*
X167107358Y-76810995D01*
X166964002Y-76667639D01*
X166800007Y-76548492D01*
X166800006Y-76548491D01*
X166800004Y-76548490D01*
X166619380Y-76456457D01*
X166426582Y-76393813D01*
X166426580Y-76393812D01*
X166426578Y-76393812D01*
X166286780Y-76371670D01*
X166226358Y-76362100D01*
X166023638Y-76362100D01*
X165977222Y-76369451D01*
X165823417Y-76393812D01*
X165823414Y-76393813D01*
X165638757Y-76453812D01*
X165630613Y-76456458D01*
X165449988Y-76548492D01*
X165285993Y-76667639D01*
X165142637Y-76810995D01*
X165023490Y-76974990D01*
X164931456Y-77155615D01*
X164868810Y-77348419D01*
X164837098Y-77548640D01*
X164412393Y-77548640D01*
X164380699Y-77348536D01*
X164318077Y-77155807D01*
X164226081Y-76975254D01*
X164195452Y-76933099D01*
X163635232Y-77493318D01*
X163622049Y-77444115D01*
X163551825Y-77322485D01*
X163452514Y-77223174D01*
X163330884Y-77152950D01*
X163281679Y-77139765D01*
X163841899Y-76579546D01*
X163841898Y-76579545D01*
X163799743Y-76548916D01*
X163619191Y-76456921D01*
X163426462Y-76394299D01*
X163426463Y-76394299D01*
X163226319Y-76362600D01*
X163023679Y-76362600D01*
X162823535Y-76394299D01*
X162630806Y-76456921D01*
X162450249Y-76548919D01*
X162408098Y-76579544D01*
X162408097Y-76579545D01*
X162968318Y-77139765D01*
X162919114Y-77152950D01*
X162797484Y-77223174D01*
X162698173Y-77322485D01*
X162627949Y-77444115D01*
X162614765Y-77493319D01*
X162054544Y-76933098D01*
X162054543Y-76933099D01*
X162023918Y-76975250D01*
X161931920Y-77155807D01*
X161869298Y-77348536D01*
X161837599Y-77548679D01*
X161412900Y-77548679D01*
X161412900Y-77548640D01*
X161381187Y-77348416D01*
X161318543Y-77155618D01*
X161226510Y-76974994D01*
X161196071Y-76933098D01*
X161107360Y-76810995D01*
X160964004Y-76667639D01*
X160800009Y-76548492D01*
X160800008Y-76548491D01*
X160800006Y-76548490D01*
X160619382Y-76456457D01*
X160426584Y-76393813D01*
X160426582Y-76393812D01*
X160426580Y-76393812D01*
X160286782Y-76371670D01*
X160226360Y-76362100D01*
X160023640Y-76362100D01*
X159977224Y-76369451D01*
X159823419Y-76393812D01*
X159823416Y-76393813D01*
X159638759Y-76453812D01*
X159630615Y-76456458D01*
X159449990Y-76548492D01*
X159285995Y-76667639D01*
X159142639Y-76810995D01*
X159023492Y-76974990D01*
X158931458Y-77155615D01*
X158868812Y-77348419D01*
X158837100Y-77548640D01*
X155832500Y-77548640D01*
X155832500Y-75717371D01*
X155852185Y-75650332D01*
X155904989Y-75604577D01*
X155974147Y-75594633D01*
X156037703Y-75623658D01*
X156044181Y-75629690D01*
X156175829Y-75761338D01*
X156361367Y-75896139D01*
X156443329Y-75937901D01*
X156565702Y-76000254D01*
X156565704Y-76000254D01*
X156565707Y-76000256D01*
X156682620Y-76038243D01*
X156783818Y-76071125D01*
X157010328Y-76107001D01*
X157010333Y-76107001D01*
X157239674Y-76107001D01*
X157466183Y-76071125D01*
X157499637Y-76060255D01*
X157684295Y-76000256D01*
X157888635Y-75896139D01*
X158074173Y-75761338D01*
X158236338Y-75599173D01*
X158371139Y-75413635D01*
X158475256Y-75209295D01*
X158546125Y-74991183D01*
X158550792Y-74961717D01*
X158582001Y-74764674D01*
X158582001Y-74548641D01*
X158837100Y-74548641D01*
X158837100Y-74751361D01*
X158868813Y-74951585D01*
X158931457Y-75144383D01*
X158964531Y-75209295D01*
X159023492Y-75325010D01*
X159142639Y-75489005D01*
X159285995Y-75632361D01*
X159403004Y-75717371D01*
X159449994Y-75751511D01*
X159630618Y-75843544D01*
X159823416Y-75906188D01*
X160023640Y-75937901D01*
X160023641Y-75937901D01*
X160226359Y-75937901D01*
X160226360Y-75937901D01*
X160426584Y-75906188D01*
X160619382Y-75843544D01*
X160800006Y-75751511D01*
X160927101Y-75659172D01*
X160964004Y-75632361D01*
X160964006Y-75632358D01*
X160964010Y-75632356D01*
X161107355Y-75489011D01*
X161107357Y-75489007D01*
X161107360Y-75489005D01*
X161182918Y-75385006D01*
X161226510Y-75325007D01*
X161318543Y-75144383D01*
X161381187Y-74951585D01*
X161412900Y-74751361D01*
X161412900Y-74548641D01*
X161837099Y-74548641D01*
X161837099Y-74751361D01*
X161868812Y-74951585D01*
X161931456Y-75144383D01*
X161964530Y-75209295D01*
X162023491Y-75325010D01*
X162142638Y-75489005D01*
X162285994Y-75632361D01*
X162403003Y-75717371D01*
X162449993Y-75751511D01*
X162630617Y-75843544D01*
X162823415Y-75906188D01*
X163023639Y-75937901D01*
X163023640Y-75937901D01*
X163226358Y-75937901D01*
X163226359Y-75937901D01*
X163426583Y-75906188D01*
X163619381Y-75843544D01*
X163800005Y-75751511D01*
X163927100Y-75659172D01*
X163964003Y-75632361D01*
X163964005Y-75632358D01*
X163964009Y-75632356D01*
X164107354Y-75489011D01*
X164107356Y-75489007D01*
X164107359Y-75489005D01*
X164182917Y-75385006D01*
X164226509Y-75325007D01*
X164318542Y-75144383D01*
X164381186Y-74951585D01*
X164412899Y-74751361D01*
X164412899Y-74548641D01*
X164837098Y-74548641D01*
X164837098Y-74751361D01*
X164868811Y-74951585D01*
X164931455Y-75144383D01*
X164964529Y-75209295D01*
X165023490Y-75325010D01*
X165142637Y-75489005D01*
X165285993Y-75632361D01*
X165403002Y-75717371D01*
X165449992Y-75751511D01*
X165630616Y-75843544D01*
X165823414Y-75906188D01*
X166023638Y-75937901D01*
X166023639Y-75937901D01*
X166226357Y-75937901D01*
X166226358Y-75937901D01*
X166426582Y-75906188D01*
X166619380Y-75843544D01*
X166800004Y-75751511D01*
X166927099Y-75659172D01*
X166964002Y-75632361D01*
X166964004Y-75632358D01*
X166964008Y-75632356D01*
X167107353Y-75489011D01*
X167107355Y-75489007D01*
X167107358Y-75489005D01*
X167182916Y-75385006D01*
X167226508Y-75325007D01*
X167318541Y-75144383D01*
X167381185Y-74951585D01*
X167412898Y-74751361D01*
X167412898Y-74548641D01*
X167410789Y-74535327D01*
X167667997Y-74535327D01*
X167667997Y-74764674D01*
X167703872Y-74991183D01*
X167774743Y-75209299D01*
X167833702Y-75325010D01*
X167878859Y-75413635D01*
X168013660Y-75599173D01*
X168175825Y-75761338D01*
X168361363Y-75896139D01*
X168443325Y-75937901D01*
X168565698Y-76000254D01*
X168565700Y-76000254D01*
X168565703Y-76000256D01*
X168682616Y-76038243D01*
X168783814Y-76071125D01*
X169010324Y-76107001D01*
X169010329Y-76107001D01*
X169239670Y-76107001D01*
X169466179Y-76071125D01*
X169499633Y-76060255D01*
X169684291Y-76000256D01*
X169888631Y-75896139D01*
X170074169Y-75761338D01*
X170236334Y-75599173D01*
X170371135Y-75413635D01*
X170475252Y-75209295D01*
X170546121Y-74991183D01*
X170550788Y-74961717D01*
X170581997Y-74764674D01*
X170581997Y-74535327D01*
X170546121Y-74308818D01*
X170475250Y-74090702D01*
X170401706Y-73946366D01*
X170371135Y-73886367D01*
X170236334Y-73700829D01*
X170074169Y-73538664D01*
X169888631Y-73403863D01*
X169861288Y-73389931D01*
X169684295Y-73299747D01*
X169466179Y-73228876D01*
X169239670Y-73193001D01*
X169239665Y-73193001D01*
X169010329Y-73193001D01*
X169010324Y-73193001D01*
X168783814Y-73228876D01*
X168565698Y-73299747D01*
X168361362Y-73403863D01*
X168175822Y-73538666D01*
X168013662Y-73700826D01*
X167878859Y-73886366D01*
X167774743Y-74090702D01*
X167703872Y-74308818D01*
X167667997Y-74535327D01*
X167410789Y-74535327D01*
X167381185Y-74348417D01*
X167318541Y-74155619D01*
X167226508Y-73974995D01*
X167205707Y-73946365D01*
X167107358Y-73810996D01*
X166964002Y-73667640D01*
X166800007Y-73548493D01*
X166800006Y-73548492D01*
X166800004Y-73548491D01*
X166619380Y-73456458D01*
X166426582Y-73393814D01*
X166426580Y-73393813D01*
X166426578Y-73393813D01*
X166286780Y-73371671D01*
X166226358Y-73362101D01*
X166023638Y-73362101D01*
X165977222Y-73369452D01*
X165823417Y-73393813D01*
X165823414Y-73393814D01*
X165638757Y-73453813D01*
X165630613Y-73456459D01*
X165449988Y-73548493D01*
X165285993Y-73667640D01*
X165142637Y-73810996D01*
X165023490Y-73974991D01*
X164931456Y-74155616D01*
X164868810Y-74348420D01*
X164859308Y-74408416D01*
X164837098Y-74548641D01*
X164412899Y-74548641D01*
X164381186Y-74348417D01*
X164318542Y-74155619D01*
X164226509Y-73974995D01*
X164205708Y-73946365D01*
X164107359Y-73810996D01*
X163964003Y-73667640D01*
X163800008Y-73548493D01*
X163800007Y-73548492D01*
X163800005Y-73548491D01*
X163619381Y-73456458D01*
X163426583Y-73393814D01*
X163426581Y-73393813D01*
X163426579Y-73393813D01*
X163286781Y-73371671D01*
X163226359Y-73362101D01*
X163023639Y-73362101D01*
X162977223Y-73369452D01*
X162823418Y-73393813D01*
X162823415Y-73393814D01*
X162638758Y-73453813D01*
X162630614Y-73456459D01*
X162449989Y-73548493D01*
X162285994Y-73667640D01*
X162142638Y-73810996D01*
X162023491Y-73974991D01*
X161931457Y-74155616D01*
X161868811Y-74348420D01*
X161859309Y-74408416D01*
X161837099Y-74548641D01*
X161412900Y-74548641D01*
X161381187Y-74348417D01*
X161318543Y-74155619D01*
X161226510Y-73974995D01*
X161205709Y-73946365D01*
X161107360Y-73810996D01*
X160964004Y-73667640D01*
X160800009Y-73548493D01*
X160800008Y-73548492D01*
X160800006Y-73548491D01*
X160619382Y-73456458D01*
X160426584Y-73393814D01*
X160426582Y-73393813D01*
X160426580Y-73393813D01*
X160286782Y-73371671D01*
X160226360Y-73362101D01*
X160023640Y-73362101D01*
X159977224Y-73369452D01*
X159823419Y-73393813D01*
X159823416Y-73393814D01*
X159638759Y-73453813D01*
X159630615Y-73456459D01*
X159449990Y-73548493D01*
X159285995Y-73667640D01*
X159142639Y-73810996D01*
X159023492Y-73974991D01*
X158931458Y-74155616D01*
X158868812Y-74348420D01*
X158859310Y-74408416D01*
X158837100Y-74548641D01*
X158582001Y-74548641D01*
X158582001Y-74535327D01*
X158546125Y-74308818D01*
X158475254Y-74090702D01*
X158401710Y-73946366D01*
X158371139Y-73886367D01*
X158236338Y-73700829D01*
X158074173Y-73538664D01*
X157888635Y-73403863D01*
X157861292Y-73389931D01*
X157684299Y-73299747D01*
X157466183Y-73228876D01*
X157239674Y-73193001D01*
X157239669Y-73193001D01*
X157010333Y-73193001D01*
X157010328Y-73193001D01*
X156783818Y-73228876D01*
X156565702Y-73299747D01*
X156361366Y-73403863D01*
X156175826Y-73538666D01*
X156044181Y-73670312D01*
X155982858Y-73703797D01*
X155913166Y-73698813D01*
X155857233Y-73656941D01*
X155832816Y-73591477D01*
X155832500Y-73582631D01*
X155832500Y-64214682D01*
X155852185Y-64147643D01*
X155868819Y-64127001D01*
X157437419Y-62558401D01*
X157498742Y-62524916D01*
X157525100Y-62522082D01*
X162129182Y-62522082D01*
X162129184Y-62522082D01*
X162275553Y-62482863D01*
X162406783Y-62407097D01*
X165189066Y-59624812D01*
X165239082Y-59594353D01*
X166290638Y-59259151D01*
X166299352Y-59256722D01*
X166301577Y-59256188D01*
X166301584Y-59256187D01*
X166494382Y-59193543D01*
X166675006Y-59101510D01*
X166786572Y-59020453D01*
X166839004Y-58982360D01*
X166839006Y-58982357D01*
X166839010Y-58982355D01*
X166982355Y-58839010D01*
X166982357Y-58839006D01*
X166982360Y-58839004D01*
X167065744Y-58724234D01*
X167101510Y-58675006D01*
X167193543Y-58494382D01*
X167256187Y-58301584D01*
X167287900Y-58101360D01*
X167287900Y-57898640D01*
X167284743Y-57878711D01*
X175649500Y-57878711D01*
X175649500Y-58121288D01*
X175681161Y-58361785D01*
X175743947Y-58596104D01*
X175836773Y-58820205D01*
X175836777Y-58820214D01*
X175847629Y-58839010D01*
X175958064Y-59030289D01*
X175958066Y-59030292D01*
X175958067Y-59030293D01*
X176105733Y-59222736D01*
X176105739Y-59222743D01*
X176277256Y-59394260D01*
X176277262Y-59394265D01*
X176469711Y-59541936D01*
X176679788Y-59663224D01*
X176903900Y-59756054D01*
X177138211Y-59818838D01*
X177318586Y-59842584D01*
X177378711Y-59850500D01*
X177378712Y-59850500D01*
X177621289Y-59850500D01*
X177677186Y-59843141D01*
X177861789Y-59818838D01*
X178096100Y-59756054D01*
X178320212Y-59663224D01*
X178530289Y-59541936D01*
X178722738Y-59394265D01*
X178894265Y-59222738D01*
X179041936Y-59030289D01*
X179163224Y-58820212D01*
X179256054Y-58596100D01*
X179318838Y-58361789D01*
X179350500Y-58121288D01*
X179350500Y-57878712D01*
X179348155Y-57860903D01*
X179320197Y-57648535D01*
X179318838Y-57638211D01*
X179256054Y-57403900D01*
X179163224Y-57179788D01*
X179041936Y-56969711D01*
X178939639Y-56836395D01*
X178894266Y-56777263D01*
X178894260Y-56777256D01*
X178722743Y-56605739D01*
X178722736Y-56605733D01*
X178530293Y-56458067D01*
X178530292Y-56458066D01*
X178530289Y-56458064D01*
X178320212Y-56336776D01*
X178248312Y-56306994D01*
X178096104Y-56243947D01*
X177861785Y-56181161D01*
X177621289Y-56149500D01*
X177621288Y-56149500D01*
X177378712Y-56149500D01*
X177378711Y-56149500D01*
X177138214Y-56181161D01*
X176903895Y-56243947D01*
X176679794Y-56336773D01*
X176679785Y-56336777D01*
X176469706Y-56458067D01*
X176277263Y-56605733D01*
X176277256Y-56605739D01*
X176105739Y-56777256D01*
X176105733Y-56777263D01*
X175958067Y-56969706D01*
X175836777Y-57179785D01*
X175836773Y-57179794D01*
X175743947Y-57403895D01*
X175681161Y-57638214D01*
X175649500Y-57878711D01*
X167284743Y-57878711D01*
X167256187Y-57698416D01*
X167193543Y-57505618D01*
X167101510Y-57324994D01*
X167067028Y-57277533D01*
X166982360Y-57160995D01*
X166839004Y-57017639D01*
X166675009Y-56898492D01*
X166675008Y-56898491D01*
X166675006Y-56898490D01*
X166494382Y-56806457D01*
X166301584Y-56743813D01*
X166301582Y-56743812D01*
X166301580Y-56743812D01*
X166135605Y-56717524D01*
X166101360Y-56712100D01*
X165898640Y-56712100D01*
X165864395Y-56717524D01*
X165698414Y-56743813D01*
X165674418Y-56751610D01*
X165646298Y-56752413D01*
X165618453Y-56756417D01*
X165611841Y-56753397D01*
X165604577Y-56753605D01*
X165580490Y-56739080D01*
X165554897Y-56727392D01*
X165550966Y-56721276D01*
X165544744Y-56717524D01*
X165532333Y-56692281D01*
X165517123Y-56668614D01*
X165515646Y-56658341D01*
X165513916Y-56654823D01*
X165512100Y-56633679D01*
X165512100Y-56587388D01*
X165531785Y-56520349D01*
X165584589Y-56474594D01*
X165600057Y-56468742D01*
X166289559Y-56259282D01*
X166296909Y-56257612D01*
X166296841Y-56257327D01*
X166301575Y-56256189D01*
X166301584Y-56256188D01*
X166494382Y-56193544D01*
X166675006Y-56101511D01*
X166767085Y-56034611D01*
X166839004Y-55982361D01*
X166839006Y-55982358D01*
X166839010Y-55982356D01*
X166982355Y-55839011D01*
X166982357Y-55839007D01*
X166982360Y-55839005D01*
X167085555Y-55696967D01*
X167101510Y-55675007D01*
X167193543Y-55494383D01*
X167256187Y-55301585D01*
X167287900Y-55101361D01*
X167287900Y-54898641D01*
X167285791Y-54885327D01*
X167543002Y-54885327D01*
X167543002Y-55114674D01*
X167578877Y-55341183D01*
X167649748Y-55559299D01*
X167728387Y-55713634D01*
X167753864Y-55763635D01*
X167888665Y-55949173D01*
X168050830Y-56111338D01*
X168236368Y-56246139D01*
X168308209Y-56282744D01*
X168440703Y-56350254D01*
X168440705Y-56350254D01*
X168440708Y-56350256D01*
X168524492Y-56377479D01*
X168658819Y-56421125D01*
X168885329Y-56457001D01*
X168885334Y-56457001D01*
X169114675Y-56457001D01*
X169341184Y-56421125D01*
X169422939Y-56394561D01*
X169559296Y-56350256D01*
X169763636Y-56246139D01*
X169949174Y-56111338D01*
X170111339Y-55949173D01*
X170246140Y-55763635D01*
X170350257Y-55559295D01*
X170421126Y-55341183D01*
X170435318Y-55251580D01*
X170457002Y-55114674D01*
X170457002Y-54885327D01*
X170421126Y-54658818D01*
X170371347Y-54505616D01*
X170350257Y-54440707D01*
X170350255Y-54440704D01*
X170350255Y-54440702D01*
X170276432Y-54295818D01*
X170246140Y-54236367D01*
X170111339Y-54050829D01*
X169949174Y-53888664D01*
X169763636Y-53753863D01*
X169743912Y-53743813D01*
X169559300Y-53649747D01*
X169341184Y-53578876D01*
X169114675Y-53543001D01*
X169114670Y-53543001D01*
X168885334Y-53543001D01*
X168885329Y-53543001D01*
X168658819Y-53578876D01*
X168440703Y-53649747D01*
X168236367Y-53753863D01*
X168050827Y-53888666D01*
X167888667Y-54050826D01*
X167753864Y-54236366D01*
X167649748Y-54440702D01*
X167578877Y-54658818D01*
X167543002Y-54885327D01*
X167285791Y-54885327D01*
X167256187Y-54698417D01*
X167193543Y-54505619D01*
X167101510Y-54324995D01*
X167080312Y-54295818D01*
X166982360Y-54160996D01*
X166839004Y-54017640D01*
X166675009Y-53898493D01*
X166675008Y-53898492D01*
X166675006Y-53898491D01*
X166494382Y-53806458D01*
X166301584Y-53743814D01*
X166301582Y-53743813D01*
X166301580Y-53743813D01*
X166161782Y-53721671D01*
X166101360Y-53712101D01*
X165898640Y-53712101D01*
X165852224Y-53719452D01*
X165698419Y-53743813D01*
X165505615Y-53806459D01*
X165324990Y-53898493D01*
X165160995Y-54017640D01*
X165017639Y-54160996D01*
X164898492Y-54324991D01*
X164806458Y-54505616D01*
X164743813Y-54698414D01*
X164742677Y-54703150D01*
X164742344Y-54703070D01*
X164739860Y-54712628D01*
X164740182Y-54712721D01*
X164738960Y-54716967D01*
X164738958Y-54716973D01*
X164698029Y-54859258D01*
X164686701Y-54898640D01*
X164434865Y-55774112D01*
X164423085Y-55801831D01*
X164400320Y-55841262D01*
X164400318Y-55841266D01*
X164361100Y-55987635D01*
X164361100Y-57277533D01*
X164352455Y-57306973D01*
X164345932Y-57336960D01*
X164342177Y-57341975D01*
X164341415Y-57344572D01*
X164324781Y-57365214D01*
X164311132Y-57378863D01*
X164249809Y-57412348D01*
X164180117Y-57407364D01*
X164124184Y-57365492D01*
X164112969Y-57347481D01*
X164101511Y-57324994D01*
X164101509Y-57324991D01*
X164101508Y-57324989D01*
X163982361Y-57160995D01*
X163839005Y-57017639D01*
X163675010Y-56898492D01*
X163675009Y-56898491D01*
X163675007Y-56898490D01*
X163494383Y-56806457D01*
X163301585Y-56743813D01*
X163301583Y-56743812D01*
X163301581Y-56743812D01*
X163135606Y-56717524D01*
X163101361Y-56712100D01*
X162898641Y-56712100D01*
X162864396Y-56717524D01*
X162698420Y-56743812D01*
X162505616Y-56806458D01*
X162324995Y-56898489D01*
X162272385Y-56936713D01*
X162206578Y-56960192D01*
X162138524Y-56944366D01*
X162089830Y-56894260D01*
X162075500Y-56836394D01*
X162075500Y-56564539D01*
X162095185Y-56497500D01*
X162147989Y-56451745D01*
X162179665Y-56442136D01*
X163222492Y-56273203D01*
X163230217Y-56271890D01*
X163230616Y-56271819D01*
X163276972Y-56260509D01*
X163286953Y-56258504D01*
X163301585Y-56256188D01*
X163494383Y-56193544D01*
X163675007Y-56101511D01*
X163767086Y-56034611D01*
X163839005Y-55982361D01*
X163839007Y-55982358D01*
X163839011Y-55982356D01*
X163982356Y-55839011D01*
X163982358Y-55839007D01*
X163982361Y-55839005D01*
X164085556Y-55696967D01*
X164101511Y-55675007D01*
X164193544Y-55494383D01*
X164256188Y-55301585D01*
X164287901Y-55101361D01*
X164287901Y-54898641D01*
X164256188Y-54698417D01*
X164193544Y-54505619D01*
X164101511Y-54324995D01*
X164080313Y-54295818D01*
X163982361Y-54160996D01*
X163839005Y-54017640D01*
X163675010Y-53898493D01*
X163675009Y-53898492D01*
X163675007Y-53898491D01*
X163494383Y-53806458D01*
X163301585Y-53743814D01*
X163301583Y-53743813D01*
X163301581Y-53743813D01*
X163161783Y-53721671D01*
X163101361Y-53712101D01*
X162898641Y-53712101D01*
X162852225Y-53719452D01*
X162698420Y-53743813D01*
X162505616Y-53806459D01*
X162324991Y-53898493D01*
X162160996Y-54017640D01*
X162017640Y-54160996D01*
X161898493Y-54324990D01*
X161806455Y-54505625D01*
X161797721Y-54532506D01*
X161791567Y-54547871D01*
X161523678Y-55105636D01*
X161476910Y-55157544D01*
X161409502Y-55175928D01*
X161342856Y-55154949D01*
X161298132Y-55101270D01*
X161287902Y-55051951D01*
X161287902Y-54898641D01*
X161279982Y-54848639D01*
X161256189Y-54698417D01*
X161193545Y-54505619D01*
X161101512Y-54324995D01*
X161080314Y-54295818D01*
X160982362Y-54160996D01*
X160839006Y-54017640D01*
X160675011Y-53898493D01*
X160675010Y-53898492D01*
X160675008Y-53898491D01*
X160494384Y-53806458D01*
X160301586Y-53743814D01*
X160301584Y-53743813D01*
X160301582Y-53743813D01*
X160161784Y-53721671D01*
X160101362Y-53712101D01*
X159898642Y-53712101D01*
X159852226Y-53719452D01*
X159698421Y-53743813D01*
X159505617Y-53806459D01*
X159324992Y-53898493D01*
X159160997Y-54017640D01*
X159017641Y-54160996D01*
X158898494Y-54324991D01*
X158806460Y-54505614D01*
X158743811Y-54698429D01*
X158743271Y-54700678D01*
X158740843Y-54709381D01*
X158405646Y-55760916D01*
X158375184Y-55810937D01*
X158129194Y-56056928D01*
X158129193Y-56056928D01*
X158129194Y-56056929D01*
X158039485Y-56146638D01*
X157963719Y-56277866D01*
X157924500Y-56424237D01*
X157924500Y-56836391D01*
X157904815Y-56903430D01*
X157852011Y-56949185D01*
X157782853Y-56959129D01*
X157727616Y-56936710D01*
X157675011Y-56898491D01*
X157494387Y-56806458D01*
X157494386Y-56806457D01*
X157494385Y-56806457D01*
X157301587Y-56743813D01*
X157301585Y-56743812D01*
X157301583Y-56743812D01*
X157135608Y-56717524D01*
X157101363Y-56712100D01*
X156898643Y-56712100D01*
X156864398Y-56717524D01*
X156698422Y-56743812D01*
X156505618Y-56806458D01*
X156355795Y-56882797D01*
X156287126Y-56895693D01*
X156222385Y-56869417D01*
X156182128Y-56812310D01*
X156175500Y-56772312D01*
X156175500Y-56705244D01*
X156195185Y-56638205D01*
X156247989Y-56592450D01*
X156261836Y-56587102D01*
X157290641Y-56259152D01*
X157299355Y-56256723D01*
X157301580Y-56256189D01*
X157301587Y-56256188D01*
X157494385Y-56193544D01*
X157675009Y-56101511D01*
X157767088Y-56034611D01*
X157839007Y-55982361D01*
X157839009Y-55982358D01*
X157839013Y-55982356D01*
X157982358Y-55839011D01*
X157982360Y-55839007D01*
X157982363Y-55839005D01*
X158085558Y-55696967D01*
X158101513Y-55675007D01*
X158193546Y-55494383D01*
X158256190Y-55301585D01*
X158287903Y-55101361D01*
X158287903Y-54898641D01*
X158256190Y-54698417D01*
X158193546Y-54505619D01*
X158101513Y-54324995D01*
X158080315Y-54295818D01*
X157982363Y-54160996D01*
X157839007Y-54017640D01*
X157675012Y-53898493D01*
X157675011Y-53898492D01*
X157675009Y-53898491D01*
X157494385Y-53806458D01*
X157301587Y-53743814D01*
X157301585Y-53743813D01*
X157301583Y-53743813D01*
X157161785Y-53721671D01*
X157101363Y-53712101D01*
X156898643Y-53712101D01*
X156852227Y-53719452D01*
X156698422Y-53743813D01*
X156505618Y-53806459D01*
X156324993Y-53898493D01*
X156160998Y-54017640D01*
X156017642Y-54160996D01*
X155898495Y-54324991D01*
X155806461Y-54505614D01*
X155743812Y-54698429D01*
X155743272Y-54700678D01*
X155740844Y-54709381D01*
X155405647Y-55760916D01*
X155375186Y-55810937D01*
X155246635Y-55939488D01*
X155229195Y-55956929D01*
X155229193Y-55956929D01*
X155229194Y-55956930D01*
X155139485Y-56046639D01*
X155063719Y-56177867D01*
X155024500Y-56324238D01*
X155024500Y-56909044D01*
X155004815Y-56976083D01*
X154952011Y-57021838D01*
X154882853Y-57031782D01*
X154827615Y-57009363D01*
X154675009Y-56898489D01*
X154494388Y-56806458D01*
X154494387Y-56806457D01*
X154494386Y-56806457D01*
X154301588Y-56743813D01*
X154301586Y-56743812D01*
X154301584Y-56743812D01*
X154135609Y-56717524D01*
X154101364Y-56712100D01*
X153898644Y-56712100D01*
X153864399Y-56717524D01*
X153698423Y-56743812D01*
X153505619Y-56806458D01*
X153324994Y-56898492D01*
X153160999Y-57017639D01*
X153017643Y-57160995D01*
X152898496Y-57324990D01*
X152873390Y-57374263D01*
X152825415Y-57425059D01*
X152757594Y-57441854D01*
X152691459Y-57419316D01*
X152648008Y-57364601D01*
X152638905Y-57317968D01*
X152638905Y-56118821D01*
X152639601Y-56107046D01*
X152638905Y-56102008D01*
X152638905Y-55987635D01*
X152636551Y-55978849D01*
X152638214Y-55909001D01*
X152677377Y-55851139D01*
X152741605Y-55823635D01*
X152810508Y-55835222D01*
X152813187Y-55836564D01*
X153315164Y-56095870D01*
X153323043Y-56100312D01*
X153324990Y-56101505D01*
X153324998Y-56101511D01*
X153505622Y-56193544D01*
X153698420Y-56256188D01*
X153898644Y-56287901D01*
X153898645Y-56287901D01*
X154101363Y-56287901D01*
X154101364Y-56287901D01*
X154301588Y-56256188D01*
X154494386Y-56193544D01*
X154675010Y-56101511D01*
X154767089Y-56034611D01*
X154839008Y-55982361D01*
X154839010Y-55982358D01*
X154839014Y-55982356D01*
X154982359Y-55839011D01*
X154982361Y-55839007D01*
X154982364Y-55839005D01*
X155085559Y-55696967D01*
X155101514Y-55675007D01*
X155193547Y-55494383D01*
X155256191Y-55301585D01*
X155287904Y-55101361D01*
X155287904Y-54898641D01*
X155256191Y-54698417D01*
X155193547Y-54505619D01*
X155101514Y-54324995D01*
X155080316Y-54295818D01*
X154982364Y-54160996D01*
X154839008Y-54017640D01*
X154675013Y-53898493D01*
X154675012Y-53898492D01*
X154675010Y-53898491D01*
X154494386Y-53806458D01*
X154301588Y-53743814D01*
X154301586Y-53743813D01*
X154301584Y-53743813D01*
X154161786Y-53721671D01*
X154101364Y-53712101D01*
X153898644Y-53712101D01*
X153852228Y-53719452D01*
X153698423Y-53743813D01*
X153505619Y-53806459D01*
X153324989Y-53898495D01*
X153323015Y-53899705D01*
X153315153Y-53904136D01*
X152556914Y-54295818D01*
X152488318Y-54309097D01*
X152443094Y-54295818D01*
X151684853Y-53904135D01*
X151676969Y-53899691D01*
X151675011Y-53898491D01*
X151494389Y-53806459D01*
X151494388Y-53806458D01*
X151494387Y-53806458D01*
X151301589Y-53743814D01*
X151301587Y-53743813D01*
X151301585Y-53743813D01*
X151161787Y-53721671D01*
X151101365Y-53712101D01*
X150898645Y-53712101D01*
X150852229Y-53719452D01*
X150698424Y-53743813D01*
X150505620Y-53806459D01*
X150324995Y-53898493D01*
X150161000Y-54017640D01*
X150017644Y-54160996D01*
X149898497Y-54324991D01*
X149806463Y-54505616D01*
X149743817Y-54698420D01*
X149718343Y-54859258D01*
X149712105Y-54898641D01*
X149712105Y-55101361D01*
X149743818Y-55301585D01*
X149806462Y-55494383D01*
X149839536Y-55559295D01*
X149898497Y-55675010D01*
X150017644Y-55839005D01*
X150161000Y-55982361D01*
X150314461Y-56093855D01*
X150324999Y-56101511D01*
X150505623Y-56193544D01*
X150698421Y-56256188D01*
X150698434Y-56256190D01*
X150703160Y-56257325D01*
X150703091Y-56257608D01*
X150710439Y-56259280D01*
X151367915Y-56459011D01*
X151399948Y-56468742D01*
X151421576Y-56482928D01*
X151445108Y-56493675D01*
X151450316Y-56501780D01*
X151458371Y-56507063D01*
X151468896Y-56530690D01*
X151482882Y-56552453D01*
X151484927Y-56566677D01*
X151486802Y-56570886D01*
X151487905Y-56587388D01*
X151487905Y-56633679D01*
X151468220Y-56700718D01*
X151415416Y-56746473D01*
X151346258Y-56756417D01*
X151325587Y-56751610D01*
X151301590Y-56743813D01*
X151168321Y-56722705D01*
X151101365Y-56712100D01*
X150898645Y-56712100D01*
X150864400Y-56717524D01*
X150698424Y-56743812D01*
X150505620Y-56806458D01*
X150324995Y-56898492D01*
X150161000Y-57017639D01*
X150017644Y-57160995D01*
X149898497Y-57324990D01*
X149806463Y-57505615D01*
X149743817Y-57698419D01*
X149715261Y-57878712D01*
X149712105Y-57898640D01*
X149712105Y-58101360D01*
X149715261Y-58121288D01*
X149740005Y-58277514D01*
X149743818Y-58301584D01*
X149806462Y-58494382D01*
X149894364Y-58666899D01*
X149898497Y-58675009D01*
X150017644Y-58839004D01*
X150160996Y-58982356D01*
X150161001Y-58982360D01*
X150324990Y-59101504D01*
X150324997Y-59101509D01*
X150324999Y-59101510D01*
X150329338Y-59103720D01*
X150334213Y-59106344D01*
X150988570Y-59477634D01*
X151074099Y-59526164D01*
X151122692Y-59576369D01*
X151136905Y-59634012D01*
X151136905Y-83097853D01*
X151117220Y-83164892D01*
X151100586Y-83185534D01*
X147261339Y-87024781D01*
X147200016Y-87058266D01*
X147173658Y-87061100D01*
X146862141Y-87061100D01*
X146795102Y-87041415D01*
X146749347Y-86988611D01*
X146739403Y-86919453D01*
X146768428Y-86855897D01*
X146774460Y-86849419D01*
X147021306Y-86602573D01*
X147613914Y-86009966D01*
X147689680Y-85878736D01*
X147728899Y-85732368D01*
X147728899Y-85580835D01*
X147728899Y-75697036D01*
X147748584Y-75629997D01*
X147801388Y-75584242D01*
X147870546Y-75574298D01*
X147934102Y-75603323D01*
X147953216Y-75624149D01*
X147978661Y-75659172D01*
X148140826Y-75821337D01*
X148326364Y-75956138D01*
X148397677Y-75992474D01*
X148530699Y-76060253D01*
X148530701Y-76060253D01*
X148530704Y-76060255D01*
X148647617Y-76098242D01*
X148748815Y-76131124D01*
X148975325Y-76167000D01*
X148975330Y-76167000D01*
X149204671Y-76167000D01*
X149431180Y-76131124D01*
X149649292Y-76060255D01*
X149853632Y-75956138D01*
X150039170Y-75821337D01*
X150201335Y-75659172D01*
X150336136Y-75473634D01*
X150440253Y-75269294D01*
X150511122Y-75051182D01*
X150525292Y-74961717D01*
X150546998Y-74824673D01*
X150546998Y-74595326D01*
X150511122Y-74368817D01*
X150440251Y-74150701D01*
X150379865Y-74032189D01*
X150336136Y-73946366D01*
X150201335Y-73760828D01*
X150039170Y-73598663D01*
X149853632Y-73463862D01*
X149833908Y-73453812D01*
X149649296Y-73359746D01*
X149431180Y-73288875D01*
X149204671Y-73253000D01*
X149204666Y-73253000D01*
X148975330Y-73253000D01*
X148975325Y-73253000D01*
X148748815Y-73288875D01*
X148530699Y-73359746D01*
X148326363Y-73463862D01*
X148140823Y-73598665D01*
X147978662Y-73760826D01*
X147953217Y-73795849D01*
X147897886Y-73838514D01*
X147828273Y-73844493D01*
X147766478Y-73811887D01*
X147732121Y-73751048D01*
X147728899Y-73722963D01*
X147728899Y-59477634D01*
X147728899Y-59477633D01*
X147718677Y-59439485D01*
X147717705Y-59435857D01*
X147719363Y-59366009D01*
X147758522Y-59308144D01*
X147822748Y-59280635D01*
X147856874Y-59281283D01*
X147898646Y-59287900D01*
X147898647Y-59287900D01*
X148101365Y-59287900D01*
X148101366Y-59287900D01*
X148301590Y-59256187D01*
X148494388Y-59193543D01*
X148675012Y-59101510D01*
X148786578Y-59020453D01*
X148839010Y-58982360D01*
X148839012Y-58982357D01*
X148839016Y-58982355D01*
X148982361Y-58839010D01*
X148982363Y-58839006D01*
X148982366Y-58839004D01*
X149065750Y-58724234D01*
X149101516Y-58675006D01*
X149193549Y-58494382D01*
X149256193Y-58301584D01*
X149287906Y-58101360D01*
X149287906Y-57898640D01*
X149256193Y-57698416D01*
X149193549Y-57505618D01*
X149101516Y-57324994D01*
X149067034Y-57277533D01*
X148982366Y-57160995D01*
X148839010Y-57017639D01*
X148675015Y-56898492D01*
X148675014Y-56898491D01*
X148675012Y-56898490D01*
X148494388Y-56806457D01*
X148301590Y-56743813D01*
X148301588Y-56743812D01*
X148301586Y-56743812D01*
X148135611Y-56717524D01*
X148101366Y-56712100D01*
X147898646Y-56712100D01*
X147864401Y-56717524D01*
X147698425Y-56743812D01*
X147505621Y-56806458D01*
X147325000Y-56898489D01*
X147172385Y-57009370D01*
X147106578Y-57032849D01*
X147038524Y-57017023D01*
X146989830Y-56966917D01*
X146975500Y-56909051D01*
X146975500Y-56517861D01*
X146995185Y-56450822D01*
X147047989Y-56405067D01*
X147086336Y-56394561D01*
X148085613Y-56287901D01*
X148101366Y-56287901D01*
X148133919Y-56282744D01*
X148194553Y-56276273D01*
X148216744Y-56273406D01*
X148217772Y-56273250D01*
X148266102Y-56262109D01*
X148274550Y-56260470D01*
X148301586Y-56256189D01*
X148301588Y-56256188D01*
X148301590Y-56256188D01*
X148494388Y-56193544D01*
X148675012Y-56101511D01*
X148767091Y-56034611D01*
X148839010Y-55982361D01*
X148839012Y-55982358D01*
X148839016Y-55982356D01*
X148982361Y-55839011D01*
X148982363Y-55839007D01*
X148982366Y-55839005D01*
X149085561Y-55696967D01*
X149101516Y-55675007D01*
X149193549Y-55494383D01*
X149256193Y-55301585D01*
X149287906Y-55101361D01*
X149287906Y-54898641D01*
X149256193Y-54698417D01*
X149193549Y-54505619D01*
X149101516Y-54324995D01*
X149080318Y-54295818D01*
X148982366Y-54160996D01*
X148839010Y-54017640D01*
X148675015Y-53898493D01*
X148675014Y-53898492D01*
X148675012Y-53898491D01*
X148494388Y-53806458D01*
X148301590Y-53743814D01*
X148301588Y-53743813D01*
X148301586Y-53743813D01*
X148161788Y-53721671D01*
X148101366Y-53712101D01*
X147898646Y-53712101D01*
X147852230Y-53719452D01*
X147698425Y-53743813D01*
X147505621Y-53806459D01*
X147324996Y-53898493D01*
X147161001Y-54017640D01*
X147017645Y-54160996D01*
X146898497Y-54324991D01*
X146884595Y-54352275D01*
X146883633Y-54354124D01*
X146664190Y-54767451D01*
X146615368Y-54817432D01*
X146547274Y-54833083D01*
X146481527Y-54809435D01*
X146439003Y-54753997D01*
X146432196Y-54728701D01*
X146421128Y-54658818D01*
X146371349Y-54505616D01*
X146350259Y-54440707D01*
X146350257Y-54440704D01*
X146350257Y-54440702D01*
X146276434Y-54295818D01*
X146246142Y-54236367D01*
X146111341Y-54050829D01*
X145949176Y-53888664D01*
X145763638Y-53753863D01*
X145743914Y-53743813D01*
X145559302Y-53649747D01*
X145341186Y-53578876D01*
X145114677Y-53543001D01*
X145114672Y-53543001D01*
X144885336Y-53543001D01*
X144885331Y-53543001D01*
X144658821Y-53578876D01*
X144440705Y-53649747D01*
X144236369Y-53753863D01*
X144050829Y-53888666D01*
X143888669Y-54050826D01*
X143753866Y-54236366D01*
X143649750Y-54440702D01*
X143578879Y-54658818D01*
X143543004Y-54885327D01*
X143543004Y-55114674D01*
X143578879Y-55341183D01*
X143649750Y-55559299D01*
X143728389Y-55713634D01*
X143753866Y-55763635D01*
X143888667Y-55949173D01*
X144050832Y-56111338D01*
X144236370Y-56246139D01*
X144308211Y-56282744D01*
X144440705Y-56350254D01*
X144440707Y-56350254D01*
X144440710Y-56350256D01*
X144524494Y-56377479D01*
X144658821Y-56421125D01*
X144885331Y-56457001D01*
X144885336Y-56457001D01*
X145114677Y-56457001D01*
X145341186Y-56421125D01*
X145390607Y-56405067D01*
X145559298Y-56350256D01*
X145644204Y-56306994D01*
X145712873Y-56294097D01*
X145777614Y-56320373D01*
X145817872Y-56377479D01*
X145824500Y-56417478D01*
X145824500Y-58875765D01*
X145863719Y-59022136D01*
X145868429Y-59030293D01*
X145939485Y-59153365D01*
X145939487Y-59153367D01*
X146541580Y-59755460D01*
X146575065Y-59816783D01*
X146577899Y-59843141D01*
X146577899Y-73277137D01*
X146558214Y-73344176D01*
X146505410Y-73389931D01*
X146436252Y-73399875D01*
X146390119Y-73383477D01*
X145671719Y-72952598D01*
X145647818Y-72933939D01*
X132023963Y-59310083D01*
X131990478Y-59248760D01*
X131995462Y-59179068D01*
X132037334Y-59123135D01*
X132055350Y-59111917D01*
X132174743Y-59051083D01*
X132174752Y-59051078D01*
X132216900Y-59020453D01*
X132216901Y-59020453D01*
X131656681Y-58460233D01*
X131705886Y-58447049D01*
X131827516Y-58376825D01*
X131926827Y-58277514D01*
X131997051Y-58155884D01*
X132010235Y-58106679D01*
X132570454Y-58666899D01*
X132570455Y-58666898D01*
X132601080Y-58624750D01*
X132601082Y-58624746D01*
X132693079Y-58444191D01*
X132755701Y-58251462D01*
X132787401Y-58051319D01*
X132787401Y-57848678D01*
X132787395Y-57848639D01*
X133212100Y-57848639D01*
X133212100Y-58051358D01*
X133243793Y-58251462D01*
X133243813Y-58251583D01*
X133306457Y-58444381D01*
X133398360Y-58624750D01*
X133398492Y-58625008D01*
X133517639Y-58789003D01*
X133660995Y-58932359D01*
X133784565Y-59022136D01*
X133824994Y-59051509D01*
X134005618Y-59143542D01*
X134198416Y-59206186D01*
X134398640Y-59237899D01*
X134398641Y-59237899D01*
X134601359Y-59237899D01*
X134601360Y-59237899D01*
X134801584Y-59206186D01*
X134994382Y-59143542D01*
X135175006Y-59051509D01*
X135270189Y-58982355D01*
X135339004Y-58932359D01*
X135339006Y-58932356D01*
X135339010Y-58932354D01*
X135482355Y-58789009D01*
X135482357Y-58789005D01*
X135482360Y-58789003D01*
X135571073Y-58666898D01*
X135601510Y-58625005D01*
X135693543Y-58444381D01*
X135756187Y-58251583D01*
X135787900Y-58051359D01*
X135787900Y-57848639D01*
X135756187Y-57648415D01*
X135693543Y-57455617D01*
X135601510Y-57274993D01*
X135571072Y-57233098D01*
X135482360Y-57110994D01*
X135339004Y-56967638D01*
X135175009Y-56848491D01*
X135175008Y-56848490D01*
X135175006Y-56848489D01*
X134994382Y-56756456D01*
X134801584Y-56693812D01*
X134801582Y-56693811D01*
X134801580Y-56693811D01*
X134642493Y-56668614D01*
X134601360Y-56662099D01*
X134398640Y-56662099D01*
X134357507Y-56668614D01*
X134198419Y-56693811D01*
X134198416Y-56693812D01*
X134014393Y-56753605D01*
X134005615Y-56756457D01*
X133824990Y-56848491D01*
X133660995Y-56967638D01*
X133517639Y-57110994D01*
X133398492Y-57274989D01*
X133306458Y-57455614D01*
X133243812Y-57648418D01*
X133212100Y-57848639D01*
X132787395Y-57848639D01*
X132755701Y-57648535D01*
X132693079Y-57455806D01*
X132601083Y-57275253D01*
X132570454Y-57233098D01*
X132010234Y-57793317D01*
X131997051Y-57744114D01*
X131926827Y-57622484D01*
X131827516Y-57523173D01*
X131705886Y-57452949D01*
X131656680Y-57439764D01*
X132216901Y-56879544D01*
X132174745Y-56848915D01*
X131994193Y-56756920D01*
X131801464Y-56694298D01*
X131801465Y-56694298D01*
X131601321Y-56662599D01*
X131398681Y-56662599D01*
X131198537Y-56694298D01*
X131005804Y-56756921D01*
X131001302Y-56758786D01*
X131000789Y-56757547D01*
X130938112Y-56769312D01*
X130873374Y-56743028D01*
X130833124Y-56685917D01*
X130826500Y-56645932D01*
X130826500Y-56607108D01*
X130846185Y-56540069D01*
X130898989Y-56494314D01*
X130912830Y-56488968D01*
X131790639Y-56209151D01*
X131799353Y-56206722D01*
X131801578Y-56206188D01*
X131801585Y-56206187D01*
X131994383Y-56143543D01*
X132175007Y-56051510D01*
X132275014Y-55978851D01*
X132339005Y-55932360D01*
X132339007Y-55932357D01*
X132339011Y-55932355D01*
X132482356Y-55789010D01*
X132482358Y-55789006D01*
X132482361Y-55789004D01*
X132537119Y-55713634D01*
X132601511Y-55625006D01*
X132693544Y-55444382D01*
X132756188Y-55251584D01*
X132787901Y-55051360D01*
X132787901Y-54848640D01*
X133212100Y-54848640D01*
X133212100Y-55051360D01*
X133220005Y-55101270D01*
X133231839Y-55175988D01*
X133243813Y-55251584D01*
X133306457Y-55444382D01*
X133365010Y-55559299D01*
X133398492Y-55625009D01*
X133517639Y-55789004D01*
X133660995Y-55932360D01*
X133808446Y-56039487D01*
X133824994Y-56051510D01*
X134005618Y-56143543D01*
X134198416Y-56206187D01*
X134398640Y-56237900D01*
X134398641Y-56237900D01*
X134601359Y-56237900D01*
X134601360Y-56237900D01*
X134801584Y-56206187D01*
X134994382Y-56143543D01*
X135175006Y-56051510D01*
X135275013Y-55978851D01*
X135339004Y-55932360D01*
X135339006Y-55932357D01*
X135339010Y-55932355D01*
X135482355Y-55789010D01*
X135482357Y-55789006D01*
X135482360Y-55789004D01*
X135537118Y-55713634D01*
X135601510Y-55625006D01*
X135693543Y-55444382D01*
X135756187Y-55251584D01*
X135787900Y-55051360D01*
X135787900Y-54848640D01*
X135785791Y-54835326D01*
X136042999Y-54835326D01*
X136042999Y-55064673D01*
X136078874Y-55291182D01*
X136149745Y-55509298D01*
X136208704Y-55625009D01*
X136253861Y-55713634D01*
X136388662Y-55899172D01*
X136550827Y-56061337D01*
X136736365Y-56196138D01*
X136818327Y-56237900D01*
X136940700Y-56300253D01*
X136940702Y-56300253D01*
X136940705Y-56300255D01*
X137002622Y-56320373D01*
X137158816Y-56371124D01*
X137385326Y-56407000D01*
X137385331Y-56407000D01*
X137614672Y-56407000D01*
X137841181Y-56371124D01*
X138059293Y-56300255D01*
X138263633Y-56196138D01*
X138449171Y-56061337D01*
X138611336Y-55899172D01*
X138746137Y-55713634D01*
X138850254Y-55509294D01*
X138921123Y-55291182D01*
X138939368Y-55175988D01*
X138956999Y-55064673D01*
X138956999Y-54835326D01*
X138921123Y-54608817D01*
X138871344Y-54455615D01*
X138850254Y-54390706D01*
X138850252Y-54390703D01*
X138850252Y-54390701D01*
X138746136Y-54186365D01*
X138611336Y-54000828D01*
X138449171Y-53838663D01*
X138263633Y-53703862D01*
X138243909Y-53693812D01*
X138059297Y-53599746D01*
X137841181Y-53528875D01*
X137614672Y-53493000D01*
X137614667Y-53493000D01*
X137385331Y-53493000D01*
X137385326Y-53493000D01*
X137158816Y-53528875D01*
X136940700Y-53599746D01*
X136736364Y-53703862D01*
X136550824Y-53838665D01*
X136388664Y-54000825D01*
X136253861Y-54186365D01*
X136149745Y-54390701D01*
X136078874Y-54608817D01*
X136042999Y-54835326D01*
X135785791Y-54835326D01*
X135756187Y-54648416D01*
X135693543Y-54455618D01*
X135601510Y-54274994D01*
X135573446Y-54236367D01*
X135482360Y-54110995D01*
X135339004Y-53967639D01*
X135175009Y-53848492D01*
X135175008Y-53848491D01*
X135175006Y-53848490D01*
X134994382Y-53756457D01*
X134801584Y-53693813D01*
X134801582Y-53693812D01*
X134801580Y-53693812D01*
X134661782Y-53671670D01*
X134601360Y-53662100D01*
X134398640Y-53662100D01*
X134352224Y-53669451D01*
X134198419Y-53693812D01*
X134198416Y-53693813D01*
X134013602Y-53753863D01*
X134005615Y-53756458D01*
X133824990Y-53848492D01*
X133660995Y-53967639D01*
X133517639Y-54110995D01*
X133398492Y-54274990D01*
X133306458Y-54455615D01*
X133243812Y-54648419D01*
X133217043Y-54817432D01*
X133212100Y-54848640D01*
X132787901Y-54848640D01*
X132756188Y-54648416D01*
X132693544Y-54455618D01*
X132601511Y-54274994D01*
X132573447Y-54236367D01*
X132482361Y-54110995D01*
X132339005Y-53967639D01*
X132175010Y-53848492D01*
X132175009Y-53848491D01*
X132175007Y-53848490D01*
X131994383Y-53756457D01*
X131801585Y-53693813D01*
X131801583Y-53693812D01*
X131801581Y-53693812D01*
X131661783Y-53671670D01*
X131601361Y-53662100D01*
X131398641Y-53662100D01*
X131352225Y-53669451D01*
X131198420Y-53693812D01*
X131198417Y-53693813D01*
X131013603Y-53753863D01*
X131005616Y-53756458D01*
X130824991Y-53848492D01*
X130660996Y-53967639D01*
X130517640Y-54110995D01*
X130398493Y-54274990D01*
X130306459Y-54455613D01*
X130243810Y-54648428D01*
X130243270Y-54650677D01*
X130242831Y-54651441D01*
X130242309Y-54653048D01*
X130242296Y-54653043D01*
X130240842Y-54659380D01*
X130118143Y-55044293D01*
X130079027Y-55102188D01*
X130014821Y-55129744D01*
X129945909Y-55118214D01*
X129894171Y-55071257D01*
X129881860Y-55044299D01*
X129759158Y-54659375D01*
X129756734Y-54650686D01*
X129756189Y-54648419D01*
X129756189Y-54648416D01*
X129693545Y-54455618D01*
X129601512Y-54274994D01*
X129573448Y-54236367D01*
X129482362Y-54110995D01*
X129339006Y-53967639D01*
X129175011Y-53848492D01*
X129175010Y-53848491D01*
X129175008Y-53848490D01*
X128994384Y-53756457D01*
X128801586Y-53693813D01*
X128801584Y-53693812D01*
X128801582Y-53693812D01*
X128661784Y-53671670D01*
X128601362Y-53662100D01*
X128398642Y-53662100D01*
X128352226Y-53669451D01*
X128198421Y-53693812D01*
X128198418Y-53693813D01*
X128013604Y-53753863D01*
X128005617Y-53756458D01*
X127824992Y-53848492D01*
X127660997Y-53967639D01*
X127517641Y-54110995D01*
X127398494Y-54274990D01*
X127306460Y-54455615D01*
X127243814Y-54648419D01*
X127217045Y-54817432D01*
X127212102Y-54848640D01*
X126957003Y-54848640D01*
X126957003Y-54835326D01*
X126921127Y-54608817D01*
X126871348Y-54455615D01*
X126850258Y-54390706D01*
X126850256Y-54390703D01*
X126850256Y-54390701D01*
X126746140Y-54186365D01*
X126611340Y-54000828D01*
X126449175Y-53838663D01*
X126263637Y-53703862D01*
X126243913Y-53693812D01*
X126059301Y-53599746D01*
X125841185Y-53528875D01*
X125614676Y-53493000D01*
X125614671Y-53493000D01*
X125385335Y-53493000D01*
X125385330Y-53493000D01*
X125158820Y-53528875D01*
X124940704Y-53599746D01*
X124736368Y-53703862D01*
X124550828Y-53838665D01*
X124388668Y-54000825D01*
X124253865Y-54186365D01*
X124149749Y-54390701D01*
X124078878Y-54608817D01*
X124043003Y-54835326D01*
X114000500Y-54835326D01*
X114000500Y-53473423D01*
X114000726Y-53465935D01*
X114007234Y-53358361D01*
X114018273Y-53175885D01*
X114020078Y-53161022D01*
X114023150Y-53144254D01*
X114071786Y-52878873D01*
X114075361Y-52864367D01*
X114160707Y-52590492D01*
X114166006Y-52576521D01*
X114283736Y-52314937D01*
X114290681Y-52301705D01*
X114439082Y-52056224D01*
X114447579Y-52043913D01*
X114624481Y-51818118D01*
X114634410Y-51806912D01*
X114712780Y-51728542D01*
X114837233Y-51604089D01*
X114848424Y-51594174D01*
X115074236Y-51417263D01*
X115086533Y-51408775D01*
X115332030Y-51260368D01*
X115345246Y-51253431D01*
X115606846Y-51135696D01*
X115620826Y-51130394D01*
X115894679Y-51045059D01*
X115909197Y-51041480D01*
X116191344Y-50989775D01*
X116206201Y-50987971D01*
X116496620Y-50970404D01*
X116504205Y-50970179D01*
X177933866Y-51030760D01*
G37*
%TD.AperFunction*%
%TD*%
%TA.AperFunction,Conductor*%
%TO.N,/H1{slash}A_RX+*%
G36*
X156993022Y-57997772D02*
G01*
X157000473Y-58002740D01*
X157002230Y-58006980D01*
X157151590Y-58762025D01*
X157149833Y-58770805D01*
X157143665Y-58775442D01*
X155956971Y-59153722D01*
X155948048Y-59152970D01*
X155945145Y-59150848D01*
X155849154Y-59054857D01*
X155845727Y-59046584D01*
X155846278Y-59043037D01*
X156224561Y-57856335D01*
X156230337Y-57849495D01*
X156237975Y-57848412D01*
X156993022Y-57997772D01*
G37*
%TD.AperFunction*%
%TD*%
%TA.AperFunction,Conductor*%
%TO.N,/H1{slash}A_RX+*%
G36*
X154161951Y-90547028D02*
G01*
X154164854Y-90549150D01*
X154260845Y-90645141D01*
X154264272Y-90653414D01*
X154263719Y-90656967D01*
X153885439Y-91843661D01*
X153879662Y-91850503D01*
X153872022Y-91851586D01*
X153116977Y-91702226D01*
X153109526Y-91697258D01*
X153107769Y-91693018D01*
X152958409Y-90937973D01*
X152960166Y-90929193D01*
X152966331Y-90924557D01*
X154153030Y-90546276D01*
X154161951Y-90547028D01*
G37*
%TD.AperFunction*%
%TD*%
%TA.AperFunction,Conductor*%
%TO.N,/H3{slash}I_RX+*%
G36*
X160241128Y-90584230D02*
G01*
X160244555Y-90592503D01*
X160244099Y-90595737D01*
X159885235Y-91843285D01*
X159879655Y-91850289D01*
X159871723Y-91851529D01*
X159117677Y-91702517D01*
X159110225Y-91697551D01*
X159108469Y-91693319D01*
X158958445Y-90938120D01*
X158960194Y-90929340D01*
X158966517Y-90924649D01*
X160096733Y-90581308D01*
X160100134Y-90580803D01*
X160232855Y-90580803D01*
X160241128Y-90584230D01*
G37*
%TD.AperFunction*%
%TD*%
%TA.AperFunction,Conductor*%
%TO.N,/H3{slash}I_RX+*%
G36*
X162993020Y-57997772D02*
G01*
X163000471Y-58002740D01*
X163002228Y-58006980D01*
X163151588Y-58762025D01*
X163149831Y-58770805D01*
X163143663Y-58775442D01*
X161956969Y-59153722D01*
X161948046Y-59152970D01*
X161945143Y-59150848D01*
X161849152Y-59054857D01*
X161845725Y-59046584D01*
X161846276Y-59043037D01*
X162224559Y-57856335D01*
X162230335Y-57849495D01*
X162237973Y-57848412D01*
X162993020Y-57997772D01*
G37*
%TD.AperFunction*%
%TD*%
%TA.AperFunction,Conductor*%
%TO.N,GND_MCI*%
G36*
X148161953Y-87547029D02*
G01*
X148164856Y-87549151D01*
X148260847Y-87645142D01*
X148264274Y-87653415D01*
X148263721Y-87656968D01*
X147885441Y-88843662D01*
X147879664Y-88850504D01*
X147872024Y-88851587D01*
X147116979Y-88702227D01*
X147109528Y-88697259D01*
X147107771Y-88693019D01*
X146958411Y-87937974D01*
X146960168Y-87929194D01*
X146966333Y-87924558D01*
X147003683Y-87912653D01*
X147007236Y-87912100D01*
X147518198Y-87912100D01*
X147518200Y-87912100D01*
X147619458Y-87870157D01*
X147696957Y-87792658D01*
X147696956Y-87792658D01*
X147843208Y-87646405D01*
X147847918Y-87643537D01*
X148153032Y-87546277D01*
X148161953Y-87547029D01*
G37*
%TD.AperFunction*%
%TD*%
%TA.AperFunction,Conductor*%
%TO.N,GND_MCI*%
G36*
X153568359Y-54353980D02*
G01*
X153996644Y-54993491D01*
X153998401Y-55002271D01*
X153996644Y-55006511D01*
X153568359Y-55646021D01*
X153560908Y-55650989D01*
X153553268Y-55649906D01*
X152446664Y-55078270D01*
X152440887Y-55071428D01*
X152440334Y-55067875D01*
X152440334Y-54932126D01*
X152443761Y-54923853D01*
X152446664Y-54921731D01*
X153553269Y-54350094D01*
X153562191Y-54349343D01*
X153568359Y-54353980D01*
G37*
%TD.AperFunction*%
%TD*%
%TA.AperFunction,Conductor*%
%TO.N,GND_MCI*%
G36*
X151446739Y-54350094D02*
G01*
X152553345Y-54921731D01*
X152559122Y-54928573D01*
X152559675Y-54932126D01*
X152559675Y-55067875D01*
X152556248Y-55076148D01*
X152553345Y-55078270D01*
X151446740Y-55649906D01*
X151437817Y-55650658D01*
X151431649Y-55646021D01*
X151051422Y-55078270D01*
X151003363Y-55006509D01*
X151001607Y-54997731D01*
X151003362Y-54993494D01*
X151431649Y-54353979D01*
X151439100Y-54349012D01*
X151446739Y-54350094D01*
G37*
%TD.AperFunction*%
%TD*%
%TA.AperFunction,Conductor*%
%TO.N,GND_MCI*%
G36*
X147556733Y-88050093D02*
G01*
X148663339Y-88621730D01*
X148669116Y-88628572D01*
X148669669Y-88632125D01*
X148669669Y-88767874D01*
X148666242Y-88776147D01*
X148663339Y-88778269D01*
X147556734Y-89349905D01*
X147547811Y-89350657D01*
X147541643Y-89346020D01*
X147161416Y-88778269D01*
X147113357Y-88706508D01*
X147111601Y-88697730D01*
X147113356Y-88693493D01*
X147541643Y-88053978D01*
X147549094Y-88049011D01*
X147556733Y-88050093D01*
G37*
%TD.AperFunction*%
%TD*%
%TA.AperFunction,Conductor*%
%TO.N,GND_MCI*%
G36*
X149678353Y-88053979D02*
G01*
X150106638Y-88693490D01*
X150108395Y-88702270D01*
X150106638Y-88706510D01*
X149678353Y-89346020D01*
X149670902Y-89350988D01*
X149663262Y-89349905D01*
X148556658Y-88778269D01*
X148550881Y-88771427D01*
X148550328Y-88767874D01*
X148550328Y-88632125D01*
X148553755Y-88623852D01*
X148556658Y-88621730D01*
X149663263Y-88050093D01*
X149672185Y-88049342D01*
X149678353Y-88053979D01*
G37*
%TD.AperFunction*%
%TD*%
%TA.AperFunction,Conductor*%
%TO.N,GND_MCI*%
G36*
X151770513Y-54850228D02*
G01*
X151775245Y-54856714D01*
X152134109Y-56104263D01*
X152133103Y-56113161D01*
X152126099Y-56118741D01*
X152122865Y-56119197D01*
X151990144Y-56119197D01*
X151986743Y-56118692D01*
X150856530Y-55775351D01*
X150849610Y-55769667D01*
X150848455Y-55761878D01*
X150998479Y-55006678D01*
X151003452Y-54999233D01*
X151007682Y-54997483D01*
X151761733Y-54848470D01*
X151770513Y-54850228D01*
G37*
%TD.AperFunction*%
%TD*%
%TA.AperFunction,Conductor*%
%TO.N,/Serial_RX-*%
G36*
X165992318Y-54997483D02*
G01*
X165999769Y-55002448D01*
X166001525Y-55006680D01*
X166151549Y-55761876D01*
X166149800Y-55770659D01*
X166143474Y-55775351D01*
X165013262Y-56118692D01*
X165009861Y-56119197D01*
X164877140Y-56119197D01*
X164868867Y-56115770D01*
X164865440Y-56107497D01*
X164865896Y-56104263D01*
X165183830Y-54999001D01*
X165224759Y-54856713D01*
X165230339Y-54849710D01*
X165238271Y-54848470D01*
X165992318Y-54997483D01*
G37*
%TD.AperFunction*%
%TD*%
%TA.AperFunction,Conductor*%
%TO.N,/Serial_RX-*%
G36*
X161953171Y-87932153D02*
G01*
X161958648Y-87939237D01*
X161958832Y-87940016D01*
X162109749Y-88695941D01*
X162108008Y-88704725D01*
X162107995Y-88704744D01*
X161680408Y-89342951D01*
X161672956Y-89347917D01*
X161664176Y-89346159D01*
X161662471Y-89344768D01*
X160669678Y-88365372D01*
X160666195Y-88357122D01*
X160669565Y-88348827D01*
X160765160Y-88253232D01*
X160770358Y-88250218D01*
X161944290Y-87931017D01*
X161953171Y-87932153D01*
G37*
%TD.AperFunction*%
%TD*%
%TA.AperFunction,Conductor*%
%TO.N,/H3{slash}I_RX-*%
G36*
X158953322Y-87932030D02*
G01*
X158958660Y-87939220D01*
X158958786Y-87939778D01*
X159109168Y-88693024D01*
X159107427Y-88701808D01*
X159104182Y-88705051D01*
X158463408Y-89132050D01*
X158454623Y-89133786D01*
X158448515Y-89130454D01*
X157680764Y-88337702D01*
X157677471Y-88329375D01*
X157680895Y-88321290D01*
X157776534Y-88225651D01*
X157781953Y-88222579D01*
X158944465Y-87930721D01*
X158953322Y-87932030D01*
G37*
%TD.AperFunction*%
%TD*%
%TA.AperFunction,Conductor*%
%TO.N,/H3{slash}I_RX-*%
G36*
X162355084Y-54569200D02*
G01*
X162356498Y-54570006D01*
X162996661Y-54996597D01*
X163001645Y-55004036D01*
X163001651Y-55004063D01*
X163151264Y-55760389D01*
X163149507Y-55769169D01*
X163142056Y-55774137D01*
X163141657Y-55774208D01*
X161823230Y-55987788D01*
X161814515Y-55985729D01*
X161813086Y-55984512D01*
X161717117Y-55888543D01*
X161713690Y-55880270D01*
X161714841Y-55875209D01*
X162339473Y-54574680D01*
X162346143Y-54568708D01*
X162355084Y-54569200D01*
G37*
%TD.AperFunction*%
%TD*%
%TA.AperFunction,Conductor*%
%TO.N,+12V_MCI*%
G36*
X151161952Y-90547028D02*
G01*
X151164855Y-90549150D01*
X151260846Y-90645141D01*
X151264273Y-90653414D01*
X151263720Y-90656967D01*
X150885440Y-91843661D01*
X150879663Y-91850503D01*
X150872023Y-91851586D01*
X150116978Y-91702226D01*
X150109527Y-91697258D01*
X150107770Y-91693018D01*
X149958410Y-90937973D01*
X149960167Y-90929193D01*
X149966332Y-90924557D01*
X151153031Y-90546276D01*
X151161952Y-90547028D01*
G37*
%TD.AperFunction*%
%TD*%
%TA.AperFunction,Conductor*%
%TO.N,+12V_MCI*%
G36*
X153993023Y-57997772D02*
G01*
X154000474Y-58002740D01*
X154002231Y-58006980D01*
X154151591Y-58762025D01*
X154149834Y-58770805D01*
X154143666Y-58775442D01*
X152956972Y-59153722D01*
X152948049Y-59152970D01*
X152945146Y-59150848D01*
X152849155Y-59054857D01*
X152845728Y-59046584D01*
X152846279Y-59043037D01*
X153224562Y-57856335D01*
X153230338Y-57849495D01*
X153237976Y-57848412D01*
X153993023Y-57997772D01*
G37*
%TD.AperFunction*%
%TD*%
%TA.AperFunction,Conductor*%
%TO.N,/H2{slash}B_RX+*%
G36*
X157241129Y-90584230D02*
G01*
X157244556Y-90592503D01*
X157244100Y-90595737D01*
X156885236Y-91843285D01*
X156879656Y-91850289D01*
X156871724Y-91851529D01*
X156117678Y-91702517D01*
X156110226Y-91697551D01*
X156108470Y-91693319D01*
X155958446Y-90938120D01*
X155960195Y-90929340D01*
X155966518Y-90924649D01*
X157096734Y-90581308D01*
X157100135Y-90580803D01*
X157232856Y-90580803D01*
X157241129Y-90584230D01*
G37*
%TD.AperFunction*%
%TD*%
%TA.AperFunction,Conductor*%
%TO.N,/H2{slash}B_RX+*%
G36*
X159354219Y-57568486D02*
G01*
X159994189Y-57994948D01*
X159999173Y-58002387D01*
X159999175Y-58006975D01*
X159848599Y-58761195D01*
X159843618Y-58768637D01*
X159835241Y-58770451D01*
X158718531Y-58588252D01*
X158712142Y-58584978D01*
X158616662Y-58489498D01*
X158613235Y-58481225D01*
X158616660Y-58472955D01*
X158733557Y-58356059D01*
X158746629Y-58324500D01*
X158758824Y-58295058D01*
X158760495Y-58292230D01*
X159338602Y-57570903D01*
X159346449Y-57566592D01*
X159354219Y-57568486D01*
G37*
%TD.AperFunction*%
%TD*%
%TA.AperFunction,Conductor*%
%TO.N,/Serial_RX+*%
G36*
X165993019Y-57997772D02*
G01*
X166000470Y-58002740D01*
X166002227Y-58006980D01*
X166151587Y-58762025D01*
X166149830Y-58770805D01*
X166143662Y-58775442D01*
X164956968Y-59153722D01*
X164948045Y-59152970D01*
X164945142Y-59150848D01*
X164849151Y-59054857D01*
X164845724Y-59046584D01*
X164846275Y-59043037D01*
X165224558Y-57856335D01*
X165230334Y-57849495D01*
X165237972Y-57848412D01*
X165993019Y-57997772D01*
G37*
%TD.AperFunction*%
%TD*%
%TA.AperFunction,Conductor*%
%TO.N,/Serial_RX+*%
G36*
X163241127Y-90584230D02*
G01*
X163244554Y-90592503D01*
X163244098Y-90595737D01*
X162885234Y-91843285D01*
X162879654Y-91850289D01*
X162871722Y-91851529D01*
X162117676Y-91702517D01*
X162110224Y-91697551D01*
X162108468Y-91693319D01*
X161958444Y-90938120D01*
X161960193Y-90929340D01*
X161966516Y-90924649D01*
X163096732Y-90581308D01*
X163100133Y-90580803D01*
X163232854Y-90580803D01*
X163241127Y-90584230D01*
G37*
%TD.AperFunction*%
%TD*%
%TA.AperFunction,Conductor*%
%TO.N,/H2{slash}B_RX-*%
G36*
X159993021Y-54997773D02*
G01*
X160000472Y-55002741D01*
X160002229Y-55006981D01*
X160151589Y-55762026D01*
X160149832Y-55770806D01*
X160143664Y-55775443D01*
X158956970Y-56153723D01*
X158948047Y-56152971D01*
X158945144Y-56150849D01*
X158849153Y-56054858D01*
X158845726Y-56046585D01*
X158846277Y-56043038D01*
X159224560Y-54856336D01*
X159230336Y-54849496D01*
X159237974Y-54848413D01*
X159993021Y-54997773D01*
G37*
%TD.AperFunction*%
%TD*%
%TA.AperFunction,Conductor*%
%TO.N,/H2{slash}B_RX-*%
G36*
X155685855Y-87295526D02*
G01*
X156539692Y-88038548D01*
X156543683Y-88046564D01*
X156541747Y-88053862D01*
X156115047Y-88694187D01*
X156107608Y-88699171D01*
X156103020Y-88699173D01*
X155349235Y-88548683D01*
X155341793Y-88543702D01*
X155340052Y-88534922D01*
X155570854Y-87397877D01*
X155574044Y-87391936D01*
X155669902Y-87296078D01*
X155678174Y-87292652D01*
X155685855Y-87295526D01*
G37*
%TD.AperFunction*%
%TD*%
%TA.AperFunction,Conductor*%
%TO.N,+5V_MCI*%
G36*
X146123261Y-90581308D02*
G01*
X147253474Y-90924648D01*
X147260393Y-90930332D01*
X147261548Y-90938123D01*
X147111524Y-91693319D01*
X147106551Y-91700766D01*
X147102316Y-91702517D01*
X146348270Y-91851529D01*
X146339490Y-91849771D01*
X146334758Y-91843285D01*
X145975895Y-90595737D01*
X145976901Y-90586839D01*
X145983905Y-90581259D01*
X145987139Y-90580803D01*
X146119860Y-90580803D01*
X146123261Y-90581308D01*
G37*
%TD.AperFunction*%
%TD*%
%TA.AperFunction,Conductor*%
%TO.N,+5V_MCI*%
G36*
X151767238Y-57850874D02*
G01*
X151772204Y-57858326D01*
X151772425Y-57860469D01*
X151787279Y-59252760D01*
X151783941Y-59261069D01*
X151775705Y-59264584D01*
X151775580Y-59264585D01*
X151640493Y-59264585D01*
X151634719Y-59263061D01*
X150573487Y-58660905D01*
X150567983Y-58653842D01*
X150569085Y-58644955D01*
X150569509Y-58644265D01*
X150997309Y-58003040D01*
X151004745Y-57998063D01*
X151758459Y-57849116D01*
X151767238Y-57850874D01*
G37*
%TD.AperFunction*%
%TD*%
%TA.AperFunction,Conductor*%
%TO.N,/H1{slash}A_RX-*%
G36*
X156993022Y-54997773D02*
G01*
X157000473Y-55002741D01*
X157002230Y-55006981D01*
X157151590Y-55762026D01*
X157149833Y-55770806D01*
X157143665Y-55775443D01*
X155956971Y-56153723D01*
X155948048Y-56152971D01*
X155945145Y-56150849D01*
X155849154Y-56054858D01*
X155845727Y-56046585D01*
X155846278Y-56043038D01*
X156224561Y-54856336D01*
X156230337Y-54849496D01*
X156237975Y-54848413D01*
X156993022Y-54997773D01*
G37*
%TD.AperFunction*%
%TD*%
%TA.AperFunction,Conductor*%
%TO.N,/H1{slash}A_RX-*%
G36*
X153076731Y-87143757D02*
G01*
X153078426Y-87145904D01*
X153758804Y-88252958D01*
X153760216Y-88261801D01*
X153755346Y-88268805D01*
X153116507Y-88696640D01*
X153107727Y-88698397D01*
X153103487Y-88696640D01*
X152463297Y-88267901D01*
X152458329Y-88260450D01*
X152459013Y-88253666D01*
X152921994Y-87147513D01*
X152928350Y-87141204D01*
X152932787Y-87140330D01*
X153068458Y-87140330D01*
X153076731Y-87143757D01*
G37*
%TD.AperFunction*%
%TD*%
%TA.AperFunction,Conductor*%
%TO.N,/Shield_MCI*%
G36*
X147355064Y-54569116D02*
G01*
X147356057Y-54569709D01*
X147996666Y-54996597D01*
X148001650Y-55004036D01*
X148001656Y-55004063D01*
X148151138Y-55759724D01*
X148149381Y-55768504D01*
X148141930Y-55773472D01*
X148140902Y-55773628D01*
X146793595Y-55917437D01*
X146785005Y-55914907D01*
X146784080Y-55914076D01*
X146688086Y-55818082D01*
X146684659Y-55809809D01*
X146686023Y-55804327D01*
X147339244Y-54573963D01*
X147346150Y-54568263D01*
X147355064Y-54569116D01*
G37*
%TD.AperFunction*%
%TD*%
%TA.AperFunction,Conductor*%
%TO.N,/Shield_MCI*%
G36*
X145161954Y-87547029D02*
G01*
X145164857Y-87549151D01*
X145260848Y-87645142D01*
X145264275Y-87653415D01*
X145263722Y-87656968D01*
X144885442Y-88843662D01*
X144879665Y-88850504D01*
X144872025Y-88851587D01*
X144116980Y-88702227D01*
X144109529Y-88697259D01*
X144107772Y-88693019D01*
X143958412Y-87937974D01*
X143960169Y-87929194D01*
X143966334Y-87924558D01*
X145153033Y-87546277D01*
X145161954Y-87547029D01*
G37*
%TD.AperFunction*%
%TD*%
%TA.AperFunction,Conductor*%
%TO.N,/CAN_L-out*%
G36*
X143166148Y-73153757D02*
G01*
X143168270Y-73156660D01*
X143739905Y-74263264D01*
X143740657Y-74272187D01*
X143736020Y-74278355D01*
X143096510Y-74706640D01*
X143087730Y-74708397D01*
X143083490Y-74706640D01*
X142443979Y-74278355D01*
X142439011Y-74270904D01*
X142440093Y-74263265D01*
X143011730Y-73156659D01*
X143018572Y-73150883D01*
X143022125Y-73150330D01*
X143157875Y-73150330D01*
X143166148Y-73153757D01*
G37*
%TD.AperFunction*%
%TD*%
%TA.AperFunction,Conductor*%
%TO.N,/CAN_L-out*%
G36*
X129270807Y-54800169D02*
G01*
X129275444Y-54806337D01*
X129653724Y-55993031D01*
X129652972Y-56001954D01*
X129650850Y-56004857D01*
X129554859Y-56100848D01*
X129546586Y-56104275D01*
X129543033Y-56103722D01*
X128356339Y-55725442D01*
X128349497Y-55719665D01*
X128348414Y-55712026D01*
X128497774Y-54956979D01*
X128502742Y-54949529D01*
X128506980Y-54947772D01*
X129262028Y-54798412D01*
X129270807Y-54800169D01*
G37*
%TD.AperFunction*%
%TD*%
%TA.AperFunction,Conductor*%
%TO.N,/CAN_H-out*%
G36*
X131493020Y-54947772D02*
G01*
X131500471Y-54952740D01*
X131502228Y-54956980D01*
X131651588Y-55712025D01*
X131649831Y-55720805D01*
X131643663Y-55725442D01*
X130456969Y-56103722D01*
X130448046Y-56102970D01*
X130445143Y-56100848D01*
X130349152Y-56004857D01*
X130345725Y-55996584D01*
X130346276Y-55993037D01*
X130724559Y-54806335D01*
X130730335Y-54799495D01*
X130737973Y-54798412D01*
X131493020Y-54947772D01*
G37*
%TD.AperFunction*%
%TD*%
%TA.AperFunction,Conductor*%
%TO.N,/CAN_H-out*%
G36*
X145370713Y-73361513D02*
G01*
X146516932Y-74048989D01*
X146522264Y-74056183D01*
X146520948Y-74065041D01*
X146520650Y-74065511D01*
X146093402Y-74706660D01*
X146085963Y-74711644D01*
X146085936Y-74711650D01*
X145331095Y-74860969D01*
X145322315Y-74859212D01*
X145317347Y-74851761D01*
X145317137Y-74850011D01*
X145257040Y-73468022D01*
X145260104Y-73459610D01*
X145260432Y-73459267D01*
X145356425Y-73363274D01*
X145364697Y-73359848D01*
X145370713Y-73361513D01*
G37*
%TD.AperFunction*%
%TD*%
M02*
