%TF.GenerationSoftware,KiCad,Pcbnew,9.0.3*%
%TF.CreationDate,2025-08-25T22:17:15-05:00*%
%TF.ProjectId,Moco-IOBreakoutPCB,4d6f636f-2d49-44f4-9272-65616b6f7574,rev?*%
%TF.SameCoordinates,Original*%
%TF.FileFunction,Copper,L1,Top*%
%TF.FilePolarity,Positive*%
%FSLAX46Y46*%
G04 Gerber Fmt 4.6, Leading zero omitted, Abs format (unit mm)*
G04 Created by KiCad (PCBNEW 9.0.3) date 2025-08-25 22:17:15*
%MOMM*%
%LPD*%
G01*
G04 APERTURE LIST*
%TA.AperFunction,ComponentPad*%
%ADD10C,1.574800*%
%TD*%
%TA.AperFunction,ViaPad*%
%ADD11C,0.600000*%
%TD*%
%TA.AperFunction,Conductor*%
%ADD12C,0.350000*%
%TD*%
%TA.AperFunction,Conductor*%
%ADD13C,0.150000*%
%TD*%
G04 APERTURE END LIST*
D10*
%TO.P,J3,1,Pin_1*%
%TO.N,+12V*%
X166124998Y-77650000D03*
%TO.P,J3,2,Pin_2*%
%TO.N,GND*%
X163124999Y-77650000D03*
%TO.P,J3,3,Pin_3*%
%TO.N,unconnected-(J3-Pin_3-Pad3)*%
X160125000Y-77650000D03*
%TO.P,J3,4,Pin_4*%
%TO.N,/CAN_H-in*%
X166124998Y-74650001D03*
%TO.P,J3,5,Pin_5*%
%TO.N,/CAN_L-in*%
X163124999Y-74650001D03*
%TO.P,J3,6,Pin_6*%
%TO.N,unconnected-(J3-Pin_6-Pad6)*%
X160125000Y-74650001D03*
%TD*%
%TO.P,J2,1,Pin_1*%
%TO.N,/Serial_RX+*%
X162109994Y-91699999D03*
%TO.P,J2,2,Pin_2*%
%TO.N,/H3{slash}I_RX+*%
X159109995Y-91699999D03*
%TO.P,J2,3,Pin_3*%
%TO.N,/H2{slash}B_RX+*%
X156109996Y-91699999D03*
%TO.P,J2,4,Pin_4*%
%TO.N,/H1{slash}A_RX+*%
X153109997Y-91699999D03*
%TO.P,J2,5,Pin_5*%
%TO.N,+12V_MCI*%
X150109998Y-91699999D03*
%TO.P,J2,6,Pin_6*%
%TO.N,+5V_MCI*%
X147109999Y-91699999D03*
%TO.P,J2,7,Pin_7*%
%TO.N,unconnected-(J2-Pin_7-Pad7)*%
X144110000Y-91699999D03*
%TO.P,J2,8,Pin_8*%
%TO.N,/Serial_RX-*%
X162109994Y-88700000D03*
%TO.P,J2,9,Pin_9*%
%TO.N,/H3{slash}I_RX-*%
X159109995Y-88700000D03*
%TO.P,J2,10,Pin_10*%
%TO.N,/H2{slash}B_RX-*%
X156109996Y-88700000D03*
%TO.P,J2,11,Pin_11*%
%TO.N,/H1{slash}A_RX-*%
X153109997Y-88700000D03*
%TO.P,J2,12,Pin_12*%
%TO.N,GND_MCI*%
X150109998Y-88700000D03*
%TO.P,J2,13,Pin_13*%
X147109999Y-88700000D03*
%TO.P,J2,14,Pin_14*%
%TO.N,/Shield_MCI*%
X144110000Y-88700000D03*
%TD*%
%TO.P,J1,1,Pin_1*%
%TO.N,/Serial_RX+*%
X166000000Y-58000000D03*
%TO.P,J1,2,Pin_2*%
%TO.N,/H3{slash}I_RX+*%
X163000001Y-58000000D03*
%TO.P,J1,3,Pin_3*%
%TO.N,/H2{slash}B_RX+*%
X160000002Y-58000000D03*
%TO.P,J1,4,Pin_4*%
%TO.N,/H1{slash}A_RX+*%
X157000003Y-58000000D03*
%TO.P,J1,5,Pin_5*%
%TO.N,+12V_MCI*%
X154000004Y-58000000D03*
%TO.P,J1,6,Pin_6*%
%TO.N,+5V_MCI*%
X151000005Y-58000000D03*
%TO.P,J1,7,Pin_7*%
%TO.N,unconnected-(J1-Pin_7-Pad7)*%
X148000006Y-58000000D03*
%TO.P,J1,8,Pin_8*%
%TO.N,/Serial_RX-*%
X166000000Y-55000001D03*
%TO.P,J1,9,Pin_9*%
%TO.N,/H3{slash}I_RX-*%
X163000001Y-55000001D03*
%TO.P,J1,10,Pin_10*%
%TO.N,/H2{slash}B_RX-*%
X160000002Y-55000001D03*
%TO.P,J1,11,Pin_11*%
%TO.N,/H1{slash}A_RX-*%
X157000003Y-55000001D03*
%TO.P,J1,12,Pin_12*%
%TO.N,GND_MCI*%
X154000004Y-55000001D03*
%TO.P,J1,13,Pin_13*%
X151000005Y-55000001D03*
%TO.P,J1,14,Pin_14*%
%TO.N,/Shield_MCI*%
X148000006Y-55000001D03*
%TD*%
%TO.P,J4,1,Pin_1*%
%TO.N,unconnected-(J4-Pin_1-Pad1)*%
X146089999Y-77709999D03*
%TO.P,J4,2,Pin_2*%
%TO.N,unconnected-(J4-Pin_2-Pad2)*%
X143090000Y-77709999D03*
%TO.P,J4,3,Pin_3*%
%TO.N,unconnected-(J4-Pin_3-Pad3)*%
X140090001Y-77709999D03*
%TO.P,J4,4,Pin_4*%
%TO.N,/CAN_H-out*%
X146089999Y-74710000D03*
%TO.P,J4,5,Pin_5*%
%TO.N,/CAN_L-out*%
X143090000Y-74710000D03*
%TO.P,J4,6,Pin_6*%
%TO.N,unconnected-(J4-Pin_6-Pad6)*%
X140090001Y-74710000D03*
%TD*%
%TO.P,J5,1,Pin_1*%
%TO.N,+12V*%
X134500000Y-57949999D03*
%TO.P,J5,2,Pin_2*%
%TO.N,GND*%
X131500001Y-57949999D03*
%TO.P,J5,3,Pin_3*%
%TO.N,/CAN_H-in*%
X128500002Y-57949999D03*
%TO.P,J5,4,Pin_4*%
%TO.N,/CAN_L-in*%
X134500000Y-54950000D03*
%TO.P,J5,5,Pin_5*%
%TO.N,/CAN_H-out*%
X131500001Y-54950000D03*
%TO.P,J5,6,Pin_6*%
%TO.N,/CAN_L-out*%
X128500002Y-54950000D03*
%TD*%
D11*
%TO.N,GND*%
X161600000Y-78400000D03*
X144300000Y-67900000D03*
X144200000Y-70400000D03*
X145900000Y-69300000D03*
X145800000Y-72000000D03*
X148600000Y-63200000D03*
X150300000Y-62900000D03*
X150300000Y-61100000D03*
X148500000Y-61500000D03*
X150100000Y-79500000D03*
X148500000Y-81100000D03*
X150100000Y-81900000D03*
X148400000Y-83300000D03*
%TD*%
D12*
%TO.N,+12V*%
X166124998Y-78275002D02*
X166124998Y-77650000D01*
X165000000Y-79400000D02*
X166124998Y-78275002D01*
X158100000Y-79400000D02*
X165000000Y-79400000D01*
X134500000Y-57949999D02*
X136649999Y-57949999D01*
X136649999Y-57949999D02*
X158100000Y-79400000D01*
D13*
%TO.N,/CAN_H-in*%
X164592498Y-76182501D02*
X166124998Y-74650001D01*
X155520311Y-76182501D02*
X164592498Y-76182501D01*
X129563402Y-56886599D02*
X136224410Y-56886599D01*
X128500002Y-57949999D02*
X129563402Y-56886599D01*
X136224410Y-56886599D02*
X155520311Y-76182501D01*
%TO.N,/CAN_L-in*%
X160500000Y-72800000D02*
X162350001Y-74650001D01*
X152634198Y-72800000D02*
X160500000Y-72800000D01*
X134784199Y-54950000D02*
X152634198Y-72800000D01*
X134500000Y-54950000D02*
X134784199Y-54950000D01*
X162350001Y-74650001D02*
X163124999Y-74650001D01*
%TD*%
%TA.AperFunction,Conductor*%
%TO.N,GND*%
G36*
X162005435Y-76777686D02*
G01*
X162051190Y-76830490D01*
X162061134Y-76899648D01*
X162038715Y-76954886D01*
X162023915Y-76975255D01*
X161931920Y-77155807D01*
X161869298Y-77348536D01*
X161837599Y-77548679D01*
X161837599Y-77751320D01*
X161869298Y-77951463D01*
X161931920Y-78144192D01*
X162023915Y-78324744D01*
X162054544Y-78366899D01*
X162054544Y-78366900D01*
X162614764Y-77806679D01*
X162627949Y-77855885D01*
X162698173Y-77977515D01*
X162797484Y-78076826D01*
X162919114Y-78147050D01*
X162968318Y-78160234D01*
X162440370Y-78688181D01*
X162379047Y-78721666D01*
X162352689Y-78724500D01*
X161171227Y-78724500D01*
X161104188Y-78704815D01*
X161058433Y-78652011D01*
X161048489Y-78582853D01*
X161077514Y-78519297D01*
X161083546Y-78512819D01*
X161107355Y-78489010D01*
X161107357Y-78489006D01*
X161107360Y-78489004D01*
X161196073Y-78366899D01*
X161226510Y-78325006D01*
X161318543Y-78144382D01*
X161381187Y-77951584D01*
X161412900Y-77751360D01*
X161412900Y-77548640D01*
X161381187Y-77348416D01*
X161318543Y-77155618D01*
X161226510Y-76974994D01*
X161226508Y-76974990D01*
X161211901Y-76954885D01*
X161188422Y-76889078D01*
X161204249Y-76821024D01*
X161254355Y-76772330D01*
X161312220Y-76758001D01*
X161938396Y-76758001D01*
X162005435Y-76777686D01*
G37*
%TD.AperFunction*%
%TA.AperFunction,Conductor*%
G36*
X177933866Y-51030760D02*
G01*
X177934108Y-51030825D01*
X177996387Y-51030825D01*
X177996401Y-51030829D01*
X178003744Y-51031051D01*
X178293794Y-51048596D01*
X178308656Y-51050400D01*
X178590799Y-51102105D01*
X178605324Y-51105686D01*
X178879177Y-51191022D01*
X178893169Y-51196329D01*
X179020024Y-51253423D01*
X179154727Y-51314048D01*
X179167978Y-51321001D01*
X179413457Y-51469400D01*
X179425768Y-51477898D01*
X179586849Y-51604097D01*
X179651559Y-51654794D01*
X179662768Y-51664724D01*
X179865588Y-51867547D01*
X179875517Y-51878755D01*
X180052411Y-52104545D01*
X180060917Y-52116869D01*
X180209300Y-52362328D01*
X180216259Y-52375587D01*
X180333974Y-52637145D01*
X180339284Y-52651145D01*
X180424618Y-52924996D01*
X180428201Y-52939535D01*
X180479900Y-53221661D01*
X180481705Y-53236526D01*
X180499273Y-53526999D01*
X180499499Y-53534483D01*
X180499499Y-53566656D01*
X180499499Y-53596213D01*
X180499499Y-53596215D01*
X180499500Y-53606207D01*
X180499500Y-61496249D01*
X180499274Y-61503736D01*
X180481728Y-61793794D01*
X180479923Y-61808659D01*
X180428219Y-62090798D01*
X180424635Y-62105336D01*
X180339306Y-62379167D01*
X180333997Y-62393168D01*
X180216275Y-62654736D01*
X180209316Y-62667995D01*
X180060928Y-62913459D01*
X180052422Y-62925782D01*
X179875526Y-63151573D01*
X179865596Y-63162781D01*
X179662781Y-63365596D01*
X179651573Y-63375526D01*
X179425782Y-63552422D01*
X179413459Y-63560928D01*
X179167995Y-63709316D01*
X179154736Y-63716275D01*
X178893168Y-63833997D01*
X178879167Y-63839306D01*
X178605336Y-63924635D01*
X178590798Y-63928219D01*
X178308659Y-63979923D01*
X178293794Y-63981728D01*
X178003736Y-63999274D01*
X177996249Y-63999500D01*
X175565892Y-63999500D01*
X175500000Y-63999500D01*
X175328031Y-63999500D01*
X175249966Y-64007188D01*
X174985750Y-64033210D01*
X174648427Y-64100308D01*
X174319293Y-64200150D01*
X174001535Y-64331770D01*
X174001530Y-64331772D01*
X173698224Y-64493893D01*
X173698206Y-64493904D01*
X173412248Y-64684975D01*
X173412234Y-64684985D01*
X173146367Y-64903176D01*
X172903176Y-65146367D01*
X172684985Y-65412234D01*
X172684975Y-65412248D01*
X172493904Y-65698206D01*
X172493893Y-65698224D01*
X172331772Y-66001530D01*
X172331770Y-66001535D01*
X172200150Y-66319293D01*
X172100308Y-66648427D01*
X172033210Y-66985750D01*
X172014076Y-67180035D01*
X172001340Y-67309356D01*
X171999500Y-67328034D01*
X171999500Y-92996249D01*
X171999274Y-93003736D01*
X171981728Y-93293794D01*
X171979923Y-93308659D01*
X171928219Y-93590798D01*
X171924635Y-93605336D01*
X171839306Y-93879167D01*
X171833997Y-93893168D01*
X171716275Y-94154736D01*
X171709316Y-94167995D01*
X171560928Y-94413459D01*
X171552422Y-94425782D01*
X171375526Y-94651573D01*
X171365596Y-94662781D01*
X171162781Y-94865596D01*
X171151573Y-94875526D01*
X170925782Y-95052422D01*
X170913459Y-95060928D01*
X170667995Y-95209316D01*
X170654736Y-95216275D01*
X170393168Y-95333997D01*
X170379167Y-95339306D01*
X170105336Y-95424635D01*
X170090798Y-95428219D01*
X169808659Y-95479923D01*
X169793793Y-95481728D01*
X169503772Y-95499270D01*
X169496215Y-95499496D01*
X137072849Y-95480860D01*
X137072849Y-95480859D01*
X137064705Y-95480854D01*
X137064575Y-95480820D01*
X137002375Y-95480820D01*
X137002366Y-95480817D01*
X136994959Y-95480594D01*
X136974234Y-95479340D01*
X136704888Y-95463046D01*
X136690024Y-95461241D01*
X136407889Y-95409537D01*
X136393350Y-95405953D01*
X136119510Y-95320620D01*
X136105509Y-95315310D01*
X135843951Y-95197591D01*
X135830693Y-95190633D01*
X135585226Y-95042242D01*
X135572903Y-95033736D01*
X135347112Y-94856840D01*
X135335904Y-94846910D01*
X135133089Y-94644095D01*
X135123159Y-94632887D01*
X135017844Y-94498462D01*
X134946259Y-94407090D01*
X134937761Y-94394779D01*
X134789365Y-94149305D01*
X134782408Y-94136048D01*
X134664686Y-93874483D01*
X134659381Y-93860496D01*
X134574044Y-93586642D01*
X134570462Y-93572110D01*
X134556435Y-93495571D01*
X134518757Y-93289974D01*
X134516953Y-93275112D01*
X134499406Y-92985052D01*
X134499180Y-92977564D01*
X134499180Y-91598639D01*
X142822100Y-91598639D01*
X142822100Y-91801358D01*
X142853812Y-92001579D01*
X142916458Y-92194383D01*
X143008492Y-92375008D01*
X143127639Y-92539003D01*
X143270995Y-92682359D01*
X143424456Y-92793853D01*
X143434994Y-92801509D01*
X143615618Y-92893542D01*
X143808416Y-92956186D01*
X144008640Y-92987899D01*
X144008641Y-92987899D01*
X144211359Y-92987899D01*
X144211360Y-92987899D01*
X144411584Y-92956186D01*
X144604382Y-92893542D01*
X144785006Y-92801509D01*
X144877085Y-92734609D01*
X144949004Y-92682359D01*
X144949006Y-92682356D01*
X144949010Y-92682354D01*
X145092355Y-92539009D01*
X145092357Y-92539005D01*
X145092360Y-92539003D01*
X145144610Y-92467084D01*
X145211510Y-92375005D01*
X145303543Y-92194381D01*
X145366187Y-92001583D01*
X145397900Y-91801359D01*
X145397900Y-91598639D01*
X145822099Y-91598639D01*
X145822099Y-91801358D01*
X145853811Y-92001579D01*
X145916457Y-92194383D01*
X146008491Y-92375008D01*
X146127638Y-92539003D01*
X146270994Y-92682359D01*
X146424455Y-92793853D01*
X146434993Y-92801509D01*
X146615617Y-92893542D01*
X146808415Y-92956186D01*
X147008639Y-92987899D01*
X147008640Y-92987899D01*
X147211358Y-92987899D01*
X147211359Y-92987899D01*
X147411583Y-92956186D01*
X147604381Y-92893542D01*
X147785005Y-92801509D01*
X147877084Y-92734609D01*
X147949003Y-92682359D01*
X147949005Y-92682356D01*
X147949009Y-92682354D01*
X148092354Y-92539009D01*
X148092356Y-92539005D01*
X148092359Y-92539003D01*
X148144609Y-92467084D01*
X148211509Y-92375005D01*
X148303542Y-92194381D01*
X148366186Y-92001583D01*
X148397899Y-91801359D01*
X148397899Y-91598639D01*
X148822098Y-91598639D01*
X148822098Y-91801358D01*
X148853810Y-92001579D01*
X148916456Y-92194383D01*
X149008490Y-92375008D01*
X149127637Y-92539003D01*
X149270993Y-92682359D01*
X149424454Y-92793853D01*
X149434992Y-92801509D01*
X149615616Y-92893542D01*
X149808414Y-92956186D01*
X150008638Y-92987899D01*
X150008639Y-92987899D01*
X150211357Y-92987899D01*
X150211358Y-92987899D01*
X150411582Y-92956186D01*
X150604380Y-92893542D01*
X150785004Y-92801509D01*
X150877083Y-92734609D01*
X150949002Y-92682359D01*
X150949004Y-92682356D01*
X150949008Y-92682354D01*
X151092353Y-92539009D01*
X151092355Y-92539005D01*
X151092358Y-92539003D01*
X151144608Y-92467084D01*
X151211508Y-92375005D01*
X151303541Y-92194381D01*
X151366185Y-92001583D01*
X151397898Y-91801359D01*
X151397898Y-91598639D01*
X151822097Y-91598639D01*
X151822097Y-91801358D01*
X151853809Y-92001579D01*
X151916455Y-92194383D01*
X152008489Y-92375008D01*
X152127636Y-92539003D01*
X152270992Y-92682359D01*
X152424453Y-92793853D01*
X152434991Y-92801509D01*
X152615615Y-92893542D01*
X152808413Y-92956186D01*
X153008637Y-92987899D01*
X153008638Y-92987899D01*
X153211356Y-92987899D01*
X153211357Y-92987899D01*
X153411581Y-92956186D01*
X153604379Y-92893542D01*
X153785003Y-92801509D01*
X153877082Y-92734609D01*
X153949001Y-92682359D01*
X153949003Y-92682356D01*
X153949007Y-92682354D01*
X154092352Y-92539009D01*
X154092354Y-92539005D01*
X154092357Y-92539003D01*
X154144607Y-92467084D01*
X154211507Y-92375005D01*
X154303540Y-92194381D01*
X154366184Y-92001583D01*
X154397897Y-91801359D01*
X154397897Y-91598639D01*
X154822096Y-91598639D01*
X154822096Y-91801358D01*
X154853808Y-92001579D01*
X154916454Y-92194383D01*
X155008488Y-92375008D01*
X155127635Y-92539003D01*
X155270991Y-92682359D01*
X155424452Y-92793853D01*
X155434990Y-92801509D01*
X155615614Y-92893542D01*
X155808412Y-92956186D01*
X156008636Y-92987899D01*
X156008637Y-92987899D01*
X156211355Y-92987899D01*
X156211356Y-92987899D01*
X156411580Y-92956186D01*
X156604378Y-92893542D01*
X156785002Y-92801509D01*
X156877081Y-92734609D01*
X156949000Y-92682359D01*
X156949002Y-92682356D01*
X156949006Y-92682354D01*
X157092351Y-92539009D01*
X157092353Y-92539005D01*
X157092356Y-92539003D01*
X157144606Y-92467084D01*
X157211506Y-92375005D01*
X157303539Y-92194381D01*
X157366183Y-92001583D01*
X157397896Y-91801359D01*
X157397896Y-91598639D01*
X157822095Y-91598639D01*
X157822095Y-91801358D01*
X157853807Y-92001579D01*
X157916453Y-92194383D01*
X158008487Y-92375008D01*
X158127634Y-92539003D01*
X158270990Y-92682359D01*
X158424451Y-92793853D01*
X158434989Y-92801509D01*
X158615613Y-92893542D01*
X158808411Y-92956186D01*
X159008635Y-92987899D01*
X159008636Y-92987899D01*
X159211354Y-92987899D01*
X159211355Y-92987899D01*
X159411579Y-92956186D01*
X159604377Y-92893542D01*
X159785001Y-92801509D01*
X159877080Y-92734609D01*
X159948999Y-92682359D01*
X159949001Y-92682356D01*
X159949005Y-92682354D01*
X160092350Y-92539009D01*
X160092352Y-92539005D01*
X160092355Y-92539003D01*
X160144605Y-92467084D01*
X160211505Y-92375005D01*
X160303538Y-92194381D01*
X160366182Y-92001583D01*
X160397895Y-91801359D01*
X160397895Y-91598639D01*
X160822094Y-91598639D01*
X160822094Y-91801358D01*
X160853806Y-92001579D01*
X160916452Y-92194383D01*
X161008486Y-92375008D01*
X161127633Y-92539003D01*
X161270989Y-92682359D01*
X161424450Y-92793853D01*
X161434988Y-92801509D01*
X161615612Y-92893542D01*
X161808410Y-92956186D01*
X162008634Y-92987899D01*
X162008635Y-92987899D01*
X162211353Y-92987899D01*
X162211354Y-92987899D01*
X162411578Y-92956186D01*
X162604376Y-92893542D01*
X162785000Y-92801509D01*
X162877079Y-92734609D01*
X162948998Y-92682359D01*
X162949000Y-92682356D01*
X162949004Y-92682354D01*
X163092349Y-92539009D01*
X163092351Y-92539005D01*
X163092354Y-92539003D01*
X163144604Y-92467084D01*
X163211504Y-92375005D01*
X163303537Y-92194381D01*
X163366181Y-92001583D01*
X163397894Y-91801359D01*
X163397894Y-91598639D01*
X163366181Y-91398415D01*
X163303537Y-91205617D01*
X163211504Y-91024993D01*
X163203848Y-91014455D01*
X163092354Y-90860994D01*
X162948998Y-90717638D01*
X162785003Y-90598491D01*
X162785002Y-90598490D01*
X162785000Y-90598489D01*
X162604376Y-90506456D01*
X162411578Y-90443812D01*
X162411576Y-90443811D01*
X162411574Y-90443811D01*
X162271776Y-90421669D01*
X162211354Y-90412099D01*
X162008634Y-90412099D01*
X161962218Y-90419450D01*
X161808413Y-90443811D01*
X161615609Y-90506457D01*
X161434984Y-90598491D01*
X161270989Y-90717638D01*
X161127633Y-90860994D01*
X161008486Y-91024989D01*
X160916452Y-91205614D01*
X160853806Y-91398418D01*
X160822094Y-91598639D01*
X160397895Y-91598639D01*
X160366182Y-91398415D01*
X160303538Y-91205617D01*
X160211505Y-91024993D01*
X160203849Y-91014455D01*
X160092355Y-90860994D01*
X159948999Y-90717638D01*
X159785004Y-90598491D01*
X159785003Y-90598490D01*
X159785001Y-90598489D01*
X159604377Y-90506456D01*
X159411579Y-90443812D01*
X159411577Y-90443811D01*
X159411575Y-90443811D01*
X159271777Y-90421669D01*
X159211355Y-90412099D01*
X159008635Y-90412099D01*
X158962219Y-90419450D01*
X158808414Y-90443811D01*
X158615610Y-90506457D01*
X158434985Y-90598491D01*
X158270990Y-90717638D01*
X158127634Y-90860994D01*
X158008487Y-91024989D01*
X157916453Y-91205614D01*
X157853807Y-91398418D01*
X157822095Y-91598639D01*
X157397896Y-91598639D01*
X157366183Y-91398415D01*
X157303539Y-91205617D01*
X157211506Y-91024993D01*
X157203850Y-91014455D01*
X157092356Y-90860994D01*
X156949000Y-90717638D01*
X156785005Y-90598491D01*
X156785004Y-90598490D01*
X156785002Y-90598489D01*
X156604378Y-90506456D01*
X156411580Y-90443812D01*
X156411578Y-90443811D01*
X156411576Y-90443811D01*
X156271778Y-90421669D01*
X156211356Y-90412099D01*
X156008636Y-90412099D01*
X155962220Y-90419450D01*
X155808415Y-90443811D01*
X155615611Y-90506457D01*
X155434986Y-90598491D01*
X155270991Y-90717638D01*
X155127635Y-90860994D01*
X155008488Y-91024989D01*
X154916454Y-91205614D01*
X154853808Y-91398418D01*
X154822096Y-91598639D01*
X154397897Y-91598639D01*
X154366184Y-91398415D01*
X154303540Y-91205617D01*
X154211507Y-91024993D01*
X154203851Y-91014455D01*
X154092357Y-90860994D01*
X153949001Y-90717638D01*
X153785006Y-90598491D01*
X153785005Y-90598490D01*
X153785003Y-90598489D01*
X153604379Y-90506456D01*
X153411581Y-90443812D01*
X153411579Y-90443811D01*
X153411577Y-90443811D01*
X153271779Y-90421669D01*
X153211357Y-90412099D01*
X153008637Y-90412099D01*
X152962221Y-90419450D01*
X152808416Y-90443811D01*
X152615612Y-90506457D01*
X152434987Y-90598491D01*
X152270992Y-90717638D01*
X152127636Y-90860994D01*
X152008489Y-91024989D01*
X151916455Y-91205614D01*
X151853809Y-91398418D01*
X151822097Y-91598639D01*
X151397898Y-91598639D01*
X151366185Y-91398415D01*
X151303541Y-91205617D01*
X151211508Y-91024993D01*
X151203852Y-91014455D01*
X151092358Y-90860994D01*
X150949002Y-90717638D01*
X150785007Y-90598491D01*
X150785006Y-90598490D01*
X150785004Y-90598489D01*
X150604380Y-90506456D01*
X150411582Y-90443812D01*
X150411580Y-90443811D01*
X150411578Y-90443811D01*
X150271780Y-90421669D01*
X150211358Y-90412099D01*
X150008638Y-90412099D01*
X149962222Y-90419450D01*
X149808417Y-90443811D01*
X149615613Y-90506457D01*
X149434988Y-90598491D01*
X149270993Y-90717638D01*
X149127637Y-90860994D01*
X149008490Y-91024989D01*
X148916456Y-91205614D01*
X148853810Y-91398418D01*
X148822098Y-91598639D01*
X148397899Y-91598639D01*
X148366186Y-91398415D01*
X148303542Y-91205617D01*
X148211509Y-91024993D01*
X148203853Y-91014455D01*
X148092359Y-90860994D01*
X147949003Y-90717638D01*
X147785008Y-90598491D01*
X147785007Y-90598490D01*
X147785005Y-90598489D01*
X147604381Y-90506456D01*
X147411583Y-90443812D01*
X147411581Y-90443811D01*
X147411579Y-90443811D01*
X147271781Y-90421669D01*
X147211359Y-90412099D01*
X147008639Y-90412099D01*
X146962223Y-90419450D01*
X146808418Y-90443811D01*
X146615614Y-90506457D01*
X146434989Y-90598491D01*
X146270994Y-90717638D01*
X146127638Y-90860994D01*
X146008491Y-91024989D01*
X145916457Y-91205614D01*
X145853811Y-91398418D01*
X145822099Y-91598639D01*
X145397900Y-91598639D01*
X145366187Y-91398415D01*
X145303543Y-91205617D01*
X145211510Y-91024993D01*
X145203854Y-91014455D01*
X145092360Y-90860994D01*
X144949004Y-90717638D01*
X144785009Y-90598491D01*
X144785008Y-90598490D01*
X144785006Y-90598489D01*
X144604382Y-90506456D01*
X144411584Y-90443812D01*
X144411582Y-90443811D01*
X144411580Y-90443811D01*
X144271782Y-90421669D01*
X144211360Y-90412099D01*
X144008640Y-90412099D01*
X143962224Y-90419450D01*
X143808419Y-90443811D01*
X143615615Y-90506457D01*
X143434990Y-90598491D01*
X143270995Y-90717638D01*
X143127639Y-90860994D01*
X143008492Y-91024989D01*
X142916458Y-91205614D01*
X142853812Y-91398418D01*
X142822100Y-91598639D01*
X134499180Y-91598639D01*
X134499180Y-88585326D01*
X139652998Y-88585326D01*
X139652998Y-88814673D01*
X139688873Y-89041182D01*
X139759744Y-89259298D01*
X139818703Y-89375009D01*
X139863860Y-89463634D01*
X139998661Y-89649172D01*
X140160826Y-89811337D01*
X140346364Y-89946138D01*
X140428326Y-89987900D01*
X140550699Y-90050253D01*
X140550701Y-90050253D01*
X140550704Y-90050255D01*
X140667617Y-90088242D01*
X140768815Y-90121124D01*
X140995325Y-90157000D01*
X140995330Y-90157000D01*
X141224671Y-90157000D01*
X141451180Y-90121124D01*
X141669292Y-90050255D01*
X141873632Y-89946138D01*
X142059170Y-89811337D01*
X142221335Y-89649172D01*
X142356136Y-89463634D01*
X142460253Y-89259294D01*
X142531122Y-89041182D01*
X142537394Y-89001580D01*
X142566998Y-88814673D01*
X142566998Y-88598640D01*
X142822100Y-88598640D01*
X142822100Y-88801360D01*
X142853813Y-89001584D01*
X142916457Y-89194382D01*
X142949531Y-89259294D01*
X143008492Y-89375009D01*
X143127639Y-89539004D01*
X143270995Y-89682360D01*
X143424456Y-89793854D01*
X143434994Y-89801510D01*
X143615618Y-89893543D01*
X143808416Y-89956187D01*
X144008640Y-89987900D01*
X144008641Y-89987900D01*
X144211359Y-89987900D01*
X144211360Y-89987900D01*
X144411584Y-89956187D01*
X144604382Y-89893543D01*
X144785006Y-89801510D01*
X144877085Y-89734610D01*
X144949004Y-89682360D01*
X144949006Y-89682357D01*
X144949010Y-89682355D01*
X145092355Y-89539010D01*
X145092357Y-89539006D01*
X145092360Y-89539004D01*
X145147118Y-89463634D01*
X145211510Y-89375006D01*
X145303543Y-89194382D01*
X145366187Y-89001584D01*
X145397900Y-88801360D01*
X145397900Y-88598640D01*
X145822099Y-88598640D01*
X145822099Y-88801360D01*
X145853812Y-89001584D01*
X145916456Y-89194382D01*
X145949530Y-89259294D01*
X146008491Y-89375009D01*
X146127638Y-89539004D01*
X146270994Y-89682360D01*
X146424455Y-89793854D01*
X146434993Y-89801510D01*
X146615617Y-89893543D01*
X146808415Y-89956187D01*
X147008639Y-89987900D01*
X147008640Y-89987900D01*
X147211358Y-89987900D01*
X147211359Y-89987900D01*
X147411583Y-89956187D01*
X147604381Y-89893543D01*
X147785005Y-89801510D01*
X147877084Y-89734610D01*
X147949003Y-89682360D01*
X147949005Y-89682357D01*
X147949009Y-89682355D01*
X148092354Y-89539010D01*
X148092356Y-89539006D01*
X148092359Y-89539004D01*
X148147117Y-89463634D01*
X148211509Y-89375006D01*
X148303542Y-89194382D01*
X148366186Y-89001584D01*
X148397899Y-88801360D01*
X148397899Y-88598640D01*
X148822098Y-88598640D01*
X148822098Y-88801360D01*
X148853811Y-89001584D01*
X148916455Y-89194382D01*
X148949529Y-89259294D01*
X149008490Y-89375009D01*
X149127637Y-89539004D01*
X149270993Y-89682360D01*
X149424454Y-89793854D01*
X149434992Y-89801510D01*
X149615616Y-89893543D01*
X149808414Y-89956187D01*
X150008638Y-89987900D01*
X150008639Y-89987900D01*
X150211357Y-89987900D01*
X150211358Y-89987900D01*
X150411582Y-89956187D01*
X150604380Y-89893543D01*
X150785004Y-89801510D01*
X150877083Y-89734610D01*
X150949002Y-89682360D01*
X150949004Y-89682357D01*
X150949008Y-89682355D01*
X151092353Y-89539010D01*
X151092355Y-89539006D01*
X151092358Y-89539004D01*
X151147116Y-89463634D01*
X151211508Y-89375006D01*
X151303541Y-89194382D01*
X151366185Y-89001584D01*
X151397898Y-88801360D01*
X151397898Y-88598640D01*
X151822097Y-88598640D01*
X151822097Y-88801360D01*
X151853810Y-89001584D01*
X151916454Y-89194382D01*
X151949528Y-89259294D01*
X152008489Y-89375009D01*
X152127636Y-89539004D01*
X152270992Y-89682360D01*
X152424453Y-89793854D01*
X152434991Y-89801510D01*
X152615615Y-89893543D01*
X152808413Y-89956187D01*
X153008637Y-89987900D01*
X153008638Y-89987900D01*
X153211356Y-89987900D01*
X153211357Y-89987900D01*
X153411581Y-89956187D01*
X153604379Y-89893543D01*
X153785003Y-89801510D01*
X153877082Y-89734610D01*
X153949001Y-89682360D01*
X153949003Y-89682357D01*
X153949007Y-89682355D01*
X154092352Y-89539010D01*
X154092354Y-89539006D01*
X154092357Y-89539004D01*
X154147115Y-89463634D01*
X154211507Y-89375006D01*
X154303540Y-89194382D01*
X154366184Y-89001584D01*
X154397897Y-88801360D01*
X154397897Y-88598640D01*
X154822096Y-88598640D01*
X154822096Y-88801360D01*
X154853809Y-89001584D01*
X154916453Y-89194382D01*
X154949527Y-89259294D01*
X155008488Y-89375009D01*
X155127635Y-89539004D01*
X155270991Y-89682360D01*
X155424452Y-89793854D01*
X155434990Y-89801510D01*
X155615614Y-89893543D01*
X155808412Y-89956187D01*
X156008636Y-89987900D01*
X156008637Y-89987900D01*
X156211355Y-89987900D01*
X156211356Y-89987900D01*
X156411580Y-89956187D01*
X156604378Y-89893543D01*
X156785002Y-89801510D01*
X156877081Y-89734610D01*
X156949000Y-89682360D01*
X156949002Y-89682357D01*
X156949006Y-89682355D01*
X157092351Y-89539010D01*
X157092353Y-89539006D01*
X157092356Y-89539004D01*
X157147114Y-89463634D01*
X157211506Y-89375006D01*
X157303539Y-89194382D01*
X157366183Y-89001584D01*
X157397896Y-88801360D01*
X157397896Y-88598640D01*
X157822095Y-88598640D01*
X157822095Y-88801360D01*
X157853808Y-89001584D01*
X157916452Y-89194382D01*
X157949526Y-89259294D01*
X158008487Y-89375009D01*
X158127634Y-89539004D01*
X158270990Y-89682360D01*
X158424451Y-89793854D01*
X158434989Y-89801510D01*
X158615613Y-89893543D01*
X158808411Y-89956187D01*
X159008635Y-89987900D01*
X159008636Y-89987900D01*
X159211354Y-89987900D01*
X159211355Y-89987900D01*
X159411579Y-89956187D01*
X159604377Y-89893543D01*
X159785001Y-89801510D01*
X159877080Y-89734610D01*
X159948999Y-89682360D01*
X159949001Y-89682357D01*
X159949005Y-89682355D01*
X160092350Y-89539010D01*
X160092352Y-89539006D01*
X160092355Y-89539004D01*
X160147113Y-89463634D01*
X160211505Y-89375006D01*
X160303538Y-89194382D01*
X160366182Y-89001584D01*
X160397895Y-88801360D01*
X160397895Y-88598640D01*
X160822094Y-88598640D01*
X160822094Y-88801360D01*
X160853807Y-89001584D01*
X160916451Y-89194382D01*
X160949525Y-89259294D01*
X161008486Y-89375009D01*
X161127633Y-89539004D01*
X161270989Y-89682360D01*
X161424450Y-89793854D01*
X161434988Y-89801510D01*
X161615612Y-89893543D01*
X161808410Y-89956187D01*
X162008634Y-89987900D01*
X162008635Y-89987900D01*
X162211353Y-89987900D01*
X162211354Y-89987900D01*
X162411578Y-89956187D01*
X162604376Y-89893543D01*
X162785000Y-89801510D01*
X162877079Y-89734610D01*
X162948998Y-89682360D01*
X162949000Y-89682357D01*
X162949004Y-89682355D01*
X163092349Y-89539010D01*
X163092351Y-89539006D01*
X163092354Y-89539004D01*
X163147112Y-89463634D01*
X163211504Y-89375006D01*
X163303537Y-89194382D01*
X163366181Y-89001584D01*
X163397894Y-88801360D01*
X163397894Y-88598640D01*
X163395785Y-88585326D01*
X163652996Y-88585326D01*
X163652996Y-88814673D01*
X163688871Y-89041182D01*
X163759742Y-89259298D01*
X163818701Y-89375009D01*
X163863858Y-89463634D01*
X163998659Y-89649172D01*
X164160824Y-89811337D01*
X164346362Y-89946138D01*
X164428324Y-89987900D01*
X164550697Y-90050253D01*
X164550699Y-90050253D01*
X164550702Y-90050255D01*
X164667615Y-90088242D01*
X164768813Y-90121124D01*
X164995323Y-90157000D01*
X164995328Y-90157000D01*
X165224669Y-90157000D01*
X165451178Y-90121124D01*
X165669290Y-90050255D01*
X165873630Y-89946138D01*
X166059168Y-89811337D01*
X166221333Y-89649172D01*
X166356134Y-89463634D01*
X166460251Y-89259294D01*
X166531120Y-89041182D01*
X166537392Y-89001580D01*
X166566996Y-88814673D01*
X166566996Y-88585326D01*
X166531120Y-88358817D01*
X166460249Y-88140701D01*
X166356133Y-87936365D01*
X166221333Y-87750828D01*
X166059168Y-87588663D01*
X165873630Y-87453862D01*
X165853906Y-87443812D01*
X165669294Y-87349746D01*
X165451178Y-87278875D01*
X165224669Y-87243000D01*
X165224664Y-87243000D01*
X164995328Y-87243000D01*
X164995323Y-87243000D01*
X164768813Y-87278875D01*
X164550697Y-87349746D01*
X164346361Y-87453862D01*
X164160821Y-87588665D01*
X163998661Y-87750825D01*
X163863858Y-87936365D01*
X163759742Y-88140701D01*
X163688871Y-88358817D01*
X163652996Y-88585326D01*
X163395785Y-88585326D01*
X163366181Y-88398416D01*
X163303537Y-88205618D01*
X163211504Y-88024994D01*
X163203848Y-88014456D01*
X163092354Y-87860995D01*
X162948998Y-87717639D01*
X162785003Y-87598492D01*
X162785002Y-87598491D01*
X162785000Y-87598490D01*
X162604376Y-87506457D01*
X162411578Y-87443813D01*
X162411576Y-87443812D01*
X162411574Y-87443812D01*
X162271776Y-87421670D01*
X162211354Y-87412100D01*
X162008634Y-87412100D01*
X161962218Y-87419451D01*
X161808413Y-87443812D01*
X161615609Y-87506458D01*
X161434984Y-87598492D01*
X161270989Y-87717639D01*
X161127633Y-87860995D01*
X161008486Y-88024990D01*
X160916452Y-88205615D01*
X160853806Y-88398419D01*
X160824203Y-88585326D01*
X160822094Y-88598640D01*
X160397895Y-88598640D01*
X160366182Y-88398416D01*
X160303538Y-88205618D01*
X160211505Y-88024994D01*
X160203849Y-88014456D01*
X160092355Y-87860995D01*
X159948999Y-87717639D01*
X159785004Y-87598492D01*
X159785003Y-87598491D01*
X159785001Y-87598490D01*
X159604377Y-87506457D01*
X159411579Y-87443813D01*
X159411577Y-87443812D01*
X159411575Y-87443812D01*
X159271777Y-87421670D01*
X159211355Y-87412100D01*
X159008635Y-87412100D01*
X158962219Y-87419451D01*
X158808414Y-87443812D01*
X158615610Y-87506458D01*
X158434985Y-87598492D01*
X158270990Y-87717639D01*
X158127634Y-87860995D01*
X158008487Y-88024990D01*
X157916453Y-88205615D01*
X157853807Y-88398419D01*
X157824204Y-88585326D01*
X157822095Y-88598640D01*
X157397896Y-88598640D01*
X157366183Y-88398416D01*
X157303539Y-88205618D01*
X157211506Y-88024994D01*
X157203850Y-88014456D01*
X157092356Y-87860995D01*
X156949000Y-87717639D01*
X156785005Y-87598492D01*
X156785004Y-87598491D01*
X156785002Y-87598490D01*
X156604378Y-87506457D01*
X156411580Y-87443813D01*
X156411578Y-87443812D01*
X156411576Y-87443812D01*
X156271778Y-87421670D01*
X156211356Y-87412100D01*
X156008636Y-87412100D01*
X155962220Y-87419451D01*
X155808415Y-87443812D01*
X155615611Y-87506458D01*
X155434986Y-87598492D01*
X155270991Y-87717639D01*
X155127635Y-87860995D01*
X155008488Y-88024990D01*
X154916454Y-88205615D01*
X154853808Y-88398419D01*
X154824205Y-88585326D01*
X154822096Y-88598640D01*
X154397897Y-88598640D01*
X154366184Y-88398416D01*
X154303540Y-88205618D01*
X154211507Y-88024994D01*
X154203851Y-88014456D01*
X154092357Y-87860995D01*
X153949001Y-87717639D01*
X153785006Y-87598492D01*
X153785005Y-87598491D01*
X153785003Y-87598490D01*
X153604379Y-87506457D01*
X153411581Y-87443813D01*
X153411579Y-87443812D01*
X153411577Y-87443812D01*
X153271779Y-87421670D01*
X153211357Y-87412100D01*
X153008637Y-87412100D01*
X152962221Y-87419451D01*
X152808416Y-87443812D01*
X152615612Y-87506458D01*
X152434987Y-87598492D01*
X152270992Y-87717639D01*
X152127636Y-87860995D01*
X152008489Y-88024990D01*
X151916455Y-88205615D01*
X151853809Y-88398419D01*
X151824206Y-88585326D01*
X151822097Y-88598640D01*
X151397898Y-88598640D01*
X151366185Y-88398416D01*
X151303541Y-88205618D01*
X151211508Y-88024994D01*
X151203852Y-88014456D01*
X151092358Y-87860995D01*
X150949002Y-87717639D01*
X150785007Y-87598492D01*
X150785006Y-87598491D01*
X150785004Y-87598490D01*
X150604380Y-87506457D01*
X150411582Y-87443813D01*
X150411580Y-87443812D01*
X150411578Y-87443812D01*
X150271780Y-87421670D01*
X150211358Y-87412100D01*
X150008638Y-87412100D01*
X149962222Y-87419451D01*
X149808417Y-87443812D01*
X149615613Y-87506458D01*
X149434988Y-87598492D01*
X149270993Y-87717639D01*
X149127637Y-87860995D01*
X149008490Y-88024990D01*
X148916456Y-88205615D01*
X148853810Y-88398419D01*
X148824207Y-88585326D01*
X148822098Y-88598640D01*
X148397899Y-88598640D01*
X148366186Y-88398416D01*
X148303542Y-88205618D01*
X148211509Y-88024994D01*
X148203853Y-88014456D01*
X148092359Y-87860995D01*
X147949003Y-87717639D01*
X147785008Y-87598492D01*
X147785007Y-87598491D01*
X147785005Y-87598490D01*
X147604381Y-87506457D01*
X147411583Y-87443813D01*
X147411581Y-87443812D01*
X147411579Y-87443812D01*
X147271781Y-87421670D01*
X147211359Y-87412100D01*
X147008639Y-87412100D01*
X146962223Y-87419451D01*
X146808418Y-87443812D01*
X146615614Y-87506458D01*
X146434989Y-87598492D01*
X146270994Y-87717639D01*
X146127638Y-87860995D01*
X146008491Y-88024990D01*
X145916457Y-88205615D01*
X145853811Y-88398419D01*
X145824208Y-88585326D01*
X145822099Y-88598640D01*
X145397900Y-88598640D01*
X145366187Y-88398416D01*
X145303543Y-88205618D01*
X145211510Y-88024994D01*
X145203854Y-88014456D01*
X145092360Y-87860995D01*
X144949004Y-87717639D01*
X144785009Y-87598492D01*
X144785008Y-87598491D01*
X144785006Y-87598490D01*
X144604382Y-87506457D01*
X144411584Y-87443813D01*
X144411582Y-87443812D01*
X144411580Y-87443812D01*
X144271782Y-87421670D01*
X144211360Y-87412100D01*
X144008640Y-87412100D01*
X143962224Y-87419451D01*
X143808419Y-87443812D01*
X143615615Y-87506458D01*
X143434990Y-87598492D01*
X143270995Y-87717639D01*
X143127639Y-87860995D01*
X143008492Y-88024990D01*
X142916458Y-88205615D01*
X142853812Y-88398419D01*
X142824209Y-88585326D01*
X142822100Y-88598640D01*
X142566998Y-88598640D01*
X142566998Y-88585326D01*
X142531122Y-88358817D01*
X142460251Y-88140701D01*
X142356135Y-87936365D01*
X142221335Y-87750828D01*
X142059170Y-87588663D01*
X141873632Y-87453862D01*
X141853908Y-87443812D01*
X141669296Y-87349746D01*
X141451180Y-87278875D01*
X141224671Y-87243000D01*
X141224666Y-87243000D01*
X140995330Y-87243000D01*
X140995325Y-87243000D01*
X140768815Y-87278875D01*
X140550699Y-87349746D01*
X140346363Y-87453862D01*
X140160823Y-87588665D01*
X139998663Y-87750825D01*
X139863860Y-87936365D01*
X139759744Y-88140701D01*
X139688873Y-88358817D01*
X139652998Y-88585326D01*
X134499180Y-88585326D01*
X134499180Y-77608639D01*
X138802101Y-77608639D01*
X138802101Y-77811359D01*
X138833814Y-78011583D01*
X138896458Y-78204381D01*
X138979265Y-78366899D01*
X138988493Y-78385008D01*
X139107640Y-78549003D01*
X139250996Y-78692359D01*
X139404457Y-78803853D01*
X139414995Y-78811509D01*
X139595619Y-78903542D01*
X139788417Y-78966186D01*
X139988641Y-78997899D01*
X139988642Y-78997899D01*
X140191360Y-78997899D01*
X140191361Y-78997899D01*
X140391585Y-78966186D01*
X140584383Y-78903542D01*
X140765007Y-78811509D01*
X140857086Y-78744609D01*
X140929005Y-78692359D01*
X140929007Y-78692356D01*
X140929011Y-78692354D01*
X141072356Y-78549009D01*
X141072358Y-78549005D01*
X141072361Y-78549003D01*
X141124611Y-78477084D01*
X141191511Y-78385005D01*
X141283544Y-78204381D01*
X141346188Y-78011583D01*
X141377901Y-77811359D01*
X141377901Y-77608639D01*
X141802100Y-77608639D01*
X141802100Y-77811359D01*
X141833813Y-78011583D01*
X141896457Y-78204381D01*
X141979264Y-78366899D01*
X141988492Y-78385008D01*
X142107639Y-78549003D01*
X142250995Y-78692359D01*
X142404456Y-78803853D01*
X142414994Y-78811509D01*
X142595618Y-78903542D01*
X142788416Y-78966186D01*
X142988640Y-78997899D01*
X142988641Y-78997899D01*
X143191359Y-78997899D01*
X143191360Y-78997899D01*
X143391584Y-78966186D01*
X143584382Y-78903542D01*
X143765006Y-78811509D01*
X143857085Y-78744609D01*
X143929004Y-78692359D01*
X143929006Y-78692356D01*
X143929010Y-78692354D01*
X144072355Y-78549009D01*
X144072357Y-78549005D01*
X144072360Y-78549003D01*
X144124610Y-78477084D01*
X144191510Y-78385005D01*
X144283543Y-78204381D01*
X144346187Y-78011583D01*
X144377900Y-77811359D01*
X144377900Y-77608639D01*
X144802099Y-77608639D01*
X144802099Y-77811359D01*
X144833812Y-78011583D01*
X144896456Y-78204381D01*
X144979263Y-78366899D01*
X144988491Y-78385008D01*
X145107638Y-78549003D01*
X145250994Y-78692359D01*
X145404455Y-78803853D01*
X145414993Y-78811509D01*
X145595617Y-78903542D01*
X145788415Y-78966186D01*
X145988639Y-78997899D01*
X145988640Y-78997899D01*
X146191358Y-78997899D01*
X146191359Y-78997899D01*
X146391583Y-78966186D01*
X146584381Y-78903542D01*
X146765005Y-78811509D01*
X146857084Y-78744609D01*
X146929003Y-78692359D01*
X146929005Y-78692356D01*
X146929009Y-78692354D01*
X147072354Y-78549009D01*
X147072356Y-78549005D01*
X147072359Y-78549003D01*
X147124609Y-78477084D01*
X147191509Y-78385005D01*
X147283542Y-78204381D01*
X147346186Y-78011583D01*
X147377899Y-77811359D01*
X147377899Y-77608639D01*
X147346186Y-77408415D01*
X147283542Y-77215617D01*
X147191509Y-77034993D01*
X147183853Y-77024455D01*
X147072359Y-76870994D01*
X146929003Y-76727638D01*
X146765008Y-76608491D01*
X146765007Y-76608490D01*
X146765005Y-76608489D01*
X146584381Y-76516456D01*
X146391583Y-76453812D01*
X146391581Y-76453811D01*
X146391579Y-76453811D01*
X146251781Y-76431669D01*
X146191359Y-76422099D01*
X145988639Y-76422099D01*
X145942223Y-76429450D01*
X145788418Y-76453811D01*
X145595614Y-76516457D01*
X145414989Y-76608491D01*
X145250994Y-76727638D01*
X145107638Y-76870994D01*
X144988491Y-77034989D01*
X144896457Y-77215614D01*
X144833811Y-77408418D01*
X144814963Y-77527419D01*
X144802099Y-77608639D01*
X144377900Y-77608639D01*
X144346187Y-77408415D01*
X144283543Y-77215617D01*
X144191510Y-77034993D01*
X144183854Y-77024455D01*
X144072360Y-76870994D01*
X143929004Y-76727638D01*
X143765009Y-76608491D01*
X143765008Y-76608490D01*
X143765006Y-76608489D01*
X143584382Y-76516456D01*
X143391584Y-76453812D01*
X143391582Y-76453811D01*
X143391580Y-76453811D01*
X143251782Y-76431669D01*
X143191360Y-76422099D01*
X142988640Y-76422099D01*
X142942224Y-76429450D01*
X142788419Y-76453811D01*
X142595615Y-76516457D01*
X142414990Y-76608491D01*
X142250995Y-76727638D01*
X142107639Y-76870994D01*
X141988492Y-77034989D01*
X141896458Y-77215614D01*
X141833812Y-77408418D01*
X141814964Y-77527419D01*
X141802100Y-77608639D01*
X141377901Y-77608639D01*
X141346188Y-77408415D01*
X141283544Y-77215617D01*
X141191511Y-77034993D01*
X141183855Y-77024455D01*
X141072361Y-76870994D01*
X140929005Y-76727638D01*
X140765010Y-76608491D01*
X140765009Y-76608490D01*
X140765007Y-76608489D01*
X140584383Y-76516456D01*
X140391585Y-76453812D01*
X140391583Y-76453811D01*
X140391581Y-76453811D01*
X140251783Y-76431669D01*
X140191361Y-76422099D01*
X139988641Y-76422099D01*
X139942225Y-76429450D01*
X139788420Y-76453811D01*
X139595616Y-76516457D01*
X139414991Y-76608491D01*
X139250996Y-76727638D01*
X139107640Y-76870994D01*
X138988493Y-77034989D01*
X138896459Y-77215614D01*
X138833813Y-77408418D01*
X138814965Y-77527419D01*
X138802101Y-77608639D01*
X134499180Y-77608639D01*
X134499180Y-74595326D01*
X135633002Y-74595326D01*
X135633002Y-74824673D01*
X135668877Y-75051182D01*
X135739748Y-75269298D01*
X135839645Y-75465354D01*
X135843864Y-75473634D01*
X135978665Y-75659172D01*
X136140830Y-75821337D01*
X136326368Y-75956138D01*
X136408330Y-75997900D01*
X136530703Y-76060253D01*
X136530705Y-76060253D01*
X136530708Y-76060255D01*
X136647621Y-76098242D01*
X136748819Y-76131124D01*
X136975329Y-76167000D01*
X136975334Y-76167000D01*
X137204675Y-76167000D01*
X137431184Y-76131124D01*
X137649296Y-76060255D01*
X137853636Y-75956138D01*
X138039174Y-75821337D01*
X138201339Y-75659172D01*
X138336140Y-75473634D01*
X138440257Y-75269294D01*
X138511126Y-75051182D01*
X138517398Y-75011580D01*
X138547002Y-74824673D01*
X138547002Y-74608640D01*
X138802101Y-74608640D01*
X138802101Y-74811359D01*
X138830582Y-74991183D01*
X138833814Y-75011584D01*
X138896458Y-75204382D01*
X138957921Y-75325010D01*
X138988493Y-75385009D01*
X139107640Y-75549004D01*
X139250996Y-75692360D01*
X139404457Y-75803854D01*
X139414995Y-75811510D01*
X139595619Y-75903543D01*
X139788417Y-75966187D01*
X139988641Y-75997900D01*
X139988642Y-75997900D01*
X140191360Y-75997900D01*
X140191361Y-75997900D01*
X140391585Y-75966187D01*
X140584383Y-75903543D01*
X140765007Y-75811510D01*
X140857086Y-75744610D01*
X140929005Y-75692360D01*
X140929007Y-75692357D01*
X140929011Y-75692355D01*
X141072356Y-75549010D01*
X141072358Y-75549006D01*
X141072361Y-75549004D01*
X141170705Y-75413643D01*
X141191511Y-75385006D01*
X141283544Y-75204382D01*
X141346188Y-75011584D01*
X141377901Y-74811360D01*
X141377901Y-74608640D01*
X141802100Y-74608640D01*
X141802100Y-74811359D01*
X141830581Y-74991183D01*
X141833813Y-75011584D01*
X141896457Y-75204382D01*
X141957920Y-75325010D01*
X141988492Y-75385009D01*
X142107639Y-75549004D01*
X142250995Y-75692360D01*
X142404456Y-75803854D01*
X142414994Y-75811510D01*
X142595618Y-75903543D01*
X142788416Y-75966187D01*
X142988640Y-75997900D01*
X142988641Y-75997900D01*
X143191359Y-75997900D01*
X143191360Y-75997900D01*
X143391584Y-75966187D01*
X143584382Y-75903543D01*
X143765006Y-75811510D01*
X143857085Y-75744610D01*
X143929004Y-75692360D01*
X143929006Y-75692357D01*
X143929010Y-75692355D01*
X144072355Y-75549010D01*
X144072357Y-75549006D01*
X144072360Y-75549004D01*
X144170704Y-75413643D01*
X144191510Y-75385006D01*
X144283543Y-75204382D01*
X144346187Y-75011584D01*
X144377900Y-74811360D01*
X144377900Y-74608640D01*
X144802099Y-74608640D01*
X144802099Y-74811359D01*
X144830580Y-74991183D01*
X144833812Y-75011584D01*
X144896456Y-75204382D01*
X144957919Y-75325010D01*
X144988491Y-75385009D01*
X145107638Y-75549004D01*
X145250994Y-75692360D01*
X145404455Y-75803854D01*
X145414993Y-75811510D01*
X145595617Y-75903543D01*
X145788415Y-75966187D01*
X145988639Y-75997900D01*
X145988640Y-75997900D01*
X146191358Y-75997900D01*
X146191359Y-75997900D01*
X146391583Y-75966187D01*
X146584381Y-75903543D01*
X146765005Y-75811510D01*
X146857084Y-75744610D01*
X146929003Y-75692360D01*
X146929005Y-75692357D01*
X146929009Y-75692355D01*
X147072354Y-75549010D01*
X147072356Y-75549006D01*
X147072359Y-75549004D01*
X147170703Y-75413643D01*
X147191509Y-75385006D01*
X147283542Y-75204382D01*
X147346186Y-75011584D01*
X147377899Y-74811360D01*
X147377899Y-74608640D01*
X147375790Y-74595326D01*
X147632998Y-74595326D01*
X147632998Y-74824673D01*
X147668873Y-75051182D01*
X147739744Y-75269298D01*
X147839641Y-75465354D01*
X147843860Y-75473634D01*
X147978661Y-75659172D01*
X148140826Y-75821337D01*
X148326364Y-75956138D01*
X148408326Y-75997900D01*
X148530699Y-76060253D01*
X148530701Y-76060253D01*
X148530704Y-76060255D01*
X148647617Y-76098242D01*
X148748815Y-76131124D01*
X148975325Y-76167000D01*
X148975330Y-76167000D01*
X149204671Y-76167000D01*
X149431180Y-76131124D01*
X149649292Y-76060255D01*
X149853632Y-75956138D01*
X150039170Y-75821337D01*
X150201335Y-75659172D01*
X150336136Y-75473634D01*
X150440253Y-75269294D01*
X150511122Y-75051182D01*
X150517394Y-75011580D01*
X150546998Y-74824673D01*
X150546998Y-74595326D01*
X150511122Y-74368817D01*
X150441848Y-74155616D01*
X150440253Y-74150706D01*
X150440251Y-74150703D01*
X150440251Y-74150701D01*
X150336135Y-73946365D01*
X150292544Y-73886367D01*
X150201335Y-73760828D01*
X150039170Y-73598663D01*
X149853632Y-73463862D01*
X149822480Y-73447989D01*
X149649296Y-73359746D01*
X149431180Y-73288875D01*
X149204671Y-73253000D01*
X149204666Y-73253000D01*
X148975330Y-73253000D01*
X148975325Y-73253000D01*
X148748815Y-73288875D01*
X148530699Y-73359746D01*
X148326363Y-73463862D01*
X148140823Y-73598665D01*
X147978663Y-73760825D01*
X147843860Y-73946365D01*
X147739744Y-74150701D01*
X147668873Y-74368817D01*
X147632998Y-74595326D01*
X147375790Y-74595326D01*
X147346186Y-74408416D01*
X147283542Y-74215618D01*
X147191509Y-74034994D01*
X147183853Y-74024456D01*
X147072359Y-73870995D01*
X146929003Y-73727639D01*
X146765008Y-73608492D01*
X146765007Y-73608491D01*
X146765005Y-73608490D01*
X146584381Y-73516457D01*
X146391583Y-73453813D01*
X146391581Y-73453812D01*
X146391579Y-73453812D01*
X146251781Y-73431670D01*
X146191359Y-73422100D01*
X145988639Y-73422100D01*
X145942223Y-73429451D01*
X145788418Y-73453812D01*
X145595614Y-73516458D01*
X145414989Y-73608492D01*
X145250994Y-73727639D01*
X145107638Y-73870995D01*
X144988491Y-74034990D01*
X144896457Y-74215615D01*
X144833811Y-74408419D01*
X144802099Y-74608640D01*
X144377900Y-74608640D01*
X144346187Y-74408416D01*
X144283543Y-74215618D01*
X144191510Y-74034994D01*
X144183854Y-74024456D01*
X144072360Y-73870995D01*
X143929004Y-73727639D01*
X143765009Y-73608492D01*
X143765008Y-73608491D01*
X143765006Y-73608490D01*
X143584382Y-73516457D01*
X143391584Y-73453813D01*
X143391582Y-73453812D01*
X143391580Y-73453812D01*
X143251782Y-73431670D01*
X143191360Y-73422100D01*
X142988640Y-73422100D01*
X142942224Y-73429451D01*
X142788419Y-73453812D01*
X142595615Y-73516458D01*
X142414990Y-73608492D01*
X142250995Y-73727639D01*
X142107639Y-73870995D01*
X141988492Y-74034990D01*
X141896458Y-74215615D01*
X141833812Y-74408419D01*
X141802100Y-74608640D01*
X141377901Y-74608640D01*
X141346188Y-74408416D01*
X141283544Y-74215618D01*
X141191511Y-74034994D01*
X141183855Y-74024456D01*
X141072361Y-73870995D01*
X140929005Y-73727639D01*
X140765010Y-73608492D01*
X140765009Y-73608491D01*
X140765007Y-73608490D01*
X140584383Y-73516457D01*
X140391585Y-73453813D01*
X140391583Y-73453812D01*
X140391581Y-73453812D01*
X140251783Y-73431670D01*
X140191361Y-73422100D01*
X139988641Y-73422100D01*
X139942225Y-73429451D01*
X139788420Y-73453812D01*
X139595616Y-73516458D01*
X139414991Y-73608492D01*
X139250996Y-73727639D01*
X139107640Y-73870995D01*
X138988493Y-74034990D01*
X138896459Y-74215615D01*
X138833813Y-74408419D01*
X138802101Y-74608640D01*
X138547002Y-74608640D01*
X138547002Y-74595326D01*
X138511126Y-74368817D01*
X138441852Y-74155616D01*
X138440257Y-74150706D01*
X138440255Y-74150703D01*
X138440255Y-74150701D01*
X138336139Y-73946365D01*
X138292548Y-73886367D01*
X138201339Y-73760828D01*
X138039174Y-73598663D01*
X137853636Y-73463862D01*
X137822484Y-73447989D01*
X137649300Y-73359746D01*
X137431184Y-73288875D01*
X137204675Y-73253000D01*
X137204670Y-73253000D01*
X136975334Y-73253000D01*
X136975329Y-73253000D01*
X136748819Y-73288875D01*
X136530703Y-73359746D01*
X136326367Y-73463862D01*
X136140827Y-73598665D01*
X135978667Y-73760825D01*
X135843864Y-73946365D01*
X135739748Y-74150701D01*
X135668877Y-74368817D01*
X135633002Y-74595326D01*
X134499180Y-74595326D01*
X134499180Y-67481317D01*
X134499182Y-67309354D01*
X134465472Y-66967072D01*
X134398374Y-66629742D01*
X134298536Y-66300614D01*
X134166917Y-65982856D01*
X134004787Y-65679529D01*
X133813706Y-65393555D01*
X133595514Y-65127687D01*
X133595513Y-65127686D01*
X133595509Y-65127681D01*
X133352318Y-64884490D01*
X133086450Y-64666298D01*
X133086449Y-64666297D01*
X133086445Y-64666294D01*
X132846697Y-64506100D01*
X132800476Y-64475216D01*
X132800473Y-64475214D01*
X132784909Y-64466895D01*
X132497144Y-64313083D01*
X132360201Y-64256359D01*
X132179387Y-64181464D01*
X132042631Y-64139980D01*
X131850258Y-64081626D01*
X131850253Y-64081625D01*
X131850250Y-64081624D01*
X131850238Y-64081621D01*
X131512933Y-64014529D01*
X131512928Y-64014528D01*
X131512925Y-64014527D01*
X131512915Y-64014526D01*
X131270261Y-63990628D01*
X131170646Y-63980818D01*
X131170643Y-63980818D01*
X131064231Y-63980818D01*
X131063927Y-63980737D01*
X131000293Y-63980818D01*
X130999507Y-63980818D01*
X130999506Y-63980819D01*
X130999500Y-63980819D01*
X130998861Y-63980819D01*
X130998677Y-63980820D01*
X130925599Y-63980820D01*
X130924127Y-63980916D01*
X116503817Y-63999494D01*
X116496170Y-63999268D01*
X116206205Y-63981728D01*
X116191340Y-63979923D01*
X115909201Y-63928219D01*
X115894663Y-63924635D01*
X115620832Y-63839306D01*
X115606831Y-63833997D01*
X115345263Y-63716275D01*
X115332004Y-63709316D01*
X115086540Y-63560928D01*
X115074217Y-63552422D01*
X114848426Y-63375526D01*
X114837218Y-63365596D01*
X114634403Y-63162781D01*
X114624473Y-63151573D01*
X114447573Y-62925776D01*
X114439075Y-62913465D01*
X114290680Y-62667989D01*
X114283727Y-62654743D01*
X114166000Y-62393163D01*
X114160693Y-62379167D01*
X114075364Y-62105336D01*
X114071780Y-62090798D01*
X114020076Y-61808659D01*
X114018271Y-61793794D01*
X114000726Y-61503736D01*
X114000500Y-61496249D01*
X114000500Y-57878711D01*
X115149500Y-57878711D01*
X115149500Y-58121288D01*
X115181161Y-58361785D01*
X115243947Y-58596104D01*
X115336773Y-58820205D01*
X115336777Y-58820214D01*
X115347629Y-58839010D01*
X115458064Y-59030289D01*
X115458066Y-59030292D01*
X115458067Y-59030293D01*
X115605733Y-59222736D01*
X115605739Y-59222743D01*
X115777256Y-59394260D01*
X115777262Y-59394265D01*
X115969711Y-59541936D01*
X116179788Y-59663224D01*
X116403900Y-59756054D01*
X116638211Y-59818838D01*
X116818586Y-59842584D01*
X116878711Y-59850500D01*
X116878712Y-59850500D01*
X117121289Y-59850500D01*
X117169388Y-59844167D01*
X117361789Y-59818838D01*
X117596100Y-59756054D01*
X117820212Y-59663224D01*
X118030289Y-59541936D01*
X118222738Y-59394265D01*
X118394265Y-59222738D01*
X118541936Y-59030289D01*
X118663224Y-58820212D01*
X118756054Y-58596100D01*
X118818838Y-58361789D01*
X118850500Y-58121288D01*
X118850500Y-57878712D01*
X118846541Y-57848639D01*
X127212102Y-57848639D01*
X127212102Y-58051358D01*
X127243795Y-58251462D01*
X127243815Y-58251583D01*
X127306459Y-58444381D01*
X127398362Y-58624750D01*
X127398494Y-58625008D01*
X127517641Y-58789003D01*
X127660997Y-58932359D01*
X127795789Y-59030289D01*
X127824996Y-59051509D01*
X128005620Y-59143542D01*
X128198418Y-59206186D01*
X128398642Y-59237899D01*
X128398643Y-59237899D01*
X128601361Y-59237899D01*
X128601362Y-59237899D01*
X128801586Y-59206186D01*
X128994384Y-59143542D01*
X129175008Y-59051509D01*
X129270191Y-58982355D01*
X129339006Y-58932359D01*
X129339008Y-58932356D01*
X129339012Y-58932354D01*
X129482357Y-58789009D01*
X129482359Y-58789005D01*
X129482362Y-58789003D01*
X129571075Y-58666898D01*
X129601512Y-58625005D01*
X129693545Y-58444381D01*
X129756189Y-58251583D01*
X129756190Y-58251571D01*
X129757329Y-58246835D01*
X129757605Y-58246901D01*
X129759284Y-58239555D01*
X129968744Y-57550056D01*
X129982930Y-57528427D01*
X129993677Y-57504896D01*
X130001782Y-57499687D01*
X130007065Y-57491633D01*
X130030691Y-57481108D01*
X130052455Y-57467122D01*
X130066680Y-57465076D01*
X130070889Y-57463202D01*
X130087390Y-57462099D01*
X130134205Y-57462099D01*
X130201244Y-57481784D01*
X130246999Y-57534588D01*
X130256943Y-57603746D01*
X130252136Y-57624418D01*
X130244301Y-57648531D01*
X130212601Y-57848678D01*
X130212601Y-58051319D01*
X130244300Y-58251462D01*
X130306922Y-58444191D01*
X130398917Y-58624743D01*
X130429546Y-58666898D01*
X130429546Y-58666899D01*
X130989766Y-58106678D01*
X131002951Y-58155884D01*
X131073175Y-58277514D01*
X131172486Y-58376825D01*
X131294116Y-58447049D01*
X131343320Y-58460233D01*
X130783100Y-59020452D01*
X130783100Y-59020453D01*
X130825255Y-59051081D01*
X131005808Y-59143077D01*
X131198537Y-59205699D01*
X131198536Y-59205699D01*
X131398681Y-59237399D01*
X131601321Y-59237399D01*
X131801464Y-59205699D01*
X131994193Y-59143077D01*
X132174748Y-59051080D01*
X132174752Y-59051078D01*
X132216900Y-59020453D01*
X132216901Y-59020453D01*
X131656681Y-58460233D01*
X131705886Y-58447049D01*
X131827516Y-58376825D01*
X131926827Y-58277514D01*
X131997051Y-58155884D01*
X132010235Y-58106679D01*
X132570455Y-58666899D01*
X132570455Y-58666898D01*
X132601080Y-58624750D01*
X132601082Y-58624746D01*
X132693079Y-58444191D01*
X132755701Y-58251462D01*
X132787401Y-58051319D01*
X132787401Y-57848678D01*
X132755700Y-57648531D01*
X132747866Y-57624418D01*
X132745871Y-57554577D01*
X132781951Y-57494744D01*
X132844651Y-57463915D01*
X132865797Y-57462099D01*
X133133680Y-57462099D01*
X133200719Y-57481784D01*
X133246474Y-57534588D01*
X133256418Y-57603746D01*
X133251613Y-57624408D01*
X133243813Y-57648415D01*
X133243812Y-57648418D01*
X133243812Y-57648420D01*
X133212100Y-57848639D01*
X133212100Y-58051358D01*
X133243793Y-58251462D01*
X133243813Y-58251583D01*
X133306457Y-58444381D01*
X133398360Y-58624750D01*
X133398492Y-58625008D01*
X133517639Y-58789003D01*
X133660995Y-58932359D01*
X133795787Y-59030289D01*
X133824994Y-59051509D01*
X134005618Y-59143542D01*
X134198416Y-59206186D01*
X134398640Y-59237899D01*
X134398641Y-59237899D01*
X134601359Y-59237899D01*
X134601360Y-59237899D01*
X134801584Y-59206186D01*
X134994382Y-59143542D01*
X135154344Y-59062035D01*
X135161864Y-59058517D01*
X135792358Y-58789009D01*
X136151530Y-58635479D01*
X136160467Y-58633648D01*
X136165333Y-58630522D01*
X136200268Y-58625499D01*
X136318836Y-58625499D01*
X136385875Y-58645184D01*
X136406517Y-58661818D01*
X157575305Y-79830606D01*
X157669394Y-79924695D01*
X157669397Y-79924697D01*
X157669398Y-79924698D01*
X157780020Y-79998613D01*
X157780023Y-79998614D01*
X157780031Y-79998620D01*
X157902964Y-80049540D01*
X157902968Y-80049540D01*
X157902969Y-80049541D01*
X158033466Y-80075500D01*
X158033469Y-80075500D01*
X165066532Y-80075500D01*
X165066533Y-80075499D01*
X165197036Y-80049541D01*
X165319969Y-79998620D01*
X165430606Y-79924695D01*
X165845109Y-79510190D01*
X165863438Y-79495082D01*
X165864776Y-79494178D01*
X165864786Y-79494173D01*
X166865860Y-78709164D01*
X166892379Y-78686859D01*
X166892389Y-78686846D01*
X166894230Y-78684998D01*
X166909248Y-78672139D01*
X166964008Y-78632355D01*
X167107353Y-78489010D01*
X167226508Y-78325006D01*
X167318541Y-78144382D01*
X167381185Y-77951584D01*
X167412898Y-77751360D01*
X167412898Y-77548640D01*
X167381185Y-77348416D01*
X167318541Y-77155618D01*
X167226508Y-76974994D01*
X167211898Y-76954885D01*
X167107358Y-76810995D01*
X166964002Y-76667639D01*
X166800007Y-76548492D01*
X166800006Y-76548491D01*
X166800004Y-76548490D01*
X166619380Y-76456457D01*
X166426582Y-76393813D01*
X166426580Y-76393812D01*
X166426578Y-76393812D01*
X166286780Y-76371670D01*
X166226358Y-76362100D01*
X166023638Y-76362100D01*
X165977222Y-76369451D01*
X165823417Y-76393812D01*
X165823414Y-76393813D01*
X165638757Y-76453812D01*
X165630613Y-76456458D01*
X165449988Y-76548492D01*
X165285993Y-76667639D01*
X165142637Y-76810995D01*
X165023490Y-76974990D01*
X164931456Y-77155615D01*
X164868810Y-77348419D01*
X164837098Y-77548640D01*
X164837098Y-77731469D01*
X164836995Y-77736531D01*
X164814636Y-78283836D01*
X164801864Y-78596429D01*
X164792806Y-78623183D01*
X164786806Y-78650782D01*
X164780701Y-78658938D01*
X164779459Y-78662609D01*
X164765658Y-78679039D01*
X164756527Y-78688172D01*
X164695207Y-78721663D01*
X164668836Y-78724500D01*
X163897308Y-78724500D01*
X163830269Y-78704815D01*
X163809627Y-78688181D01*
X163281679Y-78160234D01*
X163330884Y-78147050D01*
X163452514Y-78076826D01*
X163551825Y-77977515D01*
X163622049Y-77855885D01*
X163635233Y-77806680D01*
X164195453Y-78366900D01*
X164195453Y-78366899D01*
X164226078Y-78324751D01*
X164226080Y-78324747D01*
X164318077Y-78144192D01*
X164380699Y-77951463D01*
X164412399Y-77751320D01*
X164412399Y-77548679D01*
X164380699Y-77348536D01*
X164318077Y-77155807D01*
X164226082Y-76975255D01*
X164211283Y-76954886D01*
X164187804Y-76889079D01*
X164203630Y-76821025D01*
X164253736Y-76772331D01*
X164311602Y-76758001D01*
X164668262Y-76758001D01*
X164668264Y-76758001D01*
X164814633Y-76718782D01*
X164945863Y-76643016D01*
X165314064Y-76274813D01*
X165364080Y-76244354D01*
X166415636Y-75909152D01*
X166424350Y-75906723D01*
X166426575Y-75906189D01*
X166426582Y-75906188D01*
X166619380Y-75843544D01*
X166800004Y-75751511D01*
X166927099Y-75659172D01*
X166964002Y-75632361D01*
X166964004Y-75632358D01*
X166964008Y-75632356D01*
X167107353Y-75489011D01*
X167107355Y-75489007D01*
X167107358Y-75489005D01*
X167204488Y-75355315D01*
X167226508Y-75325007D01*
X167318541Y-75144383D01*
X167381185Y-74951585D01*
X167412898Y-74751361D01*
X167412898Y-74548641D01*
X167410789Y-74535327D01*
X167667997Y-74535327D01*
X167667997Y-74764674D01*
X167703872Y-74991183D01*
X167774743Y-75209299D01*
X167833702Y-75325010D01*
X167878859Y-75413635D01*
X168013660Y-75599173D01*
X168175825Y-75761338D01*
X168361363Y-75896139D01*
X168457903Y-75945329D01*
X168565698Y-76000254D01*
X168565700Y-76000254D01*
X168565703Y-76000256D01*
X168682616Y-76038243D01*
X168783814Y-76071125D01*
X169010324Y-76107001D01*
X169010329Y-76107001D01*
X169239670Y-76107001D01*
X169466179Y-76071125D01*
X169499633Y-76060255D01*
X169684291Y-76000256D01*
X169888631Y-75896139D01*
X170074169Y-75761338D01*
X170236334Y-75599173D01*
X170371135Y-75413635D01*
X170475252Y-75209295D01*
X170546121Y-74991183D01*
X170552393Y-74951581D01*
X170581997Y-74764674D01*
X170581997Y-74535327D01*
X170546121Y-74308818D01*
X170496342Y-74155616D01*
X170475252Y-74090707D01*
X170475250Y-74090704D01*
X170475250Y-74090702D01*
X170401706Y-73946366D01*
X170371135Y-73886367D01*
X170236334Y-73700829D01*
X170074169Y-73538664D01*
X169888631Y-73403863D01*
X169868907Y-73393813D01*
X169684295Y-73299747D01*
X169466179Y-73228876D01*
X169239670Y-73193001D01*
X169239665Y-73193001D01*
X169010329Y-73193001D01*
X169010324Y-73193001D01*
X168783814Y-73228876D01*
X168565698Y-73299747D01*
X168361362Y-73403863D01*
X168175822Y-73538666D01*
X168013662Y-73700826D01*
X167878859Y-73886366D01*
X167774743Y-74090702D01*
X167703872Y-74308818D01*
X167667997Y-74535327D01*
X167410789Y-74535327D01*
X167381185Y-74348417D01*
X167318541Y-74155619D01*
X167226508Y-73974995D01*
X167205707Y-73946365D01*
X167107358Y-73810996D01*
X166964002Y-73667640D01*
X166800007Y-73548493D01*
X166800006Y-73548492D01*
X166800004Y-73548491D01*
X166619380Y-73456458D01*
X166426582Y-73393814D01*
X166426580Y-73393813D01*
X166426578Y-73393813D01*
X166286780Y-73371671D01*
X166226358Y-73362101D01*
X166023638Y-73362101D01*
X165977222Y-73369452D01*
X165823417Y-73393813D01*
X165803658Y-73400233D01*
X165638757Y-73453813D01*
X165630613Y-73456459D01*
X165449988Y-73548493D01*
X165285993Y-73667640D01*
X165142637Y-73810996D01*
X165023490Y-73974991D01*
X164931456Y-74155614D01*
X164868807Y-74348429D01*
X164868267Y-74350678D01*
X164865839Y-74359381D01*
X164530642Y-75410915D01*
X164500181Y-75460935D01*
X164390437Y-75570681D01*
X164363508Y-75585385D01*
X164337690Y-75601978D01*
X164331490Y-75602869D01*
X164329114Y-75604167D01*
X164302755Y-75607001D01*
X164264993Y-75607001D01*
X164197954Y-75587316D01*
X164152199Y-75534512D01*
X164142255Y-75465354D01*
X164164675Y-75410116D01*
X164204489Y-75355315D01*
X164226509Y-75325007D01*
X164318542Y-75144383D01*
X164381186Y-74951585D01*
X164412899Y-74751361D01*
X164412899Y-74548641D01*
X164381186Y-74348417D01*
X164318542Y-74155619D01*
X164226509Y-73974995D01*
X164205708Y-73946365D01*
X164107359Y-73810996D01*
X163964003Y-73667640D01*
X163800008Y-73548493D01*
X163800007Y-73548492D01*
X163800005Y-73548491D01*
X163619381Y-73456458D01*
X163426583Y-73393814D01*
X163426581Y-73393813D01*
X163426579Y-73393813D01*
X163286781Y-73371671D01*
X163226359Y-73362101D01*
X163023639Y-73362101D01*
X162977223Y-73369452D01*
X162823418Y-73393813D01*
X162803659Y-73400233D01*
X162638758Y-73453813D01*
X162630614Y-73456459D01*
X162449989Y-73548493D01*
X162311164Y-73649355D01*
X162245358Y-73672835D01*
X162177304Y-73657009D01*
X162150598Y-73636718D01*
X160853367Y-72339487D01*
X160853365Y-72339485D01*
X160787750Y-72301602D01*
X160722136Y-72263719D01*
X160648950Y-72244109D01*
X160575766Y-72224500D01*
X160575765Y-72224500D01*
X152923940Y-72224500D01*
X152856901Y-72204815D01*
X152836259Y-72188181D01*
X138629528Y-57981449D01*
X138546719Y-57898640D01*
X146712106Y-57898640D01*
X146712106Y-58101359D01*
X146740006Y-58277514D01*
X146743819Y-58301584D01*
X146806463Y-58494382D01*
X146894365Y-58666899D01*
X146898498Y-58675009D01*
X147017645Y-58839004D01*
X147161001Y-58982360D01*
X147268072Y-59060150D01*
X147325000Y-59101510D01*
X147505624Y-59193543D01*
X147698422Y-59256187D01*
X147898646Y-59287900D01*
X147898647Y-59287900D01*
X148101365Y-59287900D01*
X148101366Y-59287900D01*
X148301590Y-59256187D01*
X148494388Y-59193543D01*
X148675012Y-59101510D01*
X148786580Y-59020452D01*
X148839010Y-58982360D01*
X148839012Y-58982357D01*
X148839016Y-58982355D01*
X148982361Y-58839010D01*
X148982363Y-58839006D01*
X148982366Y-58839004D01*
X149034616Y-58767085D01*
X149101516Y-58675006D01*
X149193549Y-58494382D01*
X149256193Y-58301584D01*
X149287906Y-58101360D01*
X149287906Y-57898640D01*
X149712105Y-57898640D01*
X149712105Y-58101359D01*
X149740005Y-58277514D01*
X149743818Y-58301584D01*
X149806462Y-58494382D01*
X149894364Y-58666899D01*
X149898497Y-58675009D01*
X150017644Y-58839004D01*
X150161000Y-58982360D01*
X150268071Y-59060150D01*
X150324999Y-59101510D01*
X150505623Y-59193543D01*
X150698421Y-59256187D01*
X150898645Y-59287900D01*
X150898646Y-59287900D01*
X151101364Y-59287900D01*
X151101365Y-59287900D01*
X151301589Y-59256187D01*
X151494387Y-59193543D01*
X151675011Y-59101510D01*
X151786579Y-59020452D01*
X151839009Y-58982360D01*
X151839011Y-58982357D01*
X151839015Y-58982355D01*
X151982360Y-58839010D01*
X151982362Y-58839006D01*
X151982365Y-58839004D01*
X152034615Y-58767085D01*
X152101515Y-58675006D01*
X152193548Y-58494382D01*
X152256192Y-58301584D01*
X152287905Y-58101360D01*
X152287905Y-57898640D01*
X152712104Y-57898640D01*
X152712104Y-58101359D01*
X152740004Y-58277514D01*
X152743817Y-58301584D01*
X152806461Y-58494382D01*
X152894363Y-58666899D01*
X152898496Y-58675009D01*
X153017643Y-58839004D01*
X153160999Y-58982360D01*
X153268070Y-59060150D01*
X153324998Y-59101510D01*
X153505622Y-59193543D01*
X153698420Y-59256187D01*
X153898644Y-59287900D01*
X153898645Y-59287900D01*
X154101363Y-59287900D01*
X154101364Y-59287900D01*
X154301588Y-59256187D01*
X154494386Y-59193543D01*
X154675010Y-59101510D01*
X154786578Y-59020452D01*
X154839008Y-58982360D01*
X154839010Y-58982357D01*
X154839014Y-58982355D01*
X154982359Y-58839010D01*
X154982361Y-58839006D01*
X154982364Y-58839004D01*
X155034614Y-58767085D01*
X155101514Y-58675006D01*
X155193547Y-58494382D01*
X155256191Y-58301584D01*
X155287904Y-58101360D01*
X155287904Y-57898640D01*
X155712103Y-57898640D01*
X155712103Y-58101359D01*
X155740003Y-58277514D01*
X155743816Y-58301584D01*
X155806460Y-58494382D01*
X155894362Y-58666899D01*
X155898495Y-58675009D01*
X156017642Y-58839004D01*
X156160998Y-58982360D01*
X156268069Y-59060150D01*
X156324997Y-59101510D01*
X156505621Y-59193543D01*
X156698419Y-59256187D01*
X156898643Y-59287900D01*
X156898644Y-59287900D01*
X157101362Y-59287900D01*
X157101363Y-59287900D01*
X157301587Y-59256187D01*
X157494385Y-59193543D01*
X157675009Y-59101510D01*
X157786577Y-59020452D01*
X157839007Y-58982360D01*
X157839009Y-58982357D01*
X157839013Y-58982355D01*
X157982358Y-58839010D01*
X157982360Y-58839006D01*
X157982363Y-58839004D01*
X158034613Y-58767085D01*
X158101513Y-58675006D01*
X158193546Y-58494382D01*
X158256190Y-58301584D01*
X158287903Y-58101360D01*
X158287903Y-57898640D01*
X158712102Y-57898640D01*
X158712102Y-58101359D01*
X158740002Y-58277514D01*
X158743815Y-58301584D01*
X158806459Y-58494382D01*
X158894361Y-58666899D01*
X158898494Y-58675009D01*
X159017641Y-58839004D01*
X159160997Y-58982360D01*
X159268068Y-59060150D01*
X159324996Y-59101510D01*
X159505620Y-59193543D01*
X159698418Y-59256187D01*
X159898642Y-59287900D01*
X159898643Y-59287900D01*
X160101361Y-59287900D01*
X160101362Y-59287900D01*
X160301586Y-59256187D01*
X160494384Y-59193543D01*
X160675008Y-59101510D01*
X160786576Y-59020452D01*
X160839006Y-58982360D01*
X160839008Y-58982357D01*
X160839012Y-58982355D01*
X160982357Y-58839010D01*
X160982359Y-58839006D01*
X160982362Y-58839004D01*
X161034612Y-58767085D01*
X161101512Y-58675006D01*
X161193545Y-58494382D01*
X161256189Y-58301584D01*
X161287902Y-58101360D01*
X161287902Y-57898640D01*
X161712101Y-57898640D01*
X161712101Y-58101359D01*
X161740001Y-58277514D01*
X161743814Y-58301584D01*
X161806458Y-58494382D01*
X161894360Y-58666899D01*
X161898493Y-58675009D01*
X162017640Y-58839004D01*
X162160996Y-58982360D01*
X162268067Y-59060150D01*
X162324995Y-59101510D01*
X162505619Y-59193543D01*
X162698417Y-59256187D01*
X162898641Y-59287900D01*
X162898642Y-59287900D01*
X163101360Y-59287900D01*
X163101361Y-59287900D01*
X163301585Y-59256187D01*
X163494383Y-59193543D01*
X163675007Y-59101510D01*
X163786575Y-59020452D01*
X163839005Y-58982360D01*
X163839007Y-58982357D01*
X163839011Y-58982355D01*
X163982356Y-58839010D01*
X163982358Y-58839006D01*
X163982361Y-58839004D01*
X164034611Y-58767085D01*
X164101511Y-58675006D01*
X164193544Y-58494382D01*
X164256188Y-58301584D01*
X164287901Y-58101360D01*
X164287901Y-57898640D01*
X164712100Y-57898640D01*
X164712100Y-58101359D01*
X164740000Y-58277514D01*
X164743813Y-58301584D01*
X164806457Y-58494382D01*
X164894359Y-58666899D01*
X164898492Y-58675009D01*
X165017639Y-58839004D01*
X165160995Y-58982360D01*
X165268066Y-59060150D01*
X165324994Y-59101510D01*
X165505618Y-59193543D01*
X165698416Y-59256187D01*
X165898640Y-59287900D01*
X165898641Y-59287900D01*
X166101359Y-59287900D01*
X166101360Y-59287900D01*
X166301584Y-59256187D01*
X166494382Y-59193543D01*
X166675006Y-59101510D01*
X166786574Y-59020452D01*
X166839004Y-58982360D01*
X166839006Y-58982357D01*
X166839010Y-58982355D01*
X166982355Y-58839010D01*
X166982357Y-58839006D01*
X166982360Y-58839004D01*
X167034610Y-58767085D01*
X167101510Y-58675006D01*
X167193543Y-58494382D01*
X167256187Y-58301584D01*
X167287900Y-58101360D01*
X167287900Y-57898640D01*
X167284743Y-57878711D01*
X175649500Y-57878711D01*
X175649500Y-58121288D01*
X175681161Y-58361785D01*
X175743947Y-58596104D01*
X175836773Y-58820205D01*
X175836777Y-58820214D01*
X175847629Y-58839010D01*
X175958064Y-59030289D01*
X175958066Y-59030292D01*
X175958067Y-59030293D01*
X176105733Y-59222736D01*
X176105739Y-59222743D01*
X176277256Y-59394260D01*
X176277262Y-59394265D01*
X176469711Y-59541936D01*
X176679788Y-59663224D01*
X176903900Y-59756054D01*
X177138211Y-59818838D01*
X177318586Y-59842584D01*
X177378711Y-59850500D01*
X177378712Y-59850500D01*
X177621289Y-59850500D01*
X177669388Y-59844167D01*
X177861789Y-59818838D01*
X178096100Y-59756054D01*
X178320212Y-59663224D01*
X178530289Y-59541936D01*
X178722738Y-59394265D01*
X178894265Y-59222738D01*
X179041936Y-59030289D01*
X179163224Y-58820212D01*
X179256054Y-58596100D01*
X179318838Y-58361789D01*
X179350500Y-58121288D01*
X179350500Y-57878712D01*
X179348155Y-57860903D01*
X179326764Y-57698416D01*
X179318838Y-57638211D01*
X179256054Y-57403900D01*
X179163224Y-57179788D01*
X179041936Y-56969711D01*
X178894265Y-56777262D01*
X178894260Y-56777256D01*
X178722743Y-56605739D01*
X178722736Y-56605733D01*
X178530293Y-56458067D01*
X178530292Y-56458066D01*
X178530289Y-56458064D01*
X178343671Y-56350320D01*
X178320214Y-56336777D01*
X178320205Y-56336773D01*
X178096104Y-56243947D01*
X177861785Y-56181161D01*
X177621289Y-56149500D01*
X177621288Y-56149500D01*
X177378712Y-56149500D01*
X177378711Y-56149500D01*
X177138214Y-56181161D01*
X176903895Y-56243947D01*
X176679794Y-56336773D01*
X176679785Y-56336777D01*
X176469706Y-56458067D01*
X176277263Y-56605733D01*
X176277256Y-56605739D01*
X176105739Y-56777256D01*
X176105733Y-56777263D01*
X175958067Y-56969706D01*
X175836777Y-57179785D01*
X175836773Y-57179794D01*
X175743947Y-57403895D01*
X175681161Y-57638214D01*
X175649500Y-57878711D01*
X167284743Y-57878711D01*
X167256187Y-57698416D01*
X167193543Y-57505618D01*
X167101510Y-57324994D01*
X167093854Y-57314456D01*
X166982360Y-57160995D01*
X166839004Y-57017639D01*
X166675009Y-56898492D01*
X166675008Y-56898491D01*
X166675006Y-56898490D01*
X166494382Y-56806457D01*
X166301584Y-56743813D01*
X166301582Y-56743812D01*
X166301580Y-56743812D01*
X166161782Y-56721670D01*
X166101360Y-56712100D01*
X165898640Y-56712100D01*
X165852224Y-56719451D01*
X165698419Y-56743812D01*
X165505615Y-56806458D01*
X165324990Y-56898492D01*
X165160995Y-57017639D01*
X165017639Y-57160995D01*
X164898492Y-57324990D01*
X164806458Y-57505615D01*
X164743812Y-57698419D01*
X164712100Y-57898640D01*
X164287901Y-57898640D01*
X164256188Y-57698416D01*
X164193544Y-57505618D01*
X164101511Y-57324994D01*
X164093855Y-57314456D01*
X163982361Y-57160995D01*
X163839005Y-57017639D01*
X163675010Y-56898492D01*
X163675009Y-56898491D01*
X163675007Y-56898490D01*
X163494383Y-56806457D01*
X163301585Y-56743813D01*
X163301583Y-56743812D01*
X163301581Y-56743812D01*
X163161783Y-56721670D01*
X163101361Y-56712100D01*
X162898641Y-56712100D01*
X162852225Y-56719451D01*
X162698420Y-56743812D01*
X162505616Y-56806458D01*
X162324991Y-56898492D01*
X162160996Y-57017639D01*
X162017640Y-57160995D01*
X161898493Y-57324990D01*
X161806459Y-57505615D01*
X161743813Y-57698419D01*
X161712101Y-57898640D01*
X161287902Y-57898640D01*
X161256189Y-57698416D01*
X161193545Y-57505618D01*
X161101512Y-57324994D01*
X161093856Y-57314456D01*
X160982362Y-57160995D01*
X160839006Y-57017639D01*
X160675011Y-56898492D01*
X160675010Y-56898491D01*
X160675008Y-56898490D01*
X160494384Y-56806457D01*
X160301586Y-56743813D01*
X160301584Y-56743812D01*
X160301582Y-56743812D01*
X160161784Y-56721670D01*
X160101362Y-56712100D01*
X159898642Y-56712100D01*
X159852226Y-56719451D01*
X159698421Y-56743812D01*
X159505617Y-56806458D01*
X159324992Y-56898492D01*
X159160997Y-57017639D01*
X159017641Y-57160995D01*
X158898494Y-57324990D01*
X158806460Y-57505615D01*
X158743814Y-57698419D01*
X158712102Y-57898640D01*
X158287903Y-57898640D01*
X158256190Y-57698416D01*
X158193546Y-57505618D01*
X158101513Y-57324994D01*
X158093857Y-57314456D01*
X157982363Y-57160995D01*
X157839007Y-57017639D01*
X157675012Y-56898492D01*
X157675011Y-56898491D01*
X157675009Y-56898490D01*
X157494385Y-56806457D01*
X157301587Y-56743813D01*
X157301585Y-56743812D01*
X157301583Y-56743812D01*
X157161785Y-56721670D01*
X157101363Y-56712100D01*
X156898643Y-56712100D01*
X156852227Y-56719451D01*
X156698422Y-56743812D01*
X156505618Y-56806458D01*
X156324993Y-56898492D01*
X156160998Y-57017639D01*
X156017642Y-57160995D01*
X155898495Y-57324990D01*
X155806461Y-57505615D01*
X155743815Y-57698419D01*
X155712103Y-57898640D01*
X155287904Y-57898640D01*
X155256191Y-57698416D01*
X155193547Y-57505618D01*
X155101514Y-57324994D01*
X155093858Y-57314456D01*
X154982364Y-57160995D01*
X154839008Y-57017639D01*
X154675013Y-56898492D01*
X154675012Y-56898491D01*
X154675010Y-56898490D01*
X154494386Y-56806457D01*
X154301588Y-56743813D01*
X154301586Y-56743812D01*
X154301584Y-56743812D01*
X154161786Y-56721670D01*
X154101364Y-56712100D01*
X153898644Y-56712100D01*
X153852228Y-56719451D01*
X153698423Y-56743812D01*
X153505619Y-56806458D01*
X153324994Y-56898492D01*
X153160999Y-57017639D01*
X153017643Y-57160995D01*
X152898496Y-57324990D01*
X152806462Y-57505615D01*
X152743816Y-57698419D01*
X152712104Y-57898640D01*
X152287905Y-57898640D01*
X152256192Y-57698416D01*
X152193548Y-57505618D01*
X152101515Y-57324994D01*
X152093859Y-57314456D01*
X151982365Y-57160995D01*
X151839009Y-57017639D01*
X151675014Y-56898492D01*
X151675013Y-56898491D01*
X151675011Y-56898490D01*
X151494387Y-56806457D01*
X151301589Y-56743813D01*
X151301587Y-56743812D01*
X151301585Y-56743812D01*
X151161787Y-56721670D01*
X151101365Y-56712100D01*
X150898645Y-56712100D01*
X150852229Y-56719451D01*
X150698424Y-56743812D01*
X150505620Y-56806458D01*
X150324995Y-56898492D01*
X150161000Y-57017639D01*
X150017644Y-57160995D01*
X149898497Y-57324990D01*
X149806463Y-57505615D01*
X149743817Y-57698419D01*
X149712105Y-57898640D01*
X149287906Y-57898640D01*
X149256193Y-57698416D01*
X149193549Y-57505618D01*
X149101516Y-57324994D01*
X149093860Y-57314456D01*
X148982366Y-57160995D01*
X148839010Y-57017639D01*
X148675015Y-56898492D01*
X148675014Y-56898491D01*
X148675012Y-56898490D01*
X148494388Y-56806457D01*
X148301590Y-56743813D01*
X148301588Y-56743812D01*
X148301586Y-56743812D01*
X148161788Y-56721670D01*
X148101366Y-56712100D01*
X147898646Y-56712100D01*
X147852230Y-56719451D01*
X147698425Y-56743812D01*
X147505621Y-56806458D01*
X147324996Y-56898492D01*
X147161001Y-57017639D01*
X147017645Y-57160995D01*
X146898498Y-57324990D01*
X146806464Y-57505615D01*
X146743818Y-57698419D01*
X146712106Y-57898640D01*
X138546719Y-57898640D01*
X137262783Y-56614704D01*
X137229298Y-56553381D01*
X137234282Y-56483689D01*
X137276154Y-56427756D01*
X137341618Y-56403339D01*
X137369860Y-56404549D01*
X137385331Y-56407000D01*
X137385332Y-56407000D01*
X137614672Y-56407000D01*
X137841181Y-56371124D01*
X138059293Y-56300255D01*
X138263633Y-56196138D01*
X138449171Y-56061337D01*
X138611336Y-55899172D01*
X138746137Y-55713634D01*
X138850254Y-55509294D01*
X138921123Y-55291182D01*
X138927395Y-55251580D01*
X138956999Y-55064673D01*
X138956999Y-54885327D01*
X143543004Y-54885327D01*
X143543004Y-55114674D01*
X143578879Y-55341183D01*
X143649750Y-55559299D01*
X143708709Y-55675010D01*
X143753866Y-55763635D01*
X143888667Y-55949173D01*
X144050832Y-56111338D01*
X144236370Y-56246139D01*
X144318332Y-56287901D01*
X144440705Y-56350254D01*
X144440707Y-56350254D01*
X144440710Y-56350256D01*
X144534315Y-56380670D01*
X144658821Y-56421125D01*
X144885331Y-56457001D01*
X144885336Y-56457001D01*
X145114677Y-56457001D01*
X145341186Y-56421125D01*
X145384658Y-56407000D01*
X145559298Y-56350256D01*
X145763638Y-56246139D01*
X145949176Y-56111338D01*
X146111341Y-55949173D01*
X146246142Y-55763635D01*
X146350259Y-55559295D01*
X146421128Y-55341183D01*
X146429047Y-55291182D01*
X146457004Y-55114674D01*
X146457004Y-54898641D01*
X146712106Y-54898641D01*
X146712106Y-55101361D01*
X146743819Y-55301585D01*
X146806463Y-55494383D01*
X146839537Y-55559295D01*
X146898498Y-55675010D01*
X147017645Y-55839005D01*
X147161001Y-55982361D01*
X147290732Y-56076614D01*
X147325000Y-56101511D01*
X147505624Y-56193544D01*
X147698422Y-56256188D01*
X147898646Y-56287901D01*
X147898647Y-56287901D01*
X148101365Y-56287901D01*
X148101366Y-56287901D01*
X148301590Y-56256188D01*
X148494388Y-56193544D01*
X148675012Y-56101511D01*
X148767091Y-56034611D01*
X148839010Y-55982361D01*
X148839012Y-55982358D01*
X148839016Y-55982356D01*
X148982361Y-55839011D01*
X148982363Y-55839007D01*
X148982366Y-55839005D01*
X149073452Y-55713634D01*
X149101516Y-55675007D01*
X149193549Y-55494383D01*
X149256193Y-55301585D01*
X149287906Y-55101361D01*
X149287906Y-54898641D01*
X149712105Y-54898641D01*
X149712105Y-55101361D01*
X149743818Y-55301585D01*
X149806462Y-55494383D01*
X149839536Y-55559295D01*
X149898497Y-55675010D01*
X150017644Y-55839005D01*
X150161000Y-55982361D01*
X150290731Y-56076614D01*
X150324999Y-56101511D01*
X150505623Y-56193544D01*
X150698421Y-56256188D01*
X150898645Y-56287901D01*
X150898646Y-56287901D01*
X151101364Y-56287901D01*
X151101365Y-56287901D01*
X151301589Y-56256188D01*
X151494387Y-56193544D01*
X151675011Y-56101511D01*
X151767090Y-56034611D01*
X151839009Y-55982361D01*
X151839011Y-55982358D01*
X151839015Y-55982356D01*
X151982360Y-55839011D01*
X151982362Y-55839007D01*
X151982365Y-55839005D01*
X152073451Y-55713634D01*
X152101515Y-55675007D01*
X152193548Y-55494383D01*
X152256192Y-55301585D01*
X152287905Y-55101361D01*
X152287905Y-54898641D01*
X152712104Y-54898641D01*
X152712104Y-55101361D01*
X152743817Y-55301585D01*
X152806461Y-55494383D01*
X152839535Y-55559295D01*
X152898496Y-55675010D01*
X153017643Y-55839005D01*
X153160999Y-55982361D01*
X153290730Y-56076614D01*
X153324998Y-56101511D01*
X153505622Y-56193544D01*
X153698420Y-56256188D01*
X153898644Y-56287901D01*
X153898645Y-56287901D01*
X154101363Y-56287901D01*
X154101364Y-56287901D01*
X154301588Y-56256188D01*
X154494386Y-56193544D01*
X154675010Y-56101511D01*
X154767089Y-56034611D01*
X154839008Y-55982361D01*
X154839010Y-55982358D01*
X154839014Y-55982356D01*
X154982359Y-55839011D01*
X154982361Y-55839007D01*
X154982364Y-55839005D01*
X155073450Y-55713634D01*
X155101514Y-55675007D01*
X155193547Y-55494383D01*
X155256191Y-55301585D01*
X155287904Y-55101361D01*
X155287904Y-54898641D01*
X155712103Y-54898641D01*
X155712103Y-55101361D01*
X155743816Y-55301585D01*
X155806460Y-55494383D01*
X155839534Y-55559295D01*
X155898495Y-55675010D01*
X156017642Y-55839005D01*
X156160998Y-55982361D01*
X156290729Y-56076614D01*
X156324997Y-56101511D01*
X156505621Y-56193544D01*
X156698419Y-56256188D01*
X156898643Y-56287901D01*
X156898644Y-56287901D01*
X157101362Y-56287901D01*
X157101363Y-56287901D01*
X157301587Y-56256188D01*
X157494385Y-56193544D01*
X157675009Y-56101511D01*
X157767088Y-56034611D01*
X157839007Y-55982361D01*
X157839009Y-55982358D01*
X157839013Y-55982356D01*
X157982358Y-55839011D01*
X157982360Y-55839007D01*
X157982363Y-55839005D01*
X158073449Y-55713634D01*
X158101513Y-55675007D01*
X158193546Y-55494383D01*
X158256190Y-55301585D01*
X158287903Y-55101361D01*
X158287903Y-54898641D01*
X158712102Y-54898641D01*
X158712102Y-55101361D01*
X158743815Y-55301585D01*
X158806459Y-55494383D01*
X158839533Y-55559295D01*
X158898494Y-55675010D01*
X159017641Y-55839005D01*
X159160997Y-55982361D01*
X159290728Y-56076614D01*
X159324996Y-56101511D01*
X159505620Y-56193544D01*
X159698418Y-56256188D01*
X159898642Y-56287901D01*
X159898643Y-56287901D01*
X160101361Y-56287901D01*
X160101362Y-56287901D01*
X160301586Y-56256188D01*
X160494384Y-56193544D01*
X160675008Y-56101511D01*
X160767087Y-56034611D01*
X160839006Y-55982361D01*
X160839008Y-55982358D01*
X160839012Y-55982356D01*
X160982357Y-55839011D01*
X160982359Y-55839007D01*
X160982362Y-55839005D01*
X161073448Y-55713634D01*
X161101512Y-55675007D01*
X161193545Y-55494383D01*
X161256189Y-55301585D01*
X161287902Y-55101361D01*
X161287902Y-54898641D01*
X161712101Y-54898641D01*
X161712101Y-55101361D01*
X161743814Y-55301585D01*
X161806458Y-55494383D01*
X161839532Y-55559295D01*
X161898493Y-55675010D01*
X162017640Y-55839005D01*
X162160996Y-55982361D01*
X162290727Y-56076614D01*
X162324995Y-56101511D01*
X162505619Y-56193544D01*
X162698417Y-56256188D01*
X162898641Y-56287901D01*
X162898642Y-56287901D01*
X163101360Y-56287901D01*
X163101361Y-56287901D01*
X163301585Y-56256188D01*
X163494383Y-56193544D01*
X163675007Y-56101511D01*
X163767086Y-56034611D01*
X163839005Y-55982361D01*
X163839007Y-55982358D01*
X163839011Y-55982356D01*
X163982356Y-55839011D01*
X163982358Y-55839007D01*
X163982361Y-55839005D01*
X164073447Y-55713634D01*
X164101511Y-55675007D01*
X164193544Y-55494383D01*
X164256188Y-55301585D01*
X164287901Y-55101361D01*
X164287901Y-54898641D01*
X164712100Y-54898641D01*
X164712100Y-55101361D01*
X164743813Y-55301585D01*
X164806457Y-55494383D01*
X164839531Y-55559295D01*
X164898492Y-55675010D01*
X165017639Y-55839005D01*
X165160995Y-55982361D01*
X165290726Y-56076614D01*
X165324994Y-56101511D01*
X165505618Y-56193544D01*
X165698416Y-56256188D01*
X165898640Y-56287901D01*
X165898641Y-56287901D01*
X166101359Y-56287901D01*
X166101360Y-56287901D01*
X166301584Y-56256188D01*
X166494382Y-56193544D01*
X166675006Y-56101511D01*
X166767085Y-56034611D01*
X166839004Y-55982361D01*
X166839006Y-55982358D01*
X166839010Y-55982356D01*
X166982355Y-55839011D01*
X166982357Y-55839007D01*
X166982360Y-55839005D01*
X167073446Y-55713634D01*
X167101510Y-55675007D01*
X167193543Y-55494383D01*
X167256187Y-55301585D01*
X167287900Y-55101361D01*
X167287900Y-54898641D01*
X167285791Y-54885327D01*
X167543002Y-54885327D01*
X167543002Y-55114674D01*
X167578877Y-55341183D01*
X167649748Y-55559299D01*
X167708707Y-55675010D01*
X167753864Y-55763635D01*
X167888665Y-55949173D01*
X168050830Y-56111338D01*
X168236368Y-56246139D01*
X168318330Y-56287901D01*
X168440703Y-56350254D01*
X168440705Y-56350254D01*
X168440708Y-56350256D01*
X168534313Y-56380670D01*
X168658819Y-56421125D01*
X168885329Y-56457001D01*
X168885334Y-56457001D01*
X169114675Y-56457001D01*
X169341184Y-56421125D01*
X169384656Y-56407000D01*
X169559296Y-56350256D01*
X169763636Y-56246139D01*
X169949174Y-56111338D01*
X170111339Y-55949173D01*
X170246140Y-55763635D01*
X170350257Y-55559295D01*
X170421126Y-55341183D01*
X170429045Y-55291182D01*
X170457002Y-55114674D01*
X170457002Y-54885327D01*
X170421126Y-54658818D01*
X170350255Y-54440702D01*
X170265825Y-54275001D01*
X170246140Y-54236367D01*
X170111339Y-54050829D01*
X169949174Y-53888664D01*
X169763636Y-53753863D01*
X169743912Y-53743813D01*
X169559300Y-53649747D01*
X169341184Y-53578876D01*
X169114675Y-53543001D01*
X169114670Y-53543001D01*
X168885334Y-53543001D01*
X168885329Y-53543001D01*
X168658819Y-53578876D01*
X168440703Y-53649747D01*
X168236367Y-53753863D01*
X168050827Y-53888666D01*
X167888667Y-54050826D01*
X167753864Y-54236366D01*
X167649748Y-54440702D01*
X167578877Y-54658818D01*
X167543002Y-54885327D01*
X167285791Y-54885327D01*
X167256187Y-54698417D01*
X167193543Y-54505619D01*
X167101510Y-54324995D01*
X167065188Y-54275001D01*
X166982360Y-54160996D01*
X166839004Y-54017640D01*
X166675009Y-53898493D01*
X166675008Y-53898492D01*
X166675006Y-53898491D01*
X166494382Y-53806458D01*
X166301584Y-53743814D01*
X166301582Y-53743813D01*
X166301580Y-53743813D01*
X166161782Y-53721671D01*
X166101360Y-53712101D01*
X165898640Y-53712101D01*
X165852224Y-53719452D01*
X165698419Y-53743813D01*
X165505615Y-53806459D01*
X165324990Y-53898493D01*
X165160995Y-54017640D01*
X165017639Y-54160996D01*
X164898492Y-54324991D01*
X164806458Y-54505616D01*
X164743812Y-54698420D01*
X164714209Y-54885327D01*
X164712100Y-54898641D01*
X164287901Y-54898641D01*
X164256188Y-54698417D01*
X164193544Y-54505619D01*
X164101511Y-54324995D01*
X164065189Y-54275001D01*
X163982361Y-54160996D01*
X163839005Y-54017640D01*
X163675010Y-53898493D01*
X163675009Y-53898492D01*
X163675007Y-53898491D01*
X163494383Y-53806458D01*
X163301585Y-53743814D01*
X163301583Y-53743813D01*
X163301581Y-53743813D01*
X163161783Y-53721671D01*
X163101361Y-53712101D01*
X162898641Y-53712101D01*
X162852225Y-53719452D01*
X162698420Y-53743813D01*
X162505616Y-53806459D01*
X162324991Y-53898493D01*
X162160996Y-54017640D01*
X162017640Y-54160996D01*
X161898493Y-54324991D01*
X161806459Y-54505616D01*
X161743813Y-54698420D01*
X161714210Y-54885327D01*
X161712101Y-54898641D01*
X161287902Y-54898641D01*
X161256189Y-54698417D01*
X161193545Y-54505619D01*
X161101512Y-54324995D01*
X161065190Y-54275001D01*
X160982362Y-54160996D01*
X160839006Y-54017640D01*
X160675011Y-53898493D01*
X160675010Y-53898492D01*
X160675008Y-53898491D01*
X160494384Y-53806458D01*
X160301586Y-53743814D01*
X160301584Y-53743813D01*
X160301582Y-53743813D01*
X160161784Y-53721671D01*
X160101362Y-53712101D01*
X159898642Y-53712101D01*
X159852226Y-53719452D01*
X159698421Y-53743813D01*
X159505617Y-53806459D01*
X159324992Y-53898493D01*
X159160997Y-54017640D01*
X159017641Y-54160996D01*
X158898494Y-54324991D01*
X158806460Y-54505616D01*
X158743814Y-54698420D01*
X158714211Y-54885327D01*
X158712102Y-54898641D01*
X158287903Y-54898641D01*
X158256190Y-54698417D01*
X158193546Y-54505619D01*
X158101513Y-54324995D01*
X158065191Y-54275001D01*
X157982363Y-54160996D01*
X157839007Y-54017640D01*
X157675012Y-53898493D01*
X157675011Y-53898492D01*
X157675009Y-53898491D01*
X157494385Y-53806458D01*
X157301587Y-53743814D01*
X157301585Y-53743813D01*
X157301583Y-53743813D01*
X157161785Y-53721671D01*
X157101363Y-53712101D01*
X156898643Y-53712101D01*
X156852227Y-53719452D01*
X156698422Y-53743813D01*
X156505618Y-53806459D01*
X156324993Y-53898493D01*
X156160998Y-54017640D01*
X156017642Y-54160996D01*
X155898495Y-54324991D01*
X155806461Y-54505616D01*
X155743815Y-54698420D01*
X155714212Y-54885327D01*
X155712103Y-54898641D01*
X155287904Y-54898641D01*
X155256191Y-54698417D01*
X155193547Y-54505619D01*
X155101514Y-54324995D01*
X155065192Y-54275001D01*
X154982364Y-54160996D01*
X154839008Y-54017640D01*
X154675013Y-53898493D01*
X154675012Y-53898492D01*
X154675010Y-53898491D01*
X154494386Y-53806458D01*
X154301588Y-53743814D01*
X154301586Y-53743813D01*
X154301584Y-53743813D01*
X154161786Y-53721671D01*
X154101364Y-53712101D01*
X153898644Y-53712101D01*
X153852228Y-53719452D01*
X153698423Y-53743813D01*
X153505619Y-53806459D01*
X153324994Y-53898493D01*
X153160999Y-54017640D01*
X153017643Y-54160996D01*
X152898496Y-54324991D01*
X152806462Y-54505616D01*
X152743816Y-54698420D01*
X152714213Y-54885327D01*
X152712104Y-54898641D01*
X152287905Y-54898641D01*
X152256192Y-54698417D01*
X152193548Y-54505619D01*
X152101515Y-54324995D01*
X152065193Y-54275001D01*
X151982365Y-54160996D01*
X151839009Y-54017640D01*
X151675014Y-53898493D01*
X151675013Y-53898492D01*
X151675011Y-53898491D01*
X151494387Y-53806458D01*
X151301589Y-53743814D01*
X151301587Y-53743813D01*
X151301585Y-53743813D01*
X151161787Y-53721671D01*
X151101365Y-53712101D01*
X150898645Y-53712101D01*
X150852229Y-53719452D01*
X150698424Y-53743813D01*
X150505620Y-53806459D01*
X150324995Y-53898493D01*
X150161000Y-54017640D01*
X150017644Y-54160996D01*
X149898497Y-54324991D01*
X149806463Y-54505616D01*
X149743817Y-54698420D01*
X149714214Y-54885327D01*
X149712105Y-54898641D01*
X149287906Y-54898641D01*
X149256193Y-54698417D01*
X149193549Y-54505619D01*
X149101516Y-54324995D01*
X149065194Y-54275001D01*
X148982366Y-54160996D01*
X148839010Y-54017640D01*
X148675015Y-53898493D01*
X148675014Y-53898492D01*
X148675012Y-53898491D01*
X148494388Y-53806458D01*
X148301590Y-53743814D01*
X148301588Y-53743813D01*
X148301586Y-53743813D01*
X148161788Y-53721671D01*
X148101366Y-53712101D01*
X147898646Y-53712101D01*
X147852230Y-53719452D01*
X147698425Y-53743813D01*
X147505621Y-53806459D01*
X147324996Y-53898493D01*
X147161001Y-54017640D01*
X147017645Y-54160996D01*
X146898498Y-54324991D01*
X146806464Y-54505616D01*
X146743818Y-54698420D01*
X146714215Y-54885327D01*
X146712106Y-54898641D01*
X146457004Y-54898641D01*
X146457004Y-54885327D01*
X146421128Y-54658818D01*
X146350257Y-54440702D01*
X146265827Y-54275001D01*
X146246142Y-54236367D01*
X146111341Y-54050829D01*
X145949176Y-53888664D01*
X145763638Y-53753863D01*
X145743914Y-53743813D01*
X145559302Y-53649747D01*
X145341186Y-53578876D01*
X145114677Y-53543001D01*
X145114672Y-53543001D01*
X144885336Y-53543001D01*
X144885331Y-53543001D01*
X144658821Y-53578876D01*
X144440705Y-53649747D01*
X144236369Y-53753863D01*
X144050829Y-53888666D01*
X143888669Y-54050826D01*
X143753866Y-54236366D01*
X143649750Y-54440702D01*
X143578879Y-54658818D01*
X143543004Y-54885327D01*
X138956999Y-54885327D01*
X138956999Y-54835326D01*
X138921123Y-54608817D01*
X138866500Y-54440707D01*
X138850254Y-54390706D01*
X138850252Y-54390703D01*
X138850252Y-54390701D01*
X138752894Y-54199628D01*
X138746137Y-54186366D01*
X138611336Y-54000828D01*
X138449171Y-53838663D01*
X138263633Y-53703862D01*
X138243909Y-53693812D01*
X138059297Y-53599746D01*
X137841181Y-53528875D01*
X137614672Y-53493000D01*
X137614667Y-53493000D01*
X137385331Y-53493000D01*
X137385326Y-53493000D01*
X137158816Y-53528875D01*
X136940700Y-53599746D01*
X136736364Y-53703862D01*
X136550824Y-53838665D01*
X136388664Y-54000825D01*
X136253861Y-54186365D01*
X136149745Y-54390701D01*
X136078875Y-54608816D01*
X136061547Y-54718217D01*
X136031617Y-54781351D01*
X135972305Y-54818282D01*
X135902443Y-54817284D01*
X135844210Y-54778674D01*
X135826972Y-54751818D01*
X135711447Y-54507468D01*
X135705624Y-54492801D01*
X135693543Y-54455618D01*
X135693542Y-54455617D01*
X135693542Y-54455615D01*
X135626985Y-54324991D01*
X135601510Y-54274994D01*
X135581939Y-54248058D01*
X135571812Y-54234118D01*
X135570953Y-54232936D01*
X135547931Y-54199628D01*
X135544526Y-54196561D01*
X135482355Y-54110990D01*
X135339010Y-53967645D01*
X135339004Y-53967639D01*
X135175009Y-53848492D01*
X135175008Y-53848491D01*
X135175006Y-53848490D01*
X134994382Y-53756457D01*
X134801584Y-53693813D01*
X134801582Y-53693812D01*
X134801580Y-53693812D01*
X134661782Y-53671670D01*
X134601360Y-53662100D01*
X134398640Y-53662100D01*
X134352224Y-53669451D01*
X134198419Y-53693812D01*
X134198416Y-53693813D01*
X134013602Y-53753863D01*
X134005615Y-53756458D01*
X133824990Y-53848492D01*
X133660995Y-53967639D01*
X133517639Y-54110995D01*
X133398492Y-54274990D01*
X133306458Y-54455615D01*
X133243812Y-54648419D01*
X133242165Y-54658818D01*
X133212100Y-54848640D01*
X133212100Y-55051360D01*
X133243813Y-55251584D01*
X133306457Y-55444382D01*
X133365010Y-55559299D01*
X133398492Y-55625009D01*
X133517639Y-55789004D01*
X133660995Y-55932360D01*
X133814456Y-56043854D01*
X133824994Y-56051510D01*
X133871324Y-56075116D01*
X133874263Y-56076614D01*
X133925059Y-56124589D01*
X133941854Y-56192410D01*
X133919316Y-56258545D01*
X133864601Y-56301996D01*
X133817968Y-56311099D01*
X132182033Y-56311099D01*
X132114994Y-56291414D01*
X132069239Y-56238610D01*
X132059295Y-56169452D01*
X132088320Y-56105896D01*
X132125738Y-56076614D01*
X132127699Y-56075614D01*
X132175007Y-56051510D01*
X132270190Y-55982356D01*
X132339005Y-55932360D01*
X132339007Y-55932357D01*
X132339011Y-55932355D01*
X132482356Y-55789010D01*
X132482358Y-55789006D01*
X132482361Y-55789004D01*
X132565183Y-55675007D01*
X132601511Y-55625006D01*
X132693544Y-55444382D01*
X132756188Y-55251584D01*
X132787901Y-55051360D01*
X132787901Y-54848640D01*
X132756188Y-54648416D01*
X132693544Y-54455618D01*
X132601511Y-54274994D01*
X132573447Y-54236367D01*
X132482361Y-54110995D01*
X132339005Y-53967639D01*
X132175010Y-53848492D01*
X132175009Y-53848491D01*
X132175007Y-53848490D01*
X131994383Y-53756457D01*
X131801585Y-53693813D01*
X131801583Y-53693812D01*
X131801581Y-53693812D01*
X131661783Y-53671670D01*
X131601361Y-53662100D01*
X131398641Y-53662100D01*
X131352225Y-53669451D01*
X131198420Y-53693812D01*
X131198417Y-53693813D01*
X131013603Y-53753863D01*
X131005616Y-53756458D01*
X130824991Y-53848492D01*
X130660996Y-53967639D01*
X130517640Y-54110995D01*
X130398493Y-54274990D01*
X130306459Y-54455615D01*
X130243813Y-54648419D01*
X130242166Y-54658818D01*
X130212101Y-54848640D01*
X130212101Y-55051360D01*
X130243814Y-55251584D01*
X130306458Y-55444382D01*
X130365011Y-55559299D01*
X130398493Y-55625009D01*
X130517640Y-55789004D01*
X130660996Y-55932360D01*
X130814457Y-56043854D01*
X130824995Y-56051510D01*
X130871325Y-56075116D01*
X130874264Y-56076614D01*
X130925060Y-56124589D01*
X130941855Y-56192410D01*
X130919317Y-56258545D01*
X130864602Y-56301996D01*
X130817969Y-56311099D01*
X129639169Y-56311099D01*
X129618838Y-56311099D01*
X129607050Y-56310402D01*
X129602005Y-56311099D01*
X129487636Y-56311099D01*
X129341267Y-56350318D01*
X129341266Y-56350318D01*
X129341261Y-56350320D01*
X129301832Y-56373084D01*
X129274115Y-56384863D01*
X128216949Y-56688963D01*
X128214498Y-56689755D01*
X128203106Y-56692480D01*
X128203153Y-56692675D01*
X128198419Y-56693811D01*
X128005617Y-56756457D01*
X127824992Y-56848491D01*
X127660997Y-56967638D01*
X127517641Y-57110994D01*
X127398494Y-57274989D01*
X127306460Y-57455614D01*
X127306459Y-57455616D01*
X127306459Y-57455617D01*
X127303763Y-57463915D01*
X127243814Y-57648418D01*
X127212102Y-57848639D01*
X118846541Y-57848639D01*
X118818838Y-57638211D01*
X118756054Y-57403900D01*
X118663224Y-57179788D01*
X118541936Y-56969711D01*
X118394265Y-56777262D01*
X118394260Y-56777256D01*
X118222743Y-56605739D01*
X118222736Y-56605733D01*
X118030293Y-56458067D01*
X118030292Y-56458066D01*
X118030289Y-56458064D01*
X117843671Y-56350320D01*
X117820214Y-56336777D01*
X117820205Y-56336773D01*
X117596104Y-56243947D01*
X117361785Y-56181161D01*
X117121289Y-56149500D01*
X117121288Y-56149500D01*
X116878712Y-56149500D01*
X116878711Y-56149500D01*
X116638214Y-56181161D01*
X116403895Y-56243947D01*
X116179794Y-56336773D01*
X116179785Y-56336777D01*
X115969706Y-56458067D01*
X115777263Y-56605733D01*
X115777256Y-56605739D01*
X115605739Y-56777256D01*
X115605733Y-56777263D01*
X115458067Y-56969706D01*
X115336777Y-57179785D01*
X115336773Y-57179794D01*
X115243947Y-57403895D01*
X115181161Y-57638214D01*
X115149500Y-57878711D01*
X114000500Y-57878711D01*
X114000500Y-54835326D01*
X124043003Y-54835326D01*
X124043003Y-55064673D01*
X124078878Y-55291182D01*
X124149749Y-55509298D01*
X124208708Y-55625009D01*
X124253865Y-55713634D01*
X124388666Y-55899172D01*
X124550831Y-56061337D01*
X124736369Y-56196138D01*
X124788235Y-56222565D01*
X124940704Y-56300253D01*
X124940706Y-56300253D01*
X124940709Y-56300255D01*
X125053100Y-56336773D01*
X125158820Y-56371124D01*
X125385330Y-56407000D01*
X125385335Y-56407000D01*
X125614676Y-56407000D01*
X125841185Y-56371124D01*
X126059297Y-56300255D01*
X126263637Y-56196138D01*
X126449175Y-56061337D01*
X126611340Y-55899172D01*
X126746141Y-55713634D01*
X126850258Y-55509294D01*
X126921127Y-55291182D01*
X126927399Y-55251580D01*
X126957003Y-55064673D01*
X126957003Y-54848640D01*
X127212102Y-54848640D01*
X127212102Y-55051360D01*
X127243815Y-55251584D01*
X127306459Y-55444382D01*
X127365012Y-55559299D01*
X127398494Y-55625009D01*
X127517641Y-55789004D01*
X127660997Y-55932360D01*
X127814458Y-56043854D01*
X127824996Y-56051510D01*
X128005620Y-56143543D01*
X128198418Y-56206187D01*
X128398642Y-56237900D01*
X128398643Y-56237900D01*
X128601361Y-56237900D01*
X128601362Y-56237900D01*
X128801586Y-56206187D01*
X128994384Y-56143543D01*
X129175008Y-56051510D01*
X129270191Y-55982356D01*
X129339006Y-55932360D01*
X129339008Y-55932357D01*
X129339012Y-55932355D01*
X129482357Y-55789010D01*
X129482359Y-55789006D01*
X129482362Y-55789004D01*
X129565184Y-55675007D01*
X129601512Y-55625006D01*
X129693545Y-55444382D01*
X129756189Y-55251584D01*
X129787902Y-55051360D01*
X129787902Y-54848640D01*
X129756189Y-54648416D01*
X129693545Y-54455618D01*
X129601512Y-54274994D01*
X129573448Y-54236367D01*
X129482362Y-54110995D01*
X129339006Y-53967639D01*
X129175011Y-53848492D01*
X129175010Y-53848491D01*
X129175008Y-53848490D01*
X128994384Y-53756457D01*
X128801586Y-53693813D01*
X128801584Y-53693812D01*
X128801582Y-53693812D01*
X128661784Y-53671670D01*
X128601362Y-53662100D01*
X128398642Y-53662100D01*
X128352226Y-53669451D01*
X128198421Y-53693812D01*
X128198418Y-53693813D01*
X128013604Y-53753863D01*
X128005617Y-53756458D01*
X127824992Y-53848492D01*
X127660997Y-53967639D01*
X127517641Y-54110995D01*
X127398494Y-54274990D01*
X127306460Y-54455615D01*
X127243814Y-54648419D01*
X127242167Y-54658818D01*
X127212102Y-54848640D01*
X126957003Y-54848640D01*
X126957003Y-54835326D01*
X126921127Y-54608817D01*
X126866504Y-54440707D01*
X126850258Y-54390706D01*
X126850256Y-54390703D01*
X126850256Y-54390701D01*
X126752898Y-54199628D01*
X126746141Y-54186366D01*
X126611340Y-54000828D01*
X126449175Y-53838663D01*
X126263637Y-53703862D01*
X126243913Y-53693812D01*
X126059301Y-53599746D01*
X125841185Y-53528875D01*
X125614676Y-53493000D01*
X125614671Y-53493000D01*
X125385335Y-53493000D01*
X125385330Y-53493000D01*
X125158820Y-53528875D01*
X124940704Y-53599746D01*
X124736368Y-53703862D01*
X124550828Y-53838665D01*
X124388668Y-54000825D01*
X124253865Y-54186365D01*
X124149749Y-54390701D01*
X124078878Y-54608817D01*
X124043003Y-54835326D01*
X114000500Y-54835326D01*
X114000500Y-53473423D01*
X114000726Y-53465935D01*
X114007234Y-53358361D01*
X114018273Y-53175885D01*
X114020078Y-53161022D01*
X114023150Y-53144254D01*
X114071786Y-52878873D01*
X114075361Y-52864367D01*
X114160707Y-52590492D01*
X114166006Y-52576521D01*
X114283736Y-52314937D01*
X114290681Y-52301705D01*
X114439082Y-52056224D01*
X114447579Y-52043913D01*
X114624481Y-51818118D01*
X114634410Y-51806912D01*
X114712780Y-51728542D01*
X114837233Y-51604089D01*
X114848424Y-51594174D01*
X115074236Y-51417263D01*
X115086533Y-51408775D01*
X115332030Y-51260368D01*
X115345246Y-51253431D01*
X115606846Y-51135696D01*
X115620826Y-51130394D01*
X115894679Y-51045059D01*
X115909197Y-51041480D01*
X116191344Y-50989775D01*
X116206201Y-50987971D01*
X116496620Y-50970404D01*
X116504205Y-50970179D01*
X177933866Y-51030760D01*
G37*
%TD.AperFunction*%
%TD*%
%TA.AperFunction,Conductor*%
%TO.N,+12V*%
G36*
X165366128Y-77499036D02*
G01*
X166120935Y-77648349D01*
X166128386Y-77653317D01*
X166128401Y-77653339D01*
X166556448Y-78295686D01*
X166558184Y-78304471D01*
X166553932Y-78311381D01*
X165552858Y-79096390D01*
X165544233Y-79098798D01*
X165537365Y-79095456D01*
X165300837Y-78858928D01*
X165297410Y-78850655D01*
X165297420Y-78850177D01*
X165319715Y-78304471D01*
X165352170Y-77510036D01*
X165355931Y-77501911D01*
X165364338Y-77498825D01*
X165366128Y-77499036D01*
G37*
%TD.AperFunction*%
%TD*%
%TA.AperFunction,Conductor*%
%TO.N,+12V*%
G36*
X134946375Y-57299112D02*
G01*
X136052570Y-57771964D01*
X136058829Y-57778366D01*
X136059670Y-57782721D01*
X136059670Y-58117276D01*
X136056243Y-58125549D01*
X136052569Y-58128034D01*
X134946377Y-58600884D01*
X134937423Y-58600985D01*
X134932057Y-58596636D01*
X134618231Y-58128034D01*
X134503358Y-57956507D01*
X134501602Y-57947729D01*
X134503357Y-57943492D01*
X134932057Y-57303360D01*
X134939508Y-57298393D01*
X134946375Y-57299112D01*
G37*
%TD.AperFunction*%
%TD*%
%TA.AperFunction,Conductor*%
%TO.N,/CAN_H-in*%
G36*
X166118017Y-74647773D02*
G01*
X166125468Y-74652741D01*
X166127225Y-74656981D01*
X166276585Y-75412026D01*
X166274828Y-75420806D01*
X166268660Y-75425443D01*
X165081966Y-75803723D01*
X165073043Y-75802971D01*
X165070140Y-75800849D01*
X164974149Y-75704858D01*
X164970722Y-75696585D01*
X164971273Y-75693038D01*
X165349556Y-74506336D01*
X165355332Y-74499496D01*
X165362970Y-74498413D01*
X166118017Y-74647773D01*
G37*
%TD.AperFunction*%
%TD*%
%TA.AperFunction,Conductor*%
%TO.N,/CAN_H-in*%
G36*
X129613162Y-56816900D02*
G01*
X129618742Y-56823904D01*
X129619198Y-56827138D01*
X129619198Y-56959860D01*
X129618693Y-56963261D01*
X129275352Y-58093473D01*
X129269668Y-58100393D01*
X129261877Y-58101548D01*
X128506681Y-57951524D01*
X128499234Y-57946551D01*
X128497484Y-57942319D01*
X128348471Y-57188269D01*
X128350229Y-57179490D01*
X128356714Y-57174758D01*
X129604266Y-56815894D01*
X129613162Y-56816900D01*
G37*
%TD.AperFunction*%
%TD*%
%TA.AperFunction,Conductor*%
%TO.N,/CAN_L-in*%
G36*
X135159648Y-54523305D02*
G01*
X135160489Y-54524792D01*
X135780596Y-55836404D01*
X135781034Y-55845348D01*
X135778292Y-55849678D01*
X135682331Y-55945639D01*
X135674058Y-55949066D01*
X135672086Y-55948899D01*
X134358222Y-55724293D01*
X134350645Y-55719521D01*
X134348661Y-55710788D01*
X134348716Y-55710490D01*
X134498349Y-54954060D01*
X134503316Y-54946611D01*
X135143424Y-54520056D01*
X135152209Y-54518321D01*
X135159648Y-54523305D01*
G37*
%TD.AperFunction*%
%TD*%
M02*
